<mxfile host="Electron" modified="2025-06-24T09:05:29.570Z" agent="Mozilla/5.0 (Windows NT 10.0; Win64; x64) AppleWebKit/537.36 (KHTML, like Gecko) draw.io/22.1.2 Chrome/114.0.5735.289 Electron/25.9.4 Safari/537.36" etag="f_6eFXU_WIftnse0PiY8" version="22.1.2" type="device">
  <diagram name="Seite-1" id="HowVp-nTLMUp8vl61X0C">
    <mxGraphModel dx="3985" dy="2090" grid="0" gridSize="10" guides="1" tooltips="1" connect="1" arrows="1" fold="1" page="0" pageScale="1" pageWidth="827" pageHeight="1169" math="0" shadow="0">
      <root>
        <mxCell id="0" />
        <mxCell id="1" parent="0" />
        <mxCell id="2TpxmuqHMShW1TZFTz-Z-1" value="" style="endArrow=none;dashed=1;html=1;dashPattern=1 3;strokeWidth=2;rounded=0;" parent="1" edge="1">
          <mxGeometry width="50" height="50" relative="1" as="geometry">
            <mxPoint x="316" y="2319" as="sourcePoint" />
            <mxPoint x="320" y="100" as="targetPoint" />
          </mxGeometry>
        </mxCell>
        <mxCell id="2TpxmuqHMShW1TZFTz-Z-2" value="" style="endArrow=none;dashed=1;html=1;dashPattern=1 3;strokeWidth=2;rounded=0;" parent="1" edge="1">
          <mxGeometry width="50" height="50" relative="1" as="geometry">
            <mxPoint x="590" y="2313" as="sourcePoint" />
            <mxPoint x="590" y="100" as="targetPoint" />
          </mxGeometry>
        </mxCell>
        <mxCell id="2TpxmuqHMShW1TZFTz-Z-3" value="" style="shape=image;verticalLabelPosition=bottom;labelBackgroundColor=default;verticalAlign=top;aspect=fixed;imageAspect=0;image=data:image/png,iVBORw0KGgoAAAANSUhEUgAAAd0AAAIOCAYAAAD9f9dyAAAAAXNSR0IArs4c6QAAAARnQU1BAACxjwv8YQUAAAAJcEhZcwAADsMAAA7DAcdvqGQAAOovSURBVHhe7J0HYFPVF8a/l9W9oewtKCACKogK7oETFcUBCg7cA3FvhqigCCoCKg5A/ItbQUVBtrL33pvSvUeaJu9/v5sEQmkhbdM0be8Pn0nee3lJX9673z3nnnOupgugUCgUCoWi0jG4HhUKhUKhUFQySnQVCoVCofATSnQVCoVCofATSnQVCoVCofATSnQVCoVCofATSnQVCoVCofATSnQVCoVCofATSnQVCoVCofATSnQVCoVCofATSnQVCoVCofATSnQVCoVCofATSnQVCoVCofATSnQVCoVCofATSnQVCoVCofATamo/RbWHl7CmafLR4XDIpfg6wtfuR/c2g8FwdD2fu9/nXqdQKBS+RImuImChWNrtdhQVFcFqtQp1zRLCmANbYQHMpmwhkPliex5Cg3NQaLMhyJwpX9vEc4fDLoXTbneI99vAi9xoNEJ36PLRaKTAAmazCQ7djPyCEERHAtm5wbBYLFKALWYzbEXBKLKHw2QyieMFw2A0ie8iXottJnEchx4qPjtMHMcs38NH3lL8DLewKwFXKBRulOgqqhxegtnZmdDtB1FQcEQ8HoGGBBi0BCGa6TAbUxAclCN2zBcCZhXrbDAa8sU7Ka6FCLJYpTCbzQVivdOqLQsOhwZroVmIbJEQ0CApnoRCW2Q3i+3OdZpmFotRfFaQFFVpGcMiXgfDaDKKY1hQYA0T+4eJ72ShSY2g4CAh0hTmeLFPFIocTcR7WiEyqh7CwsLk5ygUitqDEl1FlWAtyEVq8j+w5v6EEMs81KtzRK7XpU3qviSdj8JelI/VAflNdbqn5cujCHvX9YyPGlLTo5Cb3wV27TqERFyL+vWbHhV7hUJRc1Giq/ALvMwKrekoKtyOzLSZCDZOQ0zUftfW48kvsCAvj48acvN4eRqQm6sLqxM4dNiC6MhcpKRFCcs2DHZHCDZvtSEnJxtBQcFY9F8WGtUXgp4eKSxig7RWaW0SWsMaj5VXhPAwk9Q/uzgo3dF2hx1nnVlP7JMqthlQP96OBvXNiIjIR904G0JDxTs1G2JjNWF1O8Q+4liad7eOrcgkrF8uOsymIvGdxB/iQaHNLL5vR5hDrkZw2EWwBLeGZmgg3dwKhaJmoURXUenk5aahMP8v6LbfYTHORWhwomsLhTUEu/aYcOCQBYlJBmRmFWHHThtSUnWkZxiRmEyBMiFJPBYUGIQY56GwsND5Zj8QERGBkJAQ1InTYDTmos1pJiH6RWh9mhmtW9nFYkLzpvkIC7MetWWL89fchpg1O090AuyIizOgUQNNHAdisYvj5sFkPCbChbZIWIs6otB+ISwh58Mc3A3BwXFC4Es7ukKhqE4o0VVUGkVF+UhL+RvB2kcIMq0XVl7aUevw4OFI/PhbBBYsLsSWrenIyjEKQdVgtTqEuBbIfQIZWqHRUUBMtAGNG4eiW9co3HRdIc5onYmwUGGme3DwcDDGfx6FDz7OkNZ2cLARsdFA3bpGnN4mDNde5cC1VzoQFZnheoewwO0m2PU6QoRbIs92DSyhfRAV3VK5oBWKao4SXYXP0XUHsrMOISP5JdSP+RFms9Mytds17NkfgQlCgL7+Ng/JyclyfU2Bgti4URQeGBCMR+/PRGSEVVjHjF52bl++uj4eerIQGzalSlezJ8HBZtzWuzHuucOB87scRpDFId/rxloYhsy8mxEU/gyiYtqKNYymVtavQlHdUKKr8Bm6boe1YB9yM38U1u17CA1Jketz8yzYuNmEn2eGYtr0fBw6nC3X12RiY2Nxy40h6HVtDs4714Y6cU7rfffeKIz71IJvf8jAkUSrXOcJU46aNgkV7zXi0osMaNnciuZNrMKyLpLbC6whyMq7CkFhdyIotCuCghsJsTfJbQqFIvBRoqvwCUzjyc6YCaN9AkKDFsGgFYp1RqxcG4qp/wP+nmvHnr3Mqz0+iKgmQ0s0vm4wLuoehJuuM6DXdVbREclHfkGwOB9GfDjRjAWLMoTVe2KaE63m2NhwtGphxLmdCnHjdUHo1sWKiHCmSgnxLYyAzdEFMF4jjN5bERHZRFm+CkU1QImuosJYC9Jx5OAINIybCqMhVY7bWguNmPB5E0z8PBW7dmcLsS17/mxNgWIYHWXCFZdGY9grNpzeOgu6rmHbzki8MsyMGX+koKio9PPjFG8TOnYIxhMPR+C6q5zpVcTuCIVdb4rcwoEIi+ovLN8Y1xaFQhGIKNFVlBtWfcrJWgtb9pOIjVoq1xUWGrBhSwwGPGTDpi3HAoMUTs44PQajhhlw1WWZsFgcSE0PwnOvNcY303eJc+ddx+SiHs0w/FUrzj4rFSHBDmEV66JTY0Ba5rkwh49AZPR5MBhDleWrUAQgSnQV5YJlGXMyvoehaBSiwjeLNTr27AvFlP+F4tOvCnDkSJZzR8UJREZG4unHTBg4wIaG9XOFYFrw8rBITJiUjZwcp/v4VESEB+Gaq+Jw601WXNLdKlOPCCtoZebeCUv4fQgNPwcmU6hcr1AoAgPjEIHruULhFdlZKbBmv4FgwxhEhO0VFhUwZ0E9PP9qIab/lIOMDO+Eo7bCDsvSFUU4khSGTh2A2Bgrupxth7UwAmvWF8FmO/W4d2GhHZu2ZGP+IgPWrjcIqzkEzZsBQZZChFg2wG5bBGt+GgqLOiAoWJWbVCgCBWXpKspEdtZeWLOeQUz4TBgMRcjJDcFHn9bBex8cRnq6zbWXwhvMZgPuvC0OH4zMRFRkEZJSgvD0SyH47sd0Yf16f1uy0xMdbcGlF0VhzNt2NGnkdOuzZnSetTUyrePQqEl35W5WKAIAJboKr+BlkpuzWQjuYESHzRWC68ChhFAMeTsEU78RFpUX1pkvCBdGG4tSsKLT+ecBbdtoaNnCKTy8kvfsAzZv0bF0JbBtB5CRCeTkuN4coPTvWx8fjkpHRLgNO3bH4KY7i7Blq/ji5YCTKIwYUg+33XgY9eJtcrzXVhSFtNyXEVN3gLB667j2VCgUVYESXcUpYUpLavJSGGwvIDbyP7luzfoovDXahN9+z5C1iyubuFjgAiGy116t4ZLuFN0TJxXwhFf1jl06Fv4L/P6Xjv+WAcnOtOGAg9WtHn4gDq89lyb+ThsWLWmA2wdkl3tc3GRijm8UHhuo46rLcxAcxOkRg1Fg7wXd/Dwiojoqq1ehqCLUmK7ipFBw87N/gV7wDGIiV8so2Vn/1METz1rl5AIsa1jZXNANGPGahsceMuCiCzRZB/lUmsHtcbEaOnfScPnFGs46EziSCOw74NohgGDu8patVsREh6JzxyK0ap6F4JBYzF+UJ85v2fvErHa1Z2+B+H2AvLwotDvDgIiIPJgMW+AoXILM7DgEhZwuc4EVCoV/UZauolR4aeRkzoLZ/jiCzHuFOBjx3S8ReP61PBw6VPn1kU0m4PmngJeeMSA01Cmk5YVXeV4+MGqMA2+/z7rQrg0BRIsW0fjsIwMu7Z6BlDQLHn06BD/+mu7aWj44btz13Lr45AMN7U5PkusKrHWQXfgqYus9KM6xcwYmhULhH5SlqygRp+AuERbuEwgN3imnp/t7XgSee7kQ+w8cX9C/MmhQHxg5VMOgRw0ICamY4BK+32IGup+voXFDYNVaICfXtTFAyMgoEN8pCD2v0BEbUygsX7OwdjVkZZe/h0Cr98DBXCxeYkaTJiFo0dSOIEsOTFiMtAwzLCEdYDQGu/ZWKBSVjRJdRYmkpSwVgvsQosK3wGYzYer0Bnj6pULRgJcvwKcs1IkD3h2uoe/tGoJ8bIgZjUD7tk7hXbyEdaFdGwKEfQcMaNY0Fmd3zJGzEG3dHob1GyuegpWYVCAE3AEdEdLVHhqah1DLAmRlpsOBjrAERbr2VCgUlYlyLytOICN9FYyFDyE8ZA0KrBZ8Oa0uhr6VgaTkyp+ogFbtF+M13HKDBrOwTCsLxn79NEPHfY/qyA+wtOKmTSIx93egZbMcLF8Vi8tvyEZu7omTI5SH4GATBvSNxmvP56FB/QLYHSakZd+OoMg3ERXV1LWXQqGoLJSlqziOvNzDKMp9FhEhi8UrDX/8HYYXXssWlpJ/fLHvDNUwsD8njHetEDCYyGCooH/ZA84vsHuvjvO7aogMB/76x7UhQMjM4pSAdXD15Tlo1DAfew80weq1vimpyRrPa9YX4MDherjoQgciwqwINm8SFm8yzCEXw2QSvR6FQlFpqPBFxVFstjzkZY1FeNBscNKCxUsj8OrwICQcqXxTkIG0N98A9O1zTFzpg1n4r44Lr9SRnHrMIbN2vY7Z84SFWo5YLlq4EyY5cMcAHdnCcL/7Tg233uR0OwcSP/ySjBVrnJMXPPVIBmJjfSeGnHzix18S8NBTYdi73yL+dgfiIr5F4v5XUZCf6tpLoVBUBkp0FRKOMmSm/g8Rls+EtcMiDRF48Q0NmzYnuvaoXDjG+vB9nE3HtUKwc4+OwS/rssjF0uXOdalCE+4eqOPRp3Ws33D8yEhiEgOkjl+Xl8dAIl0KONkvno8d7yycwVkGY4WuPfKAhqZNnNsDhcQkO36eocNqNaH96Zm44RphkvsQpnr9OvMI7n3EjHUbQsRvbkeDOpOQm/6yEN5jsxgpFArfokRXIUlPXSsE92VYzFmwFgbjqecNWLai8oOm3FxzFXDRhcfybx1CJL/7Cdi0BXLMdflK5/qp3zqwaauz8tS8xU7hdLN8lS4t2CXLnApLoX1YiHP/h3XxtzjXUch27+XEAM7t/LwLumq47ipNWtuBAmsrL/7PjoMJzoHt23sXIibG9zWUF/6bgyHvCIv3QAxMRjsiQ6YiM+V9FBRU/vi9QlEbUaKrEA1sLqzZL8FiSoHNZsD4SZFYsDhbFsbwB3TtDn78+EjlffuBOfNo6QG2ImDdRh2pacDX3zm386vNnqtLd7Gb9HRg1x7grdHO9/2zQMfX3wLzFwH/+8EZqfzVNKfYhjHv13X183MffwgICbDMmRWrC7B6rUl+3/ZnFKJjB5Nri++gh2Pmn6kYPsqAtHSLEF4rYsMmIj/rW9Gh8U9pT4WiNqFEt5bjrDj1M+pEr5CvN20NF0KVK6xL/1WP6H8X0LrV8YFSO3fr0sp1s1eI8Fwhovs9KkotWX58aUe3iNJ1vGqNjm++c1q3hALOdZuFlUyYB2zyGMdlWcnbbna9CBA4G9HMWSHiN9JQL96OHhcwotv3g88U1ynT0jDygyjkF5hgMuXCrL+FnKx/XXsoFApfoUS3llNoTYHm+A1GQ6Zo5A349keTEDv/Ja8GC+vyuSePF1waWGvXAykeMT179wG//uG0YN0UFACz5hyzxiNdqaYs97hgMYXX+Zps3wWM/+yYCHMMmRWvPHl+kIbgACvQNHtuHhISI2AxF+Hqyyzie1fOF6TwTvgsA2MnxIjnRoSF7Ic97xlkZogTr1AofIYS3VpOkW0LTPq/Mlr5UEIIvppWIMcT/cV55wors/Xxosvx1uUrjwkkYfWoX2eeWMzi979cTwQtXGmm3Of3v3UkJjtfEwr5r3+4Xgjanq7BYnG9cHG6+B7durheBAiJSdmYNCVKPj+zXS6aN6u85OWcHCve/zATM2Y5o9miw9cI4X1edG4qv+SnQlFbUKJbi9F1O/Kz/0RYqDNa9evpoUhK8u88eD2vOHHyAnsRsGGz64XAPdZKMeVYbkw0cGE357plrgAr0r6t03LmGChnFUoSoivLP7rE1W0lM2DqzHbH1rvhvjdcW+zLVDEcc536rQG5uRZERuTj2p6Vm0ebmlaAN0ZkYPW6MHE+dESEzEJOxmRx3tX4rkLhC5To1mIK8tNg1H+Wz1PTQjDlW/8mq7L6VJezXS88sBY6x3DdPPOk64mL1q2Aqy93RhszTSg/32kVG40arrlSPj0Kg6Ruv8X1wkXDBkCrluLiL0FfuwnLm8IdSOzZswdLVzmtzzt600Iv1lvwMZu2FOCjT0yuwKocmPElsjM9BtgVCkW5UaJbi8lM+xFR4bvl8y+/DsXu3Yflc3/RvAlQ1yMv183hIzoKhfAS1mGm0ERGOF+TnkJYO7R3biMcw3Vzb7/jlTRWWMU3XqchyumhlbQWgtuqRckWbVychpbNXS8CiJmznI/145PRtYvoNVQiDK777qccfPO9c8L70KB1cFg/Fet9U4pSoajNKNGtpXCcLsI8SliLDmRkRuO7n/3foDYQ2hEVcaL4HfGozdDjQgY9aeh+vvM1XcD33KHhnM6atHgJLWM3V12moZGHJl1+CdC2jVNoCdOTzmznnPCgJJhK5Pn+QGHZilRk50bBKH6vu26txKLULvLzbRg+MhM799QX1m4hgo1fITFhvWurQqEoL0p0aykpiX8jNMQZmTp/sQF79vk/WKauMKTCSyi05LZyKZC39tLkPrRgTxPC+fIzQEthpVI0B/R1WrCNPASUnld36g+n8nvoPu7rFGjKe3iYEObLxYVfypUfJrbXr1+yFVyVJBxxYJ1L8664NBcmz3ynSiI5JRuDXrAhLcOC4KBcaIWPi99GFc1QKCqCEt1aiM2Wg1DLFPk8K9uEmX/akJ7u/1nd6TIuaeo+Ch/pdBZw8YXOsdsbr9Xwx48aXn/x2CV7z50a3hmiISL8eJG8rqcm3dasqXzBeZpMJerQXoNFfNbZHYGLLihdVDmzUYRvKy76hNQ0IbobGYVtQLPGSTi9jYe/vBKZvzANX00Lk2lE9eJWIiP5U5lepFAoyocS3VpIXs4qhAU5w3537zVjyXJdjuP5m8iIkvNiWzRzjtfSSnWP+VIMT2t5/HR/fM59itOhnYZhL2t47cVj287tDFzSAxj9thBpj/Hh4gQJSznaP3pWJnJzbdjIkpgFZtkJubi7x4moRPILHPhlph279jiDt0JMk5GTrYKqFIryokS3lmGz2VBU8A8MWoIQWg2z54Vj246qcRlSNEua3adePQ2ffwzcfYcQ2XJUPqTb+oH+Gtp4VLm69CINP31tQKcOpVu5xCg+L9CilwlTh5Yut+FwgkOK7nnn2GAqXt2jEuDn/rc0E7/+YRYWroaQoO3QC7+TEyYoFIqyo0S3lmEv2guLcTZMxiLk5Fow9VubEN/jC1H4CxrXzKktDsdib7jGIK3O8sBgK4q5Z/4vXzNF6VTo4jsFqp4kJQchIzNI5s+2aV2IBvX94wfn9TFhko4jicEwGmzQ7DNQkOeRSK1QKLxGiW4tIy97OYJNzoic2fPrYctW/80kVJzsnOPLOgYC/D4Zvpkv3uckHEnFhs3OWpf1453udn+xd18m3v1IfKggNHgzcjJ/l1awQqEoG0p0axFsJAvzpsFkKkBefjCGvp1TpUExWVnO+snkSBLw+RQdv87UxXeq/MY8L58lJHW8NETHi2/oR4txcNaibP8W5SoT8xY5x97rxNlxemujsOArP4rZzReTE7Bzd5z0koSavhC/X4D2ThSKAEaJbi0iNWUN6sU6ixXPnhePjZs8puipAtJEm03xIwlHdIx4T8ct/XT0vIVT9lWO8DIdafI3Ojqe78CNt+sYOUbHux/o2LDJ+Xl5ohOQ7DHRQqCxdYfTug0LtaJePRsMpeU+VQI5uQUYOdYp8hFhu5GZMk4+VygU3qNEt5bAwBdr9nD5vKDAhOk/eUxEW0UkJgqrMtspdnXinHm49Fgu/Bf49MuSx3srwtr1Os65yIF7H9HlvLvu4zMeyW0w5uWxwpWPP9iHbN+eiV17neHV53YORky0f2/heQvTsWlrjHweHzUWmZmH5HOFQuEdSnRrCdlZaxEbMUc+X7EmBEuWekzBU0Xs3nts+r74OsBZ7TUYxRVJFy+n8WNdZV+S6XJnMw/YM8iqaRPn55O0dB07dzmfByI5OTlYujJWPm93hh2REf7tICQcseOPvx1wOBjoloG8zG/V2K5CUQaU6NYCOG5rsE9FcFA+rIVm/D3XIBvPqoYiuHWH8zmLZHCav+ho5+s164B/l/m2MWehjBnfGfDj19pxEy10aAc0a+pU4S3bnN8rkFmwyHleGtTLRcOG/k0qzs8vwuIlnDbRGVoeEfIrcnM8il8rFIqTokS3FpCZsRdG/V/xTMfBw2bMXWBEoa3qRZcG0l//HBPWyy7W0LSx83lqGvD9zzrSfRirw7zgM9o4rV1a2YTTBl4oxJi5vYTBVYFuuC38zy6+IwuLWNH9Av9X8vh3qQ0bNzv98RbjdmiO/+RzhUJxapTo1nA4D6pJ+wcW0075+t+lZqxcXXVpQsWZuwBIEwJL4mKPnyXot9+BGX/4VgETk3VM/Fw/6tZuIkT++p7O5xT6OfOczwOZhIRE7DvoTN9p0cz/OVdpabmYuzBUdk5MxhTYC/+FzeaKiFMoFCdFiW4Np8iWAbt1DswmZ9WpX2YGy6pUgUJaOvDF1GMlKPverqHzWc7nBUJPXhuh4z8fuZlZjGP0RzrmzHetENx5K9CmtVPoJ012yO8T6OTnW7FqjfOcnd+1aszyP2fryM5xFuoosi6GvSjBtUWhUJwMJbo1nPz83bAY58rn6zfHYdbsqg+gKs7Isc4AJhITDXz8vibdvuTAQeD+x3SsXlsxcaFV9vZoB8Z9cqzi1BmtgacfN8igqtQ0HR9OdK4PdPi37D/oPEGtWySiSZMm8rk/2bQ5FVt3OOdADA3eiLwc57zMCoXi5CjRrcEwqtRh/Uo0iung7DSDX45EQUHg1TikW5eFMdxzLpzbWcMzT2gylYds2wE89oyOtRuO7VMWcnKB9z5w4J33jxXjiIoUFvZE5+T4POZX0ziVnXNboMPvu2ptjhzXNZvtOKdz5ddgLg6D897/uAgO8R2CLAWwF/7u2qJQKE6GEt0aTGZmAsz4UT5fvS4KS5YKszFAmfotsHmb05ql2N5/j3Os1S28y1YCA5/Q8dNvOnK8rBhFcWJu7ouvOzD8XSA3z7megvviMxrOPsvpVt62Q8c33+kBW3O5OOxMHThQgNR0ZxBV57Mq5gUoL3Pm5giL21n/2VE4u0qrmykU1QUlujUUNsz5WZ8iLCRZiI8B076zCysvwAode7BjJ8d2OU7ofM0UnmGvaOjWxfmarFojLN7BOh4d7MAffwvxFRZsSXDIevU6Ha+96SyE8ckXzG91buMk9/37ClG/W5PPKcSsULV5m3N7dYHVvA67hlHP72IVFq9/pvrzJC0tDUuWh8rnMZE7kJy0VT5XKBSlo4nGuWq6yYpKJTs7CcjrgvCQg9LKvefBQmzeWopKBQi0QKd8quGGa5wWKK/MpGQdfe/XMXehXCVh5cNwYWA1bshAIuD01kBoiIbCQmEBHgaWLhfWqxDx7GynAHsy6FFg+KuGoxPl/zVHxx336gGfm1ucqMhgfPy+GXfdlouUVDPanxeJ5GT/j9f3uaUOpn6aIUTfgaSsN1Gv8UuuLQqFokQouoqahcPh0FOPTNSLMkL0onSjPm50hB4SYmHnKuCXZk2gb12p6fYMg+7IdC7ZhzX9yYehx8VC17SS33eyxWSC3lQcd+IHOHpMHn/rKk1v0qjk9wT6EhwcrI8fEy3+DqOeecis97iwUYn7VfbS5ZwQPXFPrDyn+7ZepBcVFbmuQoVCURLKvVwDKShIg1n7A5pWiLQMs7ASzcjPL3RtDWz2HRDWU38dK1YfC5oKC9Pw1hADPvlAQ6/rnPm83tKqhdOV/N1kTTw6L3dnIJKO2wcIy7ialg4uLCzEvv1mWK1mGA066sVXzdABS3Vu3OT0TNSrs87pYVEoFKWiRLcGUmRdDaO2DjQKd+0JlRWEqhMbNgODXtRluUG38IaGALfcqGHCGAOmTdLwwtOQ470sH1kcVpe69ipg9Fsapn2uYeRwDV3P0eSkBnRZL1mu42lx/A2bXG+ohjjEidm+246cPI5Tazink/8jmElKqh2btjqjmM0mKwrz17i2KBSKklCiW8OwFxXAUTgfIUHOSOVffw9BYqKzMEZ1gcK4bAVwz4MsZEEv5jHqxQNXXa7Jcdl/ZhqQvNuA9Us0zPlNw/w/NOxar2H3etZXNuCpR5xiy7QgN/MX6bjrPhbccFq81Zn9BxzIy9NFZ8KOls3yEeYeqPYjeXmF4nsYYLOxFrMdIZZ1zg0KhaJElOjWMGy2ZOj2P8UzRgKbMf3H6mXluqHw7hf9hhv76HjhdQd27tblXLhumErEAhoMqDqznSbrNl90oYYWzTQZJEUL2D3VLIOpdu3R8cpQB67p7XQp14TwwcQkDhsYZXGPunXtiI5yunn9za49JmRm8WQ7UFiwTbq+FQpFySjRrWHkZi1ARMhG+fybH5pgz97qPcZWKARz9EdAn3uck82vXK3L8pDeYBX7sZLVex/quGOAjlEfOCexrykkJWXiUEKIfB5f14gG9avGxbxpSwHS0oqE+OsIC9kDW6GrmLZCoTgBJbo1CBYnsOZ8Jiw88VgYjC+muqpBVHPoBl67AXjzXR39Buro3dchBFTH3AU69h84NiuQLp7sP8j0Il3WWO7dz4G+D+gYNlLHqrU8P879agq0KFeucQptTLQDcbFV8wempglLN9uZJ6zr6dAdR+RzhUJxIipPtwZx6MAyNIy6QD6fsyAaN9+Rgdy8aj5wqTgpjz7UDuNGbRXWfwgGPg5M+87/udgWiwXfTamHG685hLz8eigyf4qo2OtdWxUKhSfK0q0hFBUVIdj4oXxeaDPhp18NyHfVGVbUXJatcM5RGByUj9atI4QA+r8yFS3uLducPn+TMRNG7Yj0OigUihNRoltDyM7chvCgRfL57r1hWLnGKtNKqguxsbGoV68eQkNDER0djbi4OMTHxyM8PBx16tRBTEyM3EarSnGMvfuKkJLmjFquE1sEk6lqxG7DZmdTYrEUQHccht1eTQpZKxR+RrmXawD8CTOS30WEZSg0WDHl2wg89Xw+srOrrtaywWCQohkcHIw2p5kQEmJFk0bBiK9jRYG1AF3OplVWJMehCwoKxH4G1K9XICx2m+gJGsT+DmgGDTm5OsJCaclrSDhigbUwSB6bF+3uPflo1KgxNmxMEhaWCTt25SMj0wKTOUx0POzIzLTj4MHAneTBF/BcrFrcEh3b78a8xXXQ5+40pKb5X/CuurIZZv1wQD7PyLsP4XGjYTZHytcKheIYSnRrAHl5SdBFQxdq+VOIjhEPDQrB9z9VXjFhTeO0e5pMyWHEanh4CJo1bYh2Z5hwWos8tD6tEBd3D0OQJQmx0VVb7/lgQpw4P0HYvpNRz6FYv0nDzl2F8nVCQhqysnOE8GsyWMtuZ1AWn1evcfAJY5vhoXsP4HBiXXS7NB0HD/k/RLtBgwY4uCVJXg+pmVchMn4yLEHxrq0KhcKNEt0aQF72HBgK70WQ+TA2bQ3Hlb1MOHLEd2kbJpMJcXGhQkAdwhoFYmKMOP+8cDRrAkRFFOD01nY0bXxqkc/NMyMt3SieGWUlI85+ZBTKbTAahCCahVVbhEIrBUOHg5el+M9oNCI62iIsXWENB2miURdWrk5RLBLfwywsXLGPsIjDwoxi3yKx2BAa4l1uclp6GDKyzMJi1rD/oCaE2Ca+VxASk6zCStbFNiA9XUd6hh35+fkBO055f/+W+OzDveL8BuPia8Oxeo3/08Q4PLB5hQHxddKQnnUmIuJnwGxp6tqqUCjcKNGt5jgcNmQkvYOo4OEyVejdDxvi5SEJ0m1bETh+Wr9eMM7ppKHDmQ50PNOABvUcaCqENiw0XywnWlNFRQZhOYZAM4QIa1JDZrZJCJuOLVspWCbs3puFxESz0FIjEo4Uwe4QQmmgWBqQmx+ErCybFDfitjYpuvF1g2Gz5SMkRFjXQnS5TdNsiI+3wGziPhqiIk0wm23ieSFatYxCUJABDesL3XYUIDLSjoYNDGje1CxFOS6m9A5Ckd0gvkMYMoUYp6QCickO7NtvQLIQ423brbJIx8FDdHWnV/gc+4ou5zbGgj+SRafEhtvvbYjvf6oal/rKRU1x9lkHxe9eF2F1FsEc1Nq5QaFQHEWJbjXHVpiOrMSeiI1aKRq7ELTvasThw+VzLVPgzurQCFdeakXPK4GWzdIRGaEJy9EBi+VEgcnJC8e2HbHYsSsUGzblYOOmfOzakyesVoqncxzWViQs3Fy+VzwvPs9eJcFgK7q+ZcyVsIoZXBRk0RAcrMFkNgpRbiAWgxBfHW1aF6FRAyvatilA3bhsIebOY3hCi9zuMMmSi/y7WHRj38EY0YkwY/U6DQsWF4lORvrRDoO/iYs14985UWjTKg1vvV8Xrw5NdG3xL5PGt8B9ffeJzogRRUHLEBza2bVFoVC4UaJbzUlJmo+44Mvl8+9+aYE7+u+Sz08Fx2XNZgOiokyoFx+B224Ow2UX5aHL2RmwmI8JrE1Yr4VWun91ITThWLs+DIuWcJL4aOzbt19Yp5U3duxvGjZsiCaNbOh0lgVnttVwttCMhvVSEB5ml65tk1kXlrUuBP3EMd/k1Bhs2ByCFastWPgfsG7dAZmyZRVLoU0XHZDKC26KCDfi5//VEb9fMmYvaIWrb9zh2uJf7ulbD1+Nd87pm5I/G3XrXSafKxSKYyjRrcbwpzu8ZwAa1vkaefkm3HRnNObMO/l4nslkQNMmYWh3hhndujhw5eWhOP20DESGH0vqzckLwsFDJmza4sDefRas32wWVqxNWLH2GiWy3hAfH4NGDQ1ChI1o3EhHq+Z2cf7sYr1BWMa6sJbzhUV9ogWfllEHm7dZsGmzjp27ga3b85BwxCCDnFJSc4+6z31BUJAR771VH489kIBDCfXQvH1Slbi++97RDFM/cUYwZxZ+geg6/eVzhUJxDCW61ZicbNHA5XVCWEgG/lsejt79CpCYWHLkKlN3up4biasvt+OC84pwRmvOwZrj2kqL1oStO6Lx71INS5ZbsW2bTbx2oKDArgrYe0DXdd06QWIRolsXaNrYiDanBeOs9jqaN9PE6wyEBB9flYTnNis7XIruvv1FQoyN2LjZjvUbTdi2I0emTFUEjok/eF8cRr+ZIcRcQ+uzw5CQkO7a6j+6nNsMy/5xim5C+gg0bPaifK5QKI6hRLcak5wwAXXCHpfP3xodg+EjM2G1Hu/GDAoy4bqrYzHoMbuw1rIQFqrDZHbAPXR5JDEKP86IwRdT07BvX7bTJWp1iMZbXRbewDxZuumDLEKQgzTExYajyzlh6HWdBW3bONCy2RHR4TnWaeHdZrcbwCBtq1UTlmkYtmy3YPF/hVj4n+j4bMsqVyfn+mvC8PVnnMYwD7f1b4off9nr2uI/mjerh5UL8xEbnYOsggGIiv/ctUWhULhRoltNsRVaUZh1A0It/yAlNQz3Pqbh9z+drt/QUBMaNzSj59X18fhAHc0aHxTC4HRnZmUzKteANRui8f3PoZjxx+EqCwCq6TDVKj4+Gl3OtuDCblZ0PdeE+vEZiInSERKiywA1g+HY7cfI6YTEaCz6zyInc9i0xYrDCdnIy3MWCbHZmGZVslv6up4RmDbJKEQ3C0NHnY6hI7a4tviP0BADdm1shHp1DuFg4lVo0ppTTCoUCk+U6FZTMtI3IRQ3wGzch7VCQPs/pOHwERvOPduEyy/WcdvNdjRtlAsWK2Dk7Z69QVi3QcefcyxYusKAbdsDJ+WltkARrl8/BO3P0NCyhY4zWtM9raFZUztaNAPCwwpgNB67HQsKgrFjdwh27TFg42Ydu/dyKcL+AyYkJuUd11nq1jUUUz81oFWLPEz5tg7ufzTV778vI8Rn/BCHKy5OQ0JSK9RpulG64xUKxTGU6FZT0pOnIMw4CGZTJnbtjcJPv4WLRjwbnTvaUb9ePkxGp0W0cm0MfplpwT/zs7FjZxHS0is2fqjwHWazGdEyetyBhg2MOK1VCM7u6JCFR5o2SkFY6LEynkxbys0Lkl6KpGQD9u43YfO2EKxdb8d/ywpx+mkFmPqZUYh3jhDmMFzU0yKsZOdkCP7CbNLw0eg6eHBAKgqswcg3HpBFMxQKxTGU6FZDmO+anfoSIoM+FJaRHc7ShRxf1GWeKYtULF1ZD2PGWzB/QSKysvOF1aN+5kDHYNDE70mLWMMZpzfDBd0s6Hm5DRecl46YqEzXXk6cv7mGImHMcmw4JTVcCG6W9GxkZZvw+LOR+PrbFNfe/sFk1DD89fp4YZAzTzgpdwXqNThbPlcoFE6U6FZDcnMOwJY9EFFhs11rnI1weoYZy1aG4evpFvz2e5qwjKpuwgOF74iKihIiHI1uXQpx4Xl2nN46G3GxDjk2HBxsl0LrCa+Fzdsi8OYoM/76J0tW+vJHPWnmft9zVyy++Dhddv5S875Bnfq3u7YqFAqiRLea4XDYkZ02HqHG14Vl4Qycysm1YM78EPz4m4ZfZliRm1u1kwwoKg8ZnFU3HB3aF6Ht6RpOa6nh/K5m8WhHWGj2cYFZSSlh+HO2CbPnmbFkWT727fdtfnBxKLq9b4rF5In5Mm0qOetVxDce6tqqUCiIEt1qBBvM5IQvERPyGswmpwsvMysIb74bgW9/yMXhhDxh5aifs7ZAkQsONstc4caNQnB25yhce2U2zu6YhwiPYiepaSHYvVfD33NN+O7nKGzYuM+1xfdcdnE4fvjagujIDBxK6oVGrX6U31OhUDhRoltN4DhuasK7qBf9mmsNcPBwGG7pG4qVq6um1q4iMGnUKA797gjC3bcX4vTW6TB6WL/kh9/qY9g7VmzZygh231q+nTuGYdrnFpzROhMJSW0R23ilLMyiUCicKNGtBuTnHUFe5hhEBk+EycgKRkbMmhOGF98owPadKhpZUTKRkZG4oFs0rrs6Fz3Oz0PL5g6EhzlLVubkhmHBvxH45IssbN5qx4GDhTIPuKI0axqML8abcWmPXDj0OsjR1yAquqFrq0KhUKIb4GRm7kNR7uuICP4JZlMerFYTxk2KxYRPs7Fnn3InK04Ny0S2Pi0Ml3Q34qILgasusyI2xhlkV2gzYtnKcMyeq+HnmUXYtLlitbVjY0PwyQdm9L4xR4huFLLtvyM69nzXVoVCoUQ3gElJWotg7QEEmzaIhrMIySnBGP5uFCZPS0V2tqqHrCgbLFnJvODzugRh6Cs6zu2UJ9ezBbAWmnA4QcPsefWF9Zshp2osT3GNsLAwvDciDA/ckypalxBkFIxHnfp3u7YqFAqD61ERQOi6HWkpC2G03Y2woDWisSzCgUPhuPvBIIybmKAEV1EuGIiXll6IRf9asWbdsVufub4WcxFaNrfhoXsP4B9h8U4Y2wjtzoiTUxqWJRCKkfOJSeKzdLN4ZRMNzHbnBoVCIVGiG2AwYCoz9Ueg4FFER2yW65auiML9jwdh3sJjswIpFOWleTMjzu/qnBgjMwt4Y4SOadN1bN/J6w+IicoXlupBLJufjy8mhKJ3r1g0axIsxFe+5ZRs2GwVHUMHDFqREPMDlTqXsEJR3VDu5QCisDAHuRnjEGz4CMGWI6KxMmLWP3VFo5iLdRuy/VLgQFHzeemZOhj2SqasZjb2YwcGvwyEhQJnnQl06wLcdrOGzmdpCApyup6zsoOwaq0Bf/xtwe+zOD9w9kldz926RuOHKXlo2KAIeYVXAyGTERZW17VVoajdKNENEPLyMpGXPhRRoZNgMuaKRs2IMR+HYeTYfKSmqspSCt/AiOYtqzQ0iM/G5q06zr9CF1apa6PAZALiYoGu5wBPPaLhsouPmbf5+SYcPmLEd7+EY9JXduzZm+bacjzNmzXEPzPS0aKZFbkFnYDgrxAe2cG1VaGo3Sj3cgBgtSbDmvWqENwJUnCzc0wYPS4Wb79vVYKr8Bkcm3352VgpuHSajB1/vOASeoI5JjvjT+CKG3Vc2cuBX3/XkZHJ+YKL0KqFFS89nYqNy2x4/51GaNUyAsFBxzcjySmZOJIYIp8btFTxueKACoVCoizdKiYvdwsyk95G3ehvpbsvNT0SH0wwYcy4TOTmOnMqFQpfEB8fgqX/mNC8aS62bNPRu5+OrV7EObG2xcXdgRuv0dD9fKDdGc6JGcjBw6H4eroRs+fpWL3WhsxM53SDn45rigfuPohCWyis2nhExPQrU0CWQlFTMQ4RuJ4r/Aj7Omkpy2AsfAZRYb+LRsyBPfsjMfhlM76cmoP8fBWhrPAt/fvG4o7eWdKa/XwK8NsfzsjlU8H9d+2GEFbg32XA7j1AowZCxOtqiIywoVvXIlx2kQlndzQKCzocyalGhIeFCZHOlJH3+YXtYQnpLp67lFqhqMUoS7cK4CnPzlwEU9HjCLZshgYd6zeGYtCLFiz6L8PnpfkUirp1ozD1Uw1XXZaFhCPAwCcc+ONv18YywnHfyAigbx9g0GMaWjRzWrCc3Sg3z4CU1DBoBjOaNXbO55uecyui4ifBaBJvUihqOWpM18/Y7TakJs1DUfb9CLFsEi0VsGxlBB4ZHIH5i9KU4Cp8Dt26Xc8pwpntnK7fTVt10bmTT8sFLd+0dOCjT4BOF+h4/FkH1m3QkZevCwvXjuZNs44KrsSxRljAauYrhYIo0fUjhYVZyEydjAjTHYiJ2i0aLxNmzQlH/4eBJcsSXHspFL4lNNSEKy4JQr26Tl8ySz7GxBjRtIlzadjAiKCg8o23ZucA4z8Dbuij45VhOv7+R5eC7ElY8H5kZax3vVIoajfKvewnrNYM5Gd9gGDDxwgyp6LIzmnW6uD1NzOxe8+JVkB4eLhoLENhMdtwXhebaBhDEBaahdatYqXlwiIaXPjcZDZBd+ii4QySlvL+A1akZxixZ2828q1RyM0z4cBBO7KycpFdPFxVUeNp3tSCH6eFofNZmbAV6VizTpOuYDdMud20VcO06cC/S3Xx2ouB3hJgnBTHes/rAjzQX8PVlx/7jMSMR1C/6TjXK4Wi9qJE1w/Y7UXYt3MomtR9DyZTIewODVO/DcPgFwuQkVkoa+LWrVsXXc+NxJlti3BxdwvanZ6EuNgssNlipCgbNE3Txb7HGjL5y3G98+VRmA7CbQ7+TzSu3E0X61LTwpCUEokNm6xYuETDtu0F2LRFR0aGEuKaTP9+dfHFuDR5/RxJ1FEvntfS8VcNrxlbkRDfzRqee82IBYuLxLryDXXw0GYz0OksYPIEDae30bB937Voc+ZvJ3yuQlHbUKJbifDU5uftR0bSEDSIm+JaC+zaUx/3PuoQVmwBel4Vjg7trOjerUBYsidavLYiA3JyTCgs1JCXr6GoyCGFVwqqwKAZhIg7LROLmWNqwuoV20wmO6KjimQDeDIKC03YuCUE23YYsGqteL7ZKhrmPKSla8jMZGBM+RtfRdXDDt23k6Nw642Z0qI9nOBAk8YnH1XimO0vM414f5yOtRscKCgo/+8fGqLhkQeb4PFHr0az1p8o0VXUepToVhKctCA7cyVsOcMRG/mna62Tgwn1kJCQj7an5wmRFC2cB1k5Udi1uwgHDxuRmGTE/oMF2LvPhKxsI5KSWRWoSFi+pqNCazQYhTA783kjwhxo2DBEiuRZ7Y14YVA6goKONZgcfxNGN5i5wbJ/7lxLT+x2AxKTg7BlG9NETNi+qwg7dxuwfaeGfftt4vOdwTiK6kHLlnFYMS8fMdEFoiOlIyKcVqh3wncowYCp32qY/qNDdMYc4tooX1MRHx+Pjz/+GLfeeqtrjUJRe1GiWwnwlKalzEcwnkOweYOwNo4X1uJs2hqPJStMWL7SIazgAhw6lCNEVli4ucK6zbOW2dKMigzBe2+FYMBdrK/r/HlT03QEB9HyceZmUjvdh6X4ss5uZMSJjbHVakRGplG8X8P+Q0asWB2OpSuMshBCIksXKQKa5wY1xcihB+VzXgOxsdoJwxEng1bvmvUa3hljwG+/F5VbeFu1aoU//vgDbdq0ca1RKGonSnR9jK47cHD/76gfeQdMxgLX2mPwbDscmrAewzDjr3h8MaUQ+w+kCHF1zm1aUcxmAx57MApvvVEgRNYqP4+NbUgIrduSm1teAjnCCk5Nc47HCUMaIcGswescDy7pXSmpoVi7sRE++yobf/6VjLx8m/wsdTUFFnN/b4hLuh8RnSfnGH9IcFkk9xi8PF8fYcaHE21yiKM89O7dG99//71yMStqNUp0fQRPo7UgEXlZnyLUOBJBluMFt6DAhD37TVi2Mgyz55nxx1+5yMzMdG31DZGRoXjikTp48anDCAtzoNAGIaZOCze0FMEtCV4RuXkcj2ZD7VxHt6SMlBaCzMWz3czJjcCfs01YutKA9RsLZaT0/gM28TerutFVyelt6mDpPxmIinTI2slms15qx8tbWPLxpSEOHDpc9gjn6OhojBkzBnfffTeMJY1tKBS1ACW6PiIjfQsc+e8gPPgXmE3H5r0tKjIIizAGP88w4a85Odi81SrEyPclHuvEReC1F8Nw/91ZCA0pkJZJYSEtXOcUbRWBATg5uboUY9lWikfNIMTXqMm6vG7sDgPSM4Kxe08wVq4pxLIVOlatNWLbjixxjPIH4yjKDgOoBj9RB2++miZ+Mwcyszieq8mo4oqQL/qS3/5gxJujHNizr+zCe/HFF+Pzzz+X7maFojaiRLeCcLz1wP4FqBv2OILMu0Rj5wxqogt51946eOs9DfMWpstUjcLCyqmnHBxswsvPRuPZJ7OFVWtDbq5TJOPihGXqY4OCV4s7jZOfsX2nUVjsQIf2DtSv51xPuF9mlklGQe/cE41ffzcI6z4f+/ZnuPZQVCZ16kTiywlGXHtlppyYnr9VbIxv3LpWq4a5CzXc85CG1NSyTcoRLHppo0aNwqOPPqqsXUWtRIluBbDbC5F85H+oIwTXaHCOyVJs8ws0fPJlM7w9OlE0Sses3srAbDbhvnti8N6bWQgLtUlBzMh0WjUWi2snH8J+A8d+J3xuwnc/6cLacXY8mAN6xaU6HhwAXNhNQ1gYECQ+37NdzcoOxYLFYfjqGwsW/ZuEnBybdIGrlCTf0+WcCHw1UUfbNnnyN7NaxTVRQqBcRTh0WMOjzxjx9z9F4vje/4ZnnnkmFi9ejKioKNcahaL2oES3nNiL8pGRMgnBhrcRGpwo1+XkmoQFEIbxnwWLhqjyyzrShXh77zoY+04B6tbJkRZNfr7TpVxRN2Jx8vM1rFwD/P6XJsQW2Lu/9IjsmBjgoguAyy/RcE4noE0rTVjdro0u9h2IxD8LgrBitY4ly9Kw/6BZWMwFcmxcUTGMBg0D+oVhzDs2hIfZcDhBR4P6mugYuXbwIZlZGoa+Y8DEz4tQUODdb8fYAKYQPfLII641CkXtQYluOZAu5T0TUT9mGCymZLkuITEMEyYF46tpeTh4qPKLu5tMRtxyYzjeG2FF44aF0p2bnKIjKrLiY7ieuFNGPvkCmLdQF2LLsV3vLhlhhKNxI+Cs9qxOpOHczkD38zVh4bh2EBQVmbF5m44t20KwZLkBi5aYsGat85wqykdEhAkfjgpH/7uy5Lh+Uor4HRpWguK6WL3OgDsGOLBzt/fW7mmnnYZVq1YhMjLStUahqB0o0S0jPF2HD3yFOmFPw2J2lk88khSB3v2MWLMuU/T2yx5cUh4u7h6NSeOsaNXCCsYoZWXpCA1hvq3vGle6Jaf8z4iRYxg04xCdjfJfKnR1h4dBliDsczNwz13HpoQjrAWcX2AQf4cBy1eHYvqPRsyanY/0DDU7TVlp1TIM834PEUKbht17Kbi6OP+VJ7osH9mnvwG/zjx5Pron9NLMnj0bl112mWuNQlE7UKJbBlhlKiP1d0SY7odBS0NmtgmLl8TikUEFOHTYfwFCbVpHYOJYEy7p7kw5ysrWpeuQ47i+giUnR44xYvRHRcjL8/2YK8d627cF7uit4a4+wvoVBg9F2XMMeN/BGPw9Nx7Tpidh0+ZMmUtsLfS+Ya+t3HdPfUz6KEmO7/e9X8PFPQzC6nWITlnl3eqTp5lw32PM1fb+M+666y5MnTpVCrBCUVtQoust4jTlZK8Wrf5jCLWsRFq6BcNGhYvGJltYZycWwagsYmKC8OG7kbizd7porByyshTH0qKjfTdml5Ss4d0PDBjzsd0vQU4s3HHtVcClPTSc2Q5i0RAb49ooYNrVfyuiMX8hsHptITZttcmSlEX0fSuOIyIiGAtnhaLjmRniXOm49Hre3gY89YgJTz9mR0x05dzuWVkazr7IgN17vI9mbtu2LWbMmKHShxS1CuMQgeu54iRYC7NQkDkYYUGLpNiNn1QHY8ZlCOvLfwUgmGLx+osxGHBXBixmB2w2ThzOogO+E9zkFA1vjdYwYZJdiJp/+mPUTtZ6njMPmCuEddESHbv2sFg+EF+XQWE6mjXJR48LCnDl5SbxqKHt6WHQEYqUVCOs1spJxaqO9O9bF/f2TRPXKDB2gjiX/zo7ZRs26bAVGXFJD6dXxNcwjsBiNuKPv73vpLG/f/bZZ6N9+/auNQpFzUdZul7AU3RgzzA0jhshGiw7Fv5XHz1vTvTb+K2bl5+rh9dfSJWCay3UwalxWarRV40oo59Hf2TA0HfE8cuQAlIZMPqaotu0CXDnrcCDA4T1K/5WN7R+WaghKSUckyab8MMvVuzZm1ur04/i4yMwd4aOdmfkyU7LPQ86sGS5a6MgONiAD0eZ8ED/yvEQZOdouPBKDRs3e3d8upVfeeUVDBs2zLVGoaj5VGvRLSgowIoVK2Q910WLFiE9PR2tW7dGly5d0KtXL3Tu3BkWHySrpiSvQqShuxCCQhw+Eorrbg3Gug0prq2Vj9Go4YZro/Dx6Hw0qOfMxeU4bjhnjDH5zmyZ8acBd92vIze3fJ2JyqypyyDXa6/ScPstQId2GurWZS3pY1abtdCMfxZEYuYsTsiQLgQ4R3RK6B6vHX1K1tx+6pE4DHk5E8FBRfh8io5BL+iyY+IJvSXfTzXghp7248bPfQGvy+GjjBg+ssjrsd3rr78en376KRo0aOBao1DUbKqt6HKKuQ8++ADvvfceUlNTXWuP0bBhQzz33HMyFzCoAjk0VmsectPuR0zYd7JhHzkmAu+8n+5XK7dd2zBMHGtA927OSF4KLgtP+DJSecNmTXQmNBw8VHYriOe3R48e0k3oi07OqWjZgnnANjRrtA/QN8BkOCCs/2NjiQcOhUs39YrVGtasYxnKIqSlZbm21jzY2enWNQKffWRDu9Ot4jfUcfsA/Tgr15MOZ5rw+Tgd53b2/a0/e56G3v2AnBzv7o9u3bphypQpsrOsUNQGfC66dO/t3r0b27dvl40xq89wPk1fW0G//fYb7rnnHmRlZaFjx4548MEH0bRpUyQnJ8uIyIULF8ocwC+++AI33nhjuT8/JelfhGp9ERJ0AOs2RmDAI0asW5/m2lr5mM1mTPuiDnpdkyyeO5CRwQnqIaxc351PTiF4530s0+i9hUL43c4991w88cQTuOCCC9C4cWNpSfkDXmf2olQ4ivYhK3MDHLaZiAmfc1zda2thEA4cNGHrDgPmLTQIQbBg4yZnIZOaRHR0kBDcEPS6NltcGzqeep4xB8fKdRbHZNIwcIAJb73hQFSkb4V342YD7n5Qx7oN3okuxZaeKt7DCkWtgKLrK1JSUvRHH31UF9aOLhpkuQjh05999lk9MTHRtVfFEVaufvPNN+tCSPU2bdroGzdu1EUjLLfxMSkpST/77LPl9ltuuUXPycmR28qKzWbTM5Je1m1pFt2aatKHvFxHHpOnzR+L6LTon49vrdszjLoj06BnHtT09P2afO7LZfInZj062lDidyhtMYnWfezYsXp2dvbRc19V8PPt9kI9J3u/fnDvWP3wrs56Yar56N9nzzCI39CoFyQb9Xl/NtMfGdhOj68rw3hrxDJl0pl6kfgb+bf+/aumGwwl7+e5REaa9OXzTUfPka+WbatN+oXdhPKX8JklLeHh4broILt+SYWi5uOzBLnDhw9Li4fjM+K4aNKkiaw6Q0aPHi2tzblz54red8Xdsjt27MCuXbvk59xxxx3Srem2ZPlYt25d3H///XI7Le5t27bJbWXFbtsHIxYL660IKakWfPO9aM186xgoleBgIx68Lxr33Llb/E26rJ3LIN2oKN96DA4naJj+Iy1o7wKQ6D6+9NJLsXLlSjz11FPC4g4vtxfBV/DzDQYzwsKboFGzpxDbaAnSrAuRmvMMbI6zYStqCIduEd9dx8UXHMDH723FttUG/Py/Bnh0YCy6dY1C0yZBCAsLlcE91QGDQUOzpiF4762G6HfbZnkO1m8KwkNP0Qvg2ukkcLx78jTf/611YnU0auj9PcK4jMqaCEShCER8ctdRSH/44Qfp8o2IiJBjqd988w1++uknvPvuu9LFvGzZMjz++OMyL4+uwYpA0aXIEwZMlUSzZs3kI+esFRa4fF5W8nK3ixO0UT6fMSsWu/f4x61sMhpwzZWRePrRbBiFAZqRyUnvDYj2seCy/7BiNbBspXeNpLBuccUVV2DixIkB7Q7ksEa9Bt0Q12Akisx/oED7FFnWV5GRcz3yrc6AnajIDPS6NhEfjsrCD1N1TP4kBKPeDMdTj8bi8kvroH79aLlfIEKBvfKyOIwfE4THBibJddbCFkjNfgJFdu8Ckth5/P4XB5JTfCu8nOiC16m3HTF/dWIVioBBXPQVJisrS+/cWUZl6B9++KEueq+uLU7XnxBcvVu3bnJ7gwYNdCHG5XZJ0uUrhFy6N6Ojo3WrMAFL4o8//jj6eTNnznStLQt2Peng09K1m3U4RD+zfT15PH8sZ5weoa9eHHnUrfzhu0b9g1HH3KW+WgpSDPpN13vvCmzRooW+ZMkSXXSyXOeo+sDrJj8vQc/PWa6nJY7Tj+y9Vs84GH3COclLCtH3bwnTVy0K0X+dHq8PfiJO79wpWg8PDy3xnPhz4TV/xunx4nqop+/bHKoXZTjdw9bUunp6ys96QX62Ljq7urDWS3x/8UUIo/7ma5YTzkFFl0GPmbwehuF3nT17tutXUihqPj7p5iYmJmLNmjVo3rw5brjhhuOihdnj7dq1K4QYo127dkhISJCW8Pr16117lA26o+haZjUiHre0aFl3tSJu5xyeZYXvN+Mv8f11bNke67cAnLCwEHz2kQWdOuTIz161Rscrw5w5ub5m3XoDZvzJtu/U8Hd8/fXXZbRpdSzbRys9OKQ+gsO6ICb+McQ3nQl7yC7sSvgMyWkXwmYLESpgFNduIRo3zEfns6y4oWcK3nszHasWZOHAFg0zvo/HiNfr4+or4tGubTMwl5hBSVw4sw9dvt5aeKXB93PhsbgwXcxs1nB+txYYP7YJlszJxuMPJqNJowKIzcjMaYsM27+IjrsJQcHhuPPOO/HQQw959RuJ+x/Tf9akx8OXlOUc8DsoFLUJn7SeSUlOFxcbttJuOObOvvHGG4iLi8PevXtlqg8jjcsKU4X27dsnn1900UXysSTYESAhISFy3LGspCRvRVTEVvmc0/X5g7g4M94ZFoILz0uX43IU3F53Mm/WtYOPyczyfi5b5jxz/LymwOs0NjYWp51+H+KazIPVtAZpeZ8gLXsACmznoaCwBfIKwsX5cV7PUZH5uO6qFLz0TBL+/DEFG5cewL5NkVg2ry5mz2iMcWOa4O2hjXBP33hce3U4LrkoFGe2N6ND+xB07BCGDmeGonGjILRsGY3mTS3iuRlntOE+Ieh0VjguvSgMl10cjtt710e/O+rgtRca4a0hsfjh61gc3NYQ//61Dw/cvU98D1ZA05BvPQ0Z+U/DEjUH8fWOT7d58cUXZTS5N+K3a3cR9uzzbScqJspZ3MRbyjv8o1BUS6S9W0EYPcxDNWzYUN+9e7dr7YkI61EfPXq0bjQa9ZiYGH3q1KmuLd7D47dt21Z+3qxZs1xrT+Ttt9+W+9CtvXPnTtda7zm8d6h0leUkhOo3XNdUHqsyl8gIoz78tQi9IMXpUt6wVNN7XODcRhfcm6/53r389y/euQG5z9dff+06MzUbuqGzsg7qWRkL9LSkr/SUw6/oSfvv1BP3dtPTD9XV85ODSjyXnkvukWA983CMvn5piL5hWbS+aUWsfJz1c7i+8O9G+tzfw8TzUH35gmixT5S+dVUdPSshTk8/EKXnJpZ+/ILkED39cBc9K+UlPTtzsV5ozXN96+Phffb999/LoZWSfk/PxWLR9H9m+PbaGjfapIeHeede5rXFKHiForbgky4u83CjoqKkdZmWVnqwEXM4WazipptuktWjaO3m5eW5tnoHA6NoKdNlfLJgHtERkI/8XrSuywKtP4vxL/l8/6EgbNtWufO7Go0G9LouCA/dWwCLWUeKOIXvvK9j6QrXDlUMLSYGUNUG6K2JiGiEiKiLEFO3PyLrvIbIuuMQGT8dITHzkFX0JxKzJuBg8mCkZt6EpLSzkJsXdZyLNiSkEBFhmTizrRXtz8hC2zYZ8vGqy/LQ/bwEXNI9XzwvwLmdssQ+2WhzWhrCQ9OFFZuNkOATJwxITmuCQ8kPIdv+nfgOYol6A+GRF8JsCXHtcTy8z6677jqcd955rjWlQ0fHslW+tXS9sbAVitqKT+42RiyzSAKjmBmxfDLo7mW91UaNGmHdunVyrFeIv2vrqaFrmS7mFi1aSEEtCR5PWLfy5q9Xr578zLLAjkBo0Gr5PDM75IRSer6E3/Hcs6PwwSgj6sTZZUGDT77QMe07Zy1kEhqqI75uxSK+KwLH6MszLl4TMJuDEBQci+CQpggKaY/4+peifuMH0aTVu6jT5EfUbboKpujDSMw7iJSC/3Ak6zvsS3ofyVnP4EDS3cgtvByJqefhwJHOSExpI8y7OLHEwqHHHn3OJTu3EQ4kdEZG7kU4kt4fydmv4EDqd0gr3If45nvRuNV41Kl3vfguzUXH4NQV1njNe/ObORzlL/tZGkp0FYrS8YnosjLRJZdcIoM3Zs6cCav15DPvnH766bKaFBvzUaNGSYH0llWrVsnHNm3alBoskpGRIRqSXNnjp7iXtTSh1bofwUHO3MF9+4qEJVN5gtfujEh8Ps6O6KhcOdvOl1/rGPHu8Z0Qk5EBYd53THwNp2DzV6WpssJ4guXLl8v4gLJ03nwFr0GKG2sH140/Dw0a90bz055CfONRaHraVwiL+wv1mv+LRq2WIbrhGhQFH0SeYQ9ysBP5xj3yOZeg2B1o0mYFYhrMQ4NmXyC+0TA0bdEbcXUauz6p8sjxccxAiNB6Q2BeLgpFleMT0WWDTFcW3cx067IE48kIDQ2VUZacR5NuZuZ92txm3Ulgo8qiDIQFMUoTgoMHRcMmrFVupziXueftSHA9AdLSDSgsrJyee8ezIjB2JIU3Rwrudz85I5ULSrCsq9J6YB3rQBVddvBee+01GbHLGr5lHa6obPi7ceH5ozizA8jAPnppwsLC5HMu7IBWxW9M9/LhBN+6l+mVYW1whUJxIj672yiCnBuT46Eff/yxa23pMH3o1ltvlc//+usvbNq0ST4/GWxgt251RhSz4EZpQsAx35ycHLm9ZcuWrrXe42mpZ2QWCtH1vaUbHx+C55404pLuzlrBS5brGDZSR3IpgZxVYcW5CYSqU6XBes/PPPOM7Iy5a0D//vvvR1PGFKem0Obba4uemQC9XBSKKsdnolu/fn2ZwsOxJE6zx7zdk0FBZIWqOnXqyLzbWbNmndLaZaDWnj175EQGfF9pQuC2dOn2pqVbZvRjx2UnwteCFxVlwSvPheL2W9gx0OUE7k+/qGP7SbzsgSp6VQ3Py+WXX46RI0fK2ALGCdxyyy0YMGCALAHqbUpUeTly5IisusZrmRb37Nmzpau7sj/Xl2RnASmpvrV2y0JVdigVCn/jszuNY1vXXnutFN/s7GxZFvJUIsoaySNGjJAFL3799VccOHDAtaVkFi9eLB9ZhIOfUxJs7Ci6DLbiOBtzMcuK0SNQJSY6CEEW37lW4+ODMOzVWNzXL18IrgN79gF3D3Rg9TrXDgFIoAs+O3C33XYb3nzzTcTExMhavtOmTZOelG+//VZ6PSoLCizjDDhTDj+fxWFuv/12ObsVPS7VQVBo6aryxwqFf/Bp9/aMM87AVVddJcV2/vz5stE5FX379pWFF2gZ00I+GatXOyOKOcZYWhoQG9hDhw7JSGpWT2IKSFnR0dT1DKhXz4HgYN80nGe2j8aYt4Px2AOpCAstkJbtY4MDW3CrC/yd7777bowfP16OlZINGzbgsccew1tvvVWuQizewGGVMWPGyFrjLB7C627evHnS1c1JNyj67AAGMr7uGJSlk6asXEVtw6eiS3cu3WwMFqGIMqr0VDcVG0jOhctx1I8++qjUsTgeh8fjDc3JDEoTXUYu09IlnTp18qocXnHi6jRDZmaEfN6imU18x4q7CrucWweTPgL63JIjvpMd+4VR//SLDvw917VDAFNdXNsU3j59+kjBc8Pr4f3338fw4cMrxeLl9UWPCl3cY8eOlRY3ofeG4vvAAw/g0UcfrVRru6Lw3qpK8Qu04DeFojLx+UAOe/5s+Ni7Zy+fk8yfiosvvlgKJN10nIWoJFgqjpPjMwKU47Se9Z09oWubVg2F4pxzznGtLRvsPKTlXCuft2lVhDPalN1FTfgd6sUHoU/vhpg53Y6u52TJWYPSMurgieeAP2c7o0cDGV8JLr0fnOKRvzMtTwbEVUZjSxFkAZaePXse7XC5O3SvvvqqV9djeWFO+M0333x0SINCxr/xq6++koF///zzz3FBegonjNOoStFXKPyJz0WXjTStXTY8bGTcLuGTwUIXbCRpIbNBZtWp4nBOXDZgTDc6WUQyK2KxgEZ0dLSMkC4vEbH3w+4wIiw0D31vN5TZTR0RbsG1V0fis3HRmPJJMurWyUSR3YT0nB5IyhqLWXMCMwWnsmBHhgFOHErgxAnXXHMNhg4dihUrfF92i3M58xpkCpsnLMQyZMgQaf1WFvTCMFahOLwm77vvPjnWyxzyQEIJnkLhP3wuuoTWLhtVWruM7DwVtF5Zto6WAsfhGMlcHFpGDJChO/pkEckMxqK1yxxgCm95iY7tjozsrvJ57xvScOvNxzfgpUFxueaqpvjkozBMGGPFtVemwGK2C8ENR3bBQBhDJyK+wVXVqqFjR8oXFi87V+xUcTiB4/0cC2WRFE6EkZqa6tqr4vC70t3rTklzw3P+ySefyKWyJk5nx7A0a3b//v2yw+FNSl11JjZGFx1o1wuFQnEclSK6FEY2eLR2KaD//vuva0vpXHjhhdIydUeeelojDE7ZsmWL3MacUVZIKgk2qmzMGcHMY5VnPNcNy//BPAi2ohCEhNjw+bhkvPhMC0RGlOzWrls3GgPva40Fs+rg1/8dxu03Z6Jxw0LxHXSkpjdFWv63iIofg6joM1zvqJ1w/JOu3ieffFK6nNmZYtTv1Vdf7VOrlx05irk7qMoNRfHTTz+V8QGVweHDh2XBl9LgMMlLL70kU4tqKpGRDpjLHr+oUNQKKkV0aWlwrltGDxOWejzVWBbf8/TTT0uhZBDWkiVLjlqDbCg5nssgK9Z4PpnV5c4PLu94rifh0ZchM/8hIbyhCAm2Y/irB7BqUTAmjI3HW0MayuXrSfWxcUVL7F5vwydjdqHbuYkwmRywO8KQW3A2UnJGIrzeFtRreA2MxjLMdxZAMCq9tEIk5YHHoiCyihTFkZ0kjuczFmD69OmnTDXzFuZyU+CKXy+8lpjiw2AnX0LPDv+OkoZHPOH3KS12oSpg7KJVpQwpFH6hUkSXMI+WY3gslrF06VL8999/ri2lw/rNFGpOdP/nn39KsSW0HriOXHrppfKxJCjSmzdvluOvDFypKMHBsQiJfFYI77OiUYqH0eBAqxbZeOjeFLz49BG53HVbEtq12YuwUGdaSF5+LHKtVyDP/iYcQd8grv5gKSyK46EXhBNfMPDIDb0UjDzm2Kuvxj3vvfdeOWxRHIouU8t8CQtl8LotCQotK7Yxj/f555+XEc2BQnaOhtS0SmsKTkl1GmpRKCpKpd1ptFh79eolJzdgcBNnH3KLaGkwIpmWiXu2IkY1EjaO7gayR48e8rEkaCGxuhUFv6RglvIQHtEAUXWegz3oRySkPYy8gmOpSna7AWkZscizno7E9JuQnD1C7PcDgiI/R3jMY4iMal0hF3dNhwFP77zzjgw+csPIcwY7MRbgVNeLNzC1rKSOGjtxv/32m+uVb2CKEKtgFYcdT47j0oqna5t/H70HCicn81wpFDWNSlUENngcu6OIcgyLVuipYANJ1zBFlqkWfC8DUBhowwAqBkiVxvr166Ubm415adP+lQdLUCjCIi5Aw+YfwxGyC3tTd8olzXYIwXF7ERy7AfWb/Yj4Ri8iMvpimIMa+9QdW5Np2rSpLCzheb6Y08q5lj///PMKu5rp9eCQREn873//cz2rOLTW+H15vXpCQaErnWlMp512muwQlnXWq+oG/+ayCKmydBW1iUoVXd54LIlHEWXKD4W3eKNUHFq7/fr1kw0TZx+iW5rF7DleRnf1yXAHpzBKlnV4KwMel8fnwpQUBuqUVWBVI3M8nKSAlaM8zyPdy8OGDTvl/Myngsdk2dCShI6dOV+xbNkyOYxSHKZIneq6VSgUtYdK933StcZZYNjoTZ48+ZQ5kmwkr7jiCpl2xIaXY3ycNYbjonRXnwymG9GdS+uJn6uoPnCCgtatW7teOWGk77PPPou5cytWtoueDwpvcU7VAfQWWuOseFV8kgN2IG+88UZ5PSoUCgXxy4AjZx86//zzsWPHDhnAcio4Dsy8XQo1Z41hgA3ff6pxMEYus6HjxPWlVaxSBCZMA+NvXtxrwJKeHKI41WQYJ4OCW1KamedYckXgRBwlBQpS7Cm66lpUKBRu/CK6jB5lOggbH05/dqrIVBaYYPoQI5mZl8s5U5966qmTjtPSKqILm/tz3EwFZ1Qv6Mno3bu3FKriMDiJAUjlnS6PQXXMG/es181r0RcRxEw7ogenpPKSl112mXQvKxQKhRu/iC6tFzZATOOhOLKROhVMKWEuIyM+//jjD5lqcTIh3bnTORktRZf5mYrqR5cuXUqMNKb79u+//y4xMthb2Ol7+eWX5SxYtKg5XnzXXXe5tpYfFtng7FjFOwScYpAdxdqK6vQqFCXjF9EljNxkaUhGkzJalRPSnwpOVs85ejt06HDK1BtWNiK0YPg+RfWD1wZn5SmJTZs2yej08gahcaiC3hNWO5s6daqMM6ho/jSD+5h2xLrKxXn44YcrVPtboVDUTPwmumxQOd8po38pkAsWLHBtqThME3LXa2ZwjJrJpfrCSmbsoBWHQxIU3YqkENH6oheEVmjxsePywFzfr7/++oSALLrIGQCmUCgUxfGb6BLm2DIdiDm3v/7660lr1BaHdZdZZIMBNZy5iNYKK/tceeWVspF2B2gx8MZdWKOyitorKg92zvr37+96dTws3xgovyktbs6fW9xjw+/PiPuKTLahUChqLpUuurQCWIuWY67MZWRkMeG0f96kgvC9LK03cuRI2RhzYgSO/XF2GlYtmjNnjhRa95gaXX6ctJzpRSywwIIcvkoNUfiHO+64Q1qjxTnrrLMCpqQmre4vv/zS9eoYLMTBiGVViUyhUJREpbUMnJyAQSYvvvgi7rzzTulaZi4mp3YjtBBYe5fjuyUVnqdQUlD5Po7zce7VhQsXynEyloqcMGGCDLLi+1lE4+2335YFFm666SaZckQXNsvtDRw4UOb58vsEEqpARukwlYfXjGcwDmcnYiQwLcmqhsMXnBmJlbM8YRAfOwwnq5qmOBF1LyhqFeKC9zmFhYW6EEK9YcOGutFo1EWvX69bt64uGiO9adOmvMOOLsJy0a+++mpdWA6ud+t6Xl6eLqxYPS4uTu4jrB79hRde0Pfu3avn5ubK4wtRdu2ty+c2m00X4i3fK6xjfdasWfKzRMMtv4cQbNfeVU9ycrI8L57n4WRLdJSmT/7EqDsyDT5d/v7FJM9PSZ/pXrh9+PDh8vz6kx07dsjrgteOEDN92LBh8rcNBH777bej16bn0qVLFz0tLc21V9UjOgAnfMeSljPaGPRl88wlXiPlWXasNeqtWnh/fd933326w+FwfWuFombjc0tXHBO//PKLtHAZSUyLgLMEJSUlSRczIz3pAqZ7mVYog05YXICpIrRgN27cKC1U1qulRUHLlYUH3IXxQ0NDZR6vp/uOz2kB8fNYiYrRy5yflYU1+Eir+v777/f5rDKKyoPj9AyO4xhudna2zO8OhCpjvI5ZY5nxBZ7wu/GaLcktrlAoFG58LrpslCi4rALECQsY7FR8ajWOyzFvlwUP2LC+/vrrsoABx225fvTo0dJVx/XfffdduWdkYTAL3dkcC2Q1LLqgA83NrDg5vogy9hWMG/jrr79k5D07l27oBhfWmkyJUzjxHBpQKBTH8LnosogB5xVlniIL2Z8qoKRly5YYNGiQjARl5SlO7UargYUFGAVKq7YisCAH51SliDOnkuKrUJQHWrdjxow5oX44x5qfe+45FTzlgWenRKFQHMOnrQRvtLVr10o3b1mCXli4gJWC3CXzGJ3M4ClfRKpStBmMRUuagu7O51Uoysqrr74q63t7wuGOwYMHq0kNiqEsXYWiZHwqunS/MWqYj0z1KQu8SSnWFOpLLrlETpvnK+hmpuuP44PsFJyq9rNC4Qmv5x9++AGffPKJa40Tur6Zmsa4ASUyx1DnQqEoHZ+KLucnZVGKvLw8GUxFN3NZYKATGzK6nH0Npwtk48kZizjurFB4C3O9GRBYHAYBcgYkVetboVB4i09El27lFStWyDHYXbt2yVJ9rBjFWWO++OKLE/IZS4ORnzxWSXm7FYW5u4SCSzezQuENnD2IFi6F1xNacwz841CIQqFQeItPRJeCy4kJOBsQi1pwHJVpQUuWLJGpOpyQftKkSbIBO1mABa1RRhevXLmyQjV2S4KzFhGKrjeTLSgUZP78+ZgyZcpx1yMFlx1MzlwUSNHVCoUi8Kmw6NKFzEpTjOhksXq64Vgeb9SoUbLOMoOjOJ3fQw89JIOlOMtLaW7n2267DW3atJFT+tFC9qVFyjl2w8LCpNXN8WYVXak4FRwuYX6w51y5jFC+6KKLZCqcwjeoe1FRm6iQ6PJmoUBu2bJFFjNgrWM2Rn379pXTqLGIAEWW65k+tGrVKjz44IPSSmDBC46xesK6zOPHj5dRy4wUpVAzz3bmzJnyMyjetKRpDdNaZbENjiF7675mQBWDqdhBUDe64mRwUg5Ocs8ay57wOmf+OMtSKhQKRVmpkOhSNDlpAd1tdCFzfMszV5Fu5rZt20rxZI1k5t7STffzzz/LalQlTe938cUXY8SIEdJtx/042bi78AAnO+jYsSM6deqEHj16SMuZ7muKuTe4c34Z6FVc8BUKN6yExqponGjDE3YGWS+c157KyVUoFOWhwqLLwCmKbsOGDWXKT0mwgWKkJy3eb7/9VgZM0XJlUXs+elqd3JfiyonrCS0LFs2gWNNCpQXC/Vk28qOPPpJ5txRqb6CLmdDaVZauoiR4nXFog4GAnh0zprIxUpmzW1W0YItCoai9VNi97F68jThmRDNnBzrnnHOku7hnz55YunTpcSLIeVPpOqZIUlQ5fy7TibieE4dv2rRJRpRed911srBGWVGC60SdhxNhTXB2Dj3zzCm4jDegB0ahUCgqQoVEl1apO82HAkoL0htombLsI2siM1jlhRdewIYNG+Q2uvYY6UyR5XpauW4YCFUReGyiIk6dqCIGx7N9+3Z5zbFz54bXOIcxGCDobYU1hUKhKI0KiS7Fyz0ZASOSaYV6A993/vnnY9y4cdJSZVAVJ56nq5rjt5zkgO5jzk3qS9LT0+UjP1MJjsITzn51yy23nBA4xWEOBvO1aNHCtUahUCjKT4VEl8J17rnnyucUXUYSewstCEY00+JlRPLXX38tJ6j/6aef5Jjuu+++e3QM1he4XeD8zrSY+fkKBa8LDmWws1e8AAbjFDgTFoP3VCdNoVD4ggorD3MWOYPPgQMH5LRnLIpRFjixAQWQwsvpADknKdOM6Hr2JZyTlXm/jEClS1w1ompMl1Bwn3322ROm6+P1x3rLzD1XKBQKX1Fh0WVUMqtRMXeW8+cyOrksHDx4UDZ2cXFxcqJ65vlWRg4kLXEKOwWXn6VEV43pMp6Aubi///67vDbcsKDLBx98IIdAFAqFwpdUWHQ5PvvMM8/INAoKGxsxzl9bWtUpTxh4RbceRZeT19Nqriy3L8eLCctBUnQVtdvSpeDecMMNMlqZHUY39LZQcHktKhQKha/xicLRFXf99ddLy4njprR46Zaj5cr0HlaPonuX2xhBTBf04cOH8eKLL8ratpyl5aabbjpaH7kyYB1owmhoVU3ISW20dNnR4NgtO4aMmHd3PHguGCzFHF1V/EKhUFQWPmlZWBSDjVi9evVcayDHeF966SXpembVKFrDrObDWrYvv/wy+vfvj4kTJ8p9+V7uV1kiwPlzWV2IKR+cbUhNxeakNlq6nISe16LnGC6vC6YFcQyXUfMKhUJRWfhEdCmWdMcx5aJ4tR668Thm9tlnn8m0IEYlM2J5zpw5iIqKkq9p8bIucmWxaNEiGVkdGhqK7t27q4pCLmqbpctAP3b2/v7776NjuBTcm2++WVY341iuQqFQVCY+86FRQGnBMu2H0OW8ePFiWU2K7uahQ4fKQvFchg8fLq2KdevWSaujMt3KdGuz7nNaWpqcUOHqq692bVHUFkuX5RwnT54s8743btx4XHlHVpqiS7l169a10t2uUCj8i08HrihqrCbVsmVLWWSA1gNzHWldUGwpvFw4gxDLQcbHx1dqQ0drhuLOeX7dxeojIiJcWxW1QWRYq5vTTA4ePFjW7nbDcX1OpsG5cpnyplAoFP7A59EirKnM6M9WrVpJwWPered8pP6E47hvv/22bHg5bnzrrbe6tihITbZ0+bdx/JYzW7GjR08HcVdDY4eQwxqqtKNCofAnPhddWk904dKaZcASJ7SnC9mfwssUEFYS4pSCO3bskOtuv/32UmdBqq3UVEuXqWgcUqCHhY+ek3EwSp7DHXxUY/sKhcLf+Fx0CRsz90T2tCQ4TRoLxnN8tbLhZ3A2GH4205LcwjJv3jz5qDhGTbN0+fcwHY2xBYyYd6cE8RpgzMGYMWOk96VNmzZq0guFQlElVIroEgovXXtPPPGEzHnk5AZ0NbOwfGXBmY6YpsQxPFq1l1xyiYyoZtQyg2WSkpJceypITbJ06UnhcAJnsBo9evTRGaVCQkJwzTXXyJrevBYVCoWiKqk00SUMXqKbedCgQbKB//DDDzFw4ED8+uuvRxtFX0JXNq3qyy+/XI4rsyQl50ZloQ6mLrGmc00exywr3p6LQD9nnJKP+d+0blesWOFaC7Rt21YWaOHcy6x4pqzbkqGXXdyqCoXCD1Sq6BJGhrKg/D333CNfz549W05y0K9fPxlV7A5w8QU33nijLHpAq5bubRbraNq0qSx8wA4Ax/LKOiFDTcZbS5djooEovPwtKaishsZCK+7So7zmHn/8cWndsiyp55zMihMJC9URHXksjUqhUFQelS66hHm4FN7zzjtPvqYbmGNr1113nayDzDl5WbCgorDaVKdOnWQAl7uMHx9p+bL4Bsd4i0/fVpvxVkg5JOCZ21rVsMIYaybTen3kkUdksJzNZpNTNnKqyd9++016VXhdqejkU8O+l6+rXtakoQuFwpf4RXQJC8l36dJFiiDdvRxno2XKakC9evWSsxVVFjw2x3jp0nZHMyu8bxgpzoFg6XJqxhkzZuDhhx+W183SpUvl9+LMUezA0drlOpZyVI2+QqEIRPwmuixUQUuTovv555/LCkEsTMCFubQcf6ssKLhshPkdfOnOru54I6SBILZ0I3N8nlYt862//vprGaVOy5a51ywxyoVDCmrctuyoDopC4T/8JrqsBkRLpVmzZmjfvj3q1q0r0zg4/uZ2BVcWFHvmbrJxUbmZxyiLpVsV0DPx448/yojkBx98ED///LMsdMLfkJYthyQ4fs8I9fr16yvxUCgUAY/fRDczM1OOxbEMoz8bR1pEbJg5jkw3JF3cCieBYMUWh9cIx5D5m3EYok+fPjIimV4KlhRlAB5retPNfMEFF/j9elIoFIqK4DfRpUXLnMmtW7dKi9cf7N27V5YAZCoRraPHHnsMHTp0cG1VBJKly1mgGG3MwhZXXHGFTP/h5ASMPufY/1tvvYVZs2bJYQmKsRJa38Fzqc6nQuEf/Ca6jCimW5luXhbKcE+tVhmkp6fLVBKO8fGz6L4eMmSILI6golmPEQiWLr8Di1nwt2LZTtZEZk413cfMseb4LUt6stAKr5/KHoqojSjBVSj8h99aMFqatF7oDpwwYQKmT5/u8zQUNuCc5YipJE8++ST+++8/maPJdWy0GXijCCwSExPlDFScnODss8+WbuWEhASZUsbf8MILL5T51orKIySEnqjAG2pQKGoifjUb2KiyUpS7RCRdhnQ3M6KYkxR4C8WVBRvYYDMFiJPkM7KVUwWy4hXdkgysoeXEYBuml6gAqvJD70RlWcX8nQ4ePIhdu3bJSeYHDBgg87pZzERFIvuH0FANkRFKdBUKf6CJxtSvdxutWzaudP/OnTtXRjFzjI6T33P8jlYNC1mwXrLblcivyIY/JydHCi1rKDPYZtu2bdi5c6cUXrdos7G+4YYbZOlJFuMIxIabQV0UG29d7NFRGj4YZcDdd/j2p5o9V0PPWxynFFQWnJg/f77yFFQz7rzzTplqdTLoWb7nLjO+HO+74Z7dew245hYNO3bZXGtODtPAmEao3NyK2oDfRZdQeOlCpEuRKSGcAYivGWjlDriyWCxHb0J+RQoUU0gYjcwIV8/p2jxhhCuLJLA0YKDexNVNdNkJYicnMjLStUZRHfBGdNmvfe4pI94e4rtrS4muQlE6VRKVQgu2UaNGUhgZWczSjAsXLpQuZ6b10Hrluk2bNsmFz2nVMhqZeZqlCS5hIQXOOKNuYN/Bjk4glYFU+BazuUqaAYWiVhIQdxtdyXQFM8KY1i8DoHr06FEu4czLy5MuaCUSvoOWMFN6FNUHDsHQo3IqjAYNDRuoDqpC4S8CqotLkWVKD8d4u3fvXq70Ho79Hjp0qFKmDqytUHQ5DKCoHvDa5zSWntMclobBCJzTSXVQFQp/EZB+JQY/ccyzPBHHFAhO8XYyF7SibPCccsxNTYtYPdiyZQvGjh0rq8CdCovZhMYN/R7WoVDUWgJ2MIdRzQymKg+0dOlmVpycFs0YJOXdJUCX/ciRIyu1qImi4tDTw8prLDDiDZdeBDSor0RXofAXASu6TB/i7EDlgWUmleiemubNdPS9TYPReOoxPVq748ePlxYvo8cVgQfz3Z977jksWbLEtebkcDjn9t6uFwqFwi8ErOgyTaW8BS1olTHiVnFymMLc+yYdTRt7F0jDzswbb7whyzNShBWBAwX3/fffl50ib3+bDu2NuKGnGs9VKPxJQLuXyyu6rL3szXhWbYfB4Z3PAi672Dtrl3C8fNSoUXL2H6ZvKaoejrVzYg9We/PWC0Er98EBqvyjQuFvAtrSLa97melCu3fvdr1SnAyW/7v7Tg3163mfNkLXPWsjX3bZZbLMJr0KNpt3hRAUvoHWLCu0zZkzB5dffrmcKIKvvaXdGUZcfonrhUKh8BtVUpHKGyicPXv2xOzZs11rysYzzzwj3aCBSKBUpPJk0IsmfDTRVma3MSuIUXzPP/98dOzYUaZ50YpiARTOLFUcd+4194uKigrIMp3ewms0IyOjTHXDi1Pe24+dyu+//x6//fZbmcSWhIQY8PwgI14Y5EBwsO+vKVWRSqEonYAVXX4tTl7Am7E8cJIDzs8aiASi6CYmaeh9t4b/lpZPQCiycXFxx4kuhwjcFG9QKbb0ZlR30eVQRmmFWHx9a/F4PI98PHz4sCyAUZ7PuKi7CZ+P09GqReVcT0p0FYrSCWjRZYWqYcOGudaUDU5Wv27duoC8kQNRdMm6DRquvllDUnL5LTdFYBMdbcTcGUDHDhRw10ofo0RXoSidgB3T5Q3IKd7KCyNty+p2q+20b6vj7SFA3ToBe1koKkDdOkZ8OcGITmdVnuAqFIqTE9Cta6tWrVzPyg5Fl/O0KryHVTfvuFXHkJcNiItVwluTaNHciDHvaLjxGuXFUCiqkhorunTdcmYiRdkICdYx4C4HRr9lQERE2WtfKwKPVi1NGDlUw803OJSFq1BUMQEtugzMqQisQasoOyEhQL/bHZj/u47T2zgDoxTVD/5uHc+y4OdpwC03OkSHyrVBoVBUGQEtumFhYWjSpInrVdnhvLwBGicW8HBy884ddfzyjY5+dxgQG2tQ4ltNYKGTJo2MePoxE+b8UoQz2znk76lQKKqegL4VQ4TJxTzQ8rJ27doK5VAqgNNb65jwPvDBSCNuul6Ib4wS30CFv0t0lBG39zbhi/EaRrzuQAWdRX5DXVOK2kJAiy5zPRs3bux6VXb27t2rJj7wAaGhOvr2sWPCGODLCRruvsMIs1m5nQMF/g514kwYOMCEn6YBY99x4PJLHAgKqh5eHuY5q9mrFLWFgHc6NW/e3PWs7HCas3379rleKSpKfF0dN1yj46uJDlhTHHjzNQuuv8aMevHBCAkJFo28BRaLWQoyF5PJKBej0SAXg4FFM8q3UFiq21LS33GqxX2u3AvPn/t88tzyHAcHB4mOUAjatw3CLTeaMXqEGfs2OTBxrB2X9NCFAFevIRUWVKnORVIUirIQsMUx3HDmFJZ0LA90T//vf/9Dr169XGsCg0AtjlGZJBzRkJrmvWXseVkeSTIgLf1Y/9CbS/ZU+1AUPfdxvz7Zozd47hcbo6N+/LHf2JtjuPeJjnagUYPq+XuXpzjGF1984XqlUNRsAl50p02bhn79+rlelQ32oF9//XW8+uqrXjea/qA2iq6i9lBW0b3nnnvw1VdfBdQ9qlBUFgHvXm7RooXrWdmhqO3YsUO6mRUKb5g124InntXw4UQzCqwGfPqVBQfKWGNl9VoDnns1xPXqGNZCA6Z9Z0KvO0x4ZLAZS1eYMHyUGUnJrh28ID3DiFeHA7fdo+GPvw3iGndtKEZikgnTfzTis6908Zn0NASu+5Ziy4kjVPyFojYQ8KLLXN3y9oBpxO/Zs0dOaq9QeMNrI2y4vXcQmjTWEGRxoFF9GywWDfkFQHaOAdt3mpGSKl7nAzm5mujQud7oYuUaIz6eZMLY8SfOa7tnn4blqwwY844dzzwBNG0M9L6xEJERQG6eJo5rxKw5Zvk8O4fHp1C73uyiyG7CuWcH4/mnIESXLnvXBg/27DPj+j5G3HmfDQ89pePugQ5cdytrawem8DJgMjQ0VA4HKRQ1nYAX3eDgYMTHx7telR1OgbZ+/XopwArFqTi7oxHzFtoRFWkHJw/6b7kDa9ZreHlYG7z1QX+8NMSEyd8ALw014uUhQRjz8fFVu87pZMdHo+wwm10rPOD4br26NkyYZMSKVZoQVzu+mqZh524z+vRvgheG98N3P8dg6XINV94IPPW8CWPGMbrXdQBB3Tgrel1bgKQUDQ3qa0KoTuyQPvcqsGqN6BUIKGhk7QYbXh5qECIdmLe8xWJR7mVFraBaiC7HP8vLkSNH8O233yI1NdW1RqEonTdfs6N9Owc+mqhj5y4NhxLoqgWSU+PRuMlZaNjABFsR0PZ0DYOfKMCuPcf7d6VulKId0VHAEw+xHGMRZvyp4bc/nOkytiIHMrLMonMZhbPONEAz2GVBiwf6F8Fq1UWH0XUAF1u2adIivr6nHRHhx2/Mzg7G7385v1PLFi3w/ujRaNO6tXw9a04hXhtuFNZ5YImb6hArahMBL7rsAcfExLhelR02aj/++CPuuusuOek3J0LgWK8/bnR+RmmLIvBISTFh5JhgOW7KiGmD0Xl7REeZkZy0Bva8N3FH71yEBDvEdSluHqldGj77SsOOnU4h23/QjK+/dY61fvsDrdljLt3tO4FhI4X1vFTD3n02xMY43xNf146U5IPISZ+EZo1T4PrYo3wwwYjpP4oPFGzbIUS7rwO795qwbEUQsnOOF9CsHIMQamdBmDPPPBMPDBwoMwCioqLkdff51EJM/MJ5LIVC4X8CPnqZ0/M98sgj+Prrr11rKgYrXHEihTZt2qBp06Zo2LChLMBBazoyMlJGPNPNRbccnxPPU0TBdos2q10VFBTI70gx59ix1WqVj1lZWcjNzZULJxvna77HXQiAY83ennoVvew/5i82YsMmHd26GHBu5yIhbBwjNWD5+j6Iq3MG1qyaitt67UKXszXUr6dj42YNVmE5tj9DQ1ysHQlHhBiudCAv346YaA2XdDcgJMTpH+bPvXefEZu3WdC2jRVNGjtwOEEXVrQFr73VA/f0vxcTJ4zB5PGrYBdvia+rITNTF89NCBI6Wb+eHUnJurCu5eEQFamhdSsc58o+khiBhm0y5fObb75Z3je8nt96awRGjXpXBhU2b2bAV0LIe1xgd1rmPqas0csDBgyQKUPKvayoDQS86FLUXnrpJYwdO9a1xj9QcIuXoKRYMsKSj/5EiW7VsmI18Pf8toiNbQG9aDn63Jzq0wIUKanAmPERiI1rjojQfeh/ZxaCglwby8hxonvTTfh62jQZpLRv71489vjj+OOPP+S2a64yYfz7DOby/bWsRFehKJ2AF11ak6NHj5bCG+BftdJQolv1ZGbRbeuQ1qvZXDm/g0M3wKB5RE2Vg8MJYWh8RrZ87im6ZOWKFbj++uuRmJQkLGcNjzwQjPfftsptvqSsotu2bVv07NlTii5TBC+99FKcccYZqkqVokYS8GO6vPHo/nU3HApFVRAV6UB8XbpyK6/jU1HBJQlHShe6c849VxabMYl7ylqoY/ykAvzvh6pP09m6dSs+/PBDfPDBB3juuedw9dVX4+WXX0ZmptNiVyhqEgFv6ZKZM2dKF1RtjUD2t6WbkmrAm6PM+OobA7KyTsw3VVQPGDw4adKkE/Jfh7zxBt4ZOVLGH4SHGzHnNyO6nF3ks/Hdslq6JcHO9n333Yfhw4ejXr16rrUKRfUn4C1dwgIZsbGxrleKyoTpJGPHGzHxiwIluNWY6OhoXHbZZTL6vzgPPvggrunZUwpbbq4drwxzBosFEoybYKofrV8GISoUNYVqYenS/dS/f38sX77ctaZ24U9LN+GIBfc9ouOvuVbZKLds2fLo9IruqG43bBiLr2N0Ni8pz/E4riPc1x0s496v1PdznWtfnevEI2fhESud63SH2FeHgccs9p084bHdn8nj8vglveeE7yHW8TOP+ztc64of07147nuyc3PC+8V6sUKuc69370s8j3vsXBw7bnHCw8JwzTXX4LY+fUpMt+Nxly1dKmse79i5E8HBGp54yITXXnCI9zo/syL4wtJ1ww73iBEjZEfBfW4UiupMtRBd1mWl6P7222+uNbULf4runj0huFeI7sIledKt98P336NL166urYrqAMWJ0fcnE2be9t9wMpG775avQ4INmD7ZhOt7OnN8K4IvRZfQav/9999x/vnnK+FVVHuqhejabDaZq/vll19KC8Af8OYOlFNTVaLLHOa/Zs3CmR06uLYqahK8vp8eNAjjJ0yQ91jD+gb89YsR7dtWLI3I16JLOnXqJKfpPP3005XwKqo1pXeFAwj22tu1a1fi+JSiMlCNWm2A4jX8zeG47rrr5PPDRxx47BkN+w8GXqrOpk2bZGUtFqFRKKoz1UJ02SCcddZZfhXdauAAqCSU4NYmIiIiZQ78WS5vxn/LbHjvA4OcQSmQoCXOcq4///yzzN1XKKor1UJ0ydlnny3LNPqD2u2+Ymej9A4HOyOHDx/G6tWrXWuOh+Pv3333HaZPn16mFK+dO3fKqmNqYgr/07VrVzz11FOyPnNRkY6p39owc5ZB/NauHQKEtLQ0vPPOO9i2bZtrjUJR/ag2osuUoVtvvdX1qnKpLCvXbDbL0pIVmTWpqlmxYgUeeughDB482LXmGCxm8MILL2DdunXYv3+/tEw4Bs+UDzaYfM5a1CylSXFlnijhugMHDsjGlGU/WR9Y4V/u6tsX/cTCDmdmlgPDR+pYv9E/bmZ3jXNv2Mtylo89hoMHD7rWKBTVC+MQget5wNO6dWvMmjWrUq0hX1m5FNdmzZrJiRXOO+88mTN500034ZZbbpGl+Ogm81bcmdJxzZUaOp7pWlGJZGZa8OvvGvYdKERERATu7tcP8R7FCXh++Hf9+++/smCJJxTLpUuXynSZiy++WI4Vcj5j1tVl2hfFl++bN28eVq1ahYSEBAQFBWHUqFGyEU1JSZGFHBYtWiStL4X/oPB16dJFdph27dqFlFQHduwyi+sOCAstWyc0PUPDtOka0tK9C3rk0BFdxuyMeQM7aLyWunXrhrCwMNdahaJ6UC2il93wq/7zzz+yp7t9+3bX2qqB4kNR4gT7zCVs3ry5jKxs1KiRrB9Ly5zbOR8wS1hSTCgwzLlkp4HWbvGc0tLwZ/Tyvn1huPcRYP6/2TJ6mZ2cDsWilymYzz77rBRPT/j7cP7i2bNny05F+/bt5VgcXcf8e2nRUphZZ7du3boyBYznhalJ55xzDn744Qcp5LSIL7jgAtdRFf6E3oabevXCVvHIa/zefiZMGKPDbPY+a6Cs0cv9RMeOnaxnnnlGXkP8/bmcDN5bHIseNGjQCRW3FIpAptq4lwkbgcsvv1zm7D3++ONo0KCBtCjdgsZAK/bYKWyeC9e5F7p4uR/358L3UhTZY+axeDNzbItiyh44G/8777xTNghvvvkmJk+eLK25Q4cOSRfq5s2b5WtWzxk6dKhM4r/yyiuliLinD6xTp448Pj/fV5Z0ZWEwOMRSemeAoumeaYmPXOgSJhRYdjJ69+6Nd999F+vXr5dTGPI8cpo5nkOebwowzy8bWLqdWYCD557nhtu4v6JqoDdp6LBhMjeWv893P9nxxVSTEEHXDpUA74uHH35YeoHconsqsrOzMW7cOPz9999e7a+oXfA6ClSqlaVbHLqY6Laku4mpBBQEWlru6EZ3VSDe1G4BZjAWG34+pwCzcaHIUhT5mttZxcct5pUB3aiBaumeKk+XnobvvvtOBlPRZc5zREv/tttuk/MGf/bZZ3Jsl3MMM7eSjTiDqiisFFOmflx00UXynM+YMQOnnXaa3M79WMyBXgJaxsNEw6+oGihob7zxBj7++GN5T7Vva8TnH2voeo534lZWS9c9td+aNWtkvAA9Kd42S7ymPv30U2kpB3qHVuEb3NdGSb/3ya4b7n+y9/qLai26JcE/p6Q/yX2SA+HGDHzRhRDd3BJFl2LqroVLjwE7Klzcs0DRhcyOD70I9ESwc8PXtIh5PFrFFGoKLPdlJ2ffvn3yWPQycD0belVru2o5sH8/7r77bixYuFCWzXz2qWAMf7VQ/NanvgbLKrr33nsvPv/8c+kpYQGM559/XnbgvIH3M8eiKbwU4EC4vxXOdrj4b+HZLpf0O3E7vRa8DthusC3wrKrmfg/34XP3Z5R0rNIo6Xt5g+f7ynsMNzVOdKsDgSy6e/eGSkt3wX8li66i9sChkzPPPFM2MhecF4q/frYizIvazOW1dNmQsVPHaf3oOva2aeL7rrjiCnzyySfSU6KoHPh7cGFnmR4vDh/x92KaIDvTFENudz96ipQbPud73NkMbrie7SEfuVBsSxM2CrL7M7h4i3tfejU7d+4s4xf4PfhZNBwYj+P+XHpH2fGnJ46dOaas0vvpE8QXUfiZ5ORkXVw4vAK8WoTo6pM/MeqOTEOlL3vWR+iXXBghP1eIri5uLNe3VtQ2ROdQF42QvBbO7mTWsw6XfM0UX3auM+mtW0mT2KtFWLq6aERdn6rroiHUe/TooYvGr8T9S1pEo6kPHDhQT0xMdB1F4UsKCwv1w4cP6xMnTtTbtWtXpt+mJizNmzfXR40ape/du1cXnQPXWSkf1SqQqjZTWq9PUTXQXc6efk0lJzsbL7344lFr5NxOHEaonGtQtEOuZ04YU8Hx5LK4i+mSdE8FyN9G4Tvy8/NlNgLrJDz66KPSA1L8N6vpMD+cNQhuvPFGeZ3R2i8vSnQVx8Gbydc3FN1GHNctCxzXZUCWpwsqkJgzZ45McaqJ8JxzbJWNC2nYwIgbr7PD4sV4bnkoSVhZa51uZve0kt7AALCPPvoII0eOVMLrA9gOMCiVleKefvpp/PfffwF7P/oDng92tJk589577yE9Pd21pWyoMd0qoDxjuh++a0S/2yv/gj9VIJUb9n5Z0IJjaBwH2bJliwyc4jgIx0kYSJWYmCiP8csvv2DJkiWyMWQPkeMnFFRGPbMHychlruMxGVTF1zNnzpSR6bzAOQbDy5RjR0xJYhoS07E47sLIdY7xMAWJ55Ofy+MwMIvCfaoIdDYq/DsYTU0Li+9lB4Hfm8fnjcUGnFHuDPri2BXTxZ588klZlYspbDWNNWtWY8CAe2UDYzZpePwhC0a8XiTOvXdNRUXGdD3heWfjxtKP/F28hdfAa6+9JlPUeL0oygfvJ2YR8L51V48rCd7zLPjDe7CmwYC+KVOmuF4dg20SLd/nnnuuzNeYEt0qIJBFd++eUAyQKUMliy6FjBbQTz/9JCtT0SJZvHixDDJgJSNGnvJC7N69O9auXSsnU2dQzKWXXiorCDHHmsfgeu7PNJFzzz1XRspOmDBBbrv22mvljc4c57fffhsdO3aUQQ8vvviiPG8LFizA66+/LqsnMVWMhVKYF03RpBh/+OGH8ni8YZj6wgaDz+mC5Pt5/im2TZo0ke4yHoPpTXQdsUAbLSamQPG7sMNAGEjBKFt+H65nJ2PDhg3HRVfWBPi3sw4zp9Ek53Y24dfpGhrU8+5aJeWNXi7J4mUHjr8RvQre3i+EQkDhHThwoGwgFWWD9wevAXYsGfhUHHZIKbLsMNEKZi2Cmgo72ez8s51jYSO3ZLLNY9T8HXfc4fUwCFHu5SoiUPs6mkE7qZBQJBcuXCiFd/jw4dixY8dRMaK1yKjGu+66S4oXBZliyBxd3sCsPHXhhRfir7/+kmkeLDxCa5cVqnjx3n///dKtyXKZ3M5xPQouzxXHkbg/P4c3u7s4CY/HhelGvCH4+WwQaDGzqAmh4LLRZmETWrH8DPZeaXXTeqb4Xn311bKwCcWXJSxptfM707XGyFjmgbIBYhEHdhhYRammCS6ZIs7RN998I5/Xizfg/bdNZRLc8nCye4Hiyd+cHoWynG+KNQu08Dc8mZWmKBl6OXj/lSa4vCfYBrBgUE0WXMKoZv6tEydORKtWrVxrIc8N24TSJn8pDSW6VURZekZVSfHmkIUraA2x1CPrKNNKZKGMt956SwoWc3jZQNIKpWuXrmBal7RUuVBM2SC+8sor0n1M0eMNvHz5cmmx8pECSzF3jx+x0eR7WWaTn8lxPjbUblcy30/h5MX/6quvyprOTHWh2BMK6AMPPCBvEJbrpHDy+R9//CGtW7rB2Zmg9cobjNYy3dN0J7NB4fflMZYtWyZFm++jSNc05s2dizdEZ4nnOyhIw5uvBeHCbt5ZqxXhVPcCfzPW56ZHpCz3Da9LVokbPXp0mdzTtR3+/l9//bUsZFMSPXr0kHMb05tVXdqxisK2hsYAr0N3TQLC9oDXWFk6dtVqwoOaAseq2Av31tqVEx5cZcBZZ1a+deyc8ADY65rwgBYdLVQ3FFBaiBzrvOqqq6QLmjcnRYgWIK1QCh7FlxYoBZLjt8x3o7uYlistYgoZ3dMsGckxXFq8XEdR5jH4GRRNPqdbkb1r5tbxuPxcRrZSsCns/Gy6elghi/We+Z04xuQea6GFxJuGr9lI8JGv2ShT4DkxA8tUshfLTgStWh6Px6Xo8jvQYue4Lm8ufg5fU5hrCmw86JJnJ4kMuMuMZ54oEuep7NdcWSc8YGetV69epTbgXM/fgNcPO1383b2F9xoDgHgM/q6MHVCcHHqQ6E4tKUKX3iZWkuN9XVsE1w3bkTPOOEMaA5515zlcdf7553ufIy4afoWfKU+e7pRPTSXmRPp6UXm6tY/s7Gx98NNP66IToYt2VO/YwayvWGAp8frwZqlonm5piA6P/sknn+h169Yt8TgnW0RHT3/jjTdk7rHi5Dz00EOlnsPZs2frQoxdex6Dv82WLVvkcuDAAd1ms+miMy5fHzx4UL4WHTp948aN+vbt2+Uxtm3bJt+3e/dumZtNhODLbdxHdIh10cGS+cEFBQVyO+HxuJ/oUMl91q1bJz+Hvy1f8zmPx3aWn8fPER13XXTY5Wfxu/B643Z+Ry45OTlHP4fvPxn8fhdffPHR88L75vXXX/c6f1dZulVAdbZ0FTULXoMMbqPbjB6JsFADhr1qxFWXFYmevWunMuJrS9cNo9Tbtm0rPRWMhmdAm7fQQ8HAPv6N/Dxe24qS4VBMSVYu4bARo/3peeBMYe7fjEM0bNPokWLAEb0SDGSjd4iWIT0pnJyCQ1O0DNmmMOCSrmrGTTCLgVOg8hj0RjA2g5kCDI5kjjAtax6LvznjPxiXQY8Tr10GO9LrxP3pFncPDXGoisdZuXKl9FhxaGzMmDHSLU6rlXEdHIriQo8Zj0PvlxBq6RUpDf7NPAfz58+Xr/n3uWNTvIlkVmO6VUS1cc142TFQVE8YfMZ+Nxsecv89wehzi10InHzpF8pyL3A8jWPynNavrFHJFFyWimQ0NOMJvO301jYY5e8JBZYRykwfotAyO+CJJ56QnRg3FB7C34RDTxQ1CiQFlMLJvHYOPzFIkbEZHL7h5/A3oFuWwsihHa7j0A8FksLNISYOL7l/K4ozg+u4jgLOoSFOPcpsA343Rl1T+CnSfKSoU4B5fXPohOs5xzeHqdgRYPR1//79ZSeMwxDudWWB343Bmhwe8wYluorS4XWu2qUaCxvK+++7T6Y+kU4dwvD+2wUI8TIf11eUVfwovGz0H3nkEdlAlwVavJzHmalEFA0lvCfieU4oXLQqGYzGdEAGETJwiEGFfPT0NrDzxN+Dwkdho+BSsCmwFEiKH/PqmZNNK9QNf8/bb79dWsaE8RoU+EmTJsl9PXEHXzKobtq0aa61x6DoU3zpFWGHkqmH/Bs4sxmnYGVcCC1aijY7BvyOfOTCv5vfszyxGuww0IL3BiW6ipPAm081SjURm2gsPx43Dr/NmCFfN21swYSxhaLxkS/9Snm8PmzIaX3dc889ZRZedjYYkHWf6HCwCAuHexTODglT7SiahBYqo5QvueSSo78RxYmeBhaHoXuVLmM3/B0YaMnof55TChotSJ5vBh4yt5/uV3cxHE/o8uc2fj5d1bQcGdjH57R+GaxJa5iWLkWRWQZMa6LF6obfkcdgoKa7+A5z+9lZ+PPPP2WGA99LK5rR7PxbmP7IDgStcwZ+8r0Uc75mHQFvoYi7z9upUGO6VQAvSFba8baXXVVjuhZxEzH9p6UrN43ftzosbldXSdtq+uL+208qZGI/NjYss5gurIbwcCOefsyMm66ja861TwWorDHd4rBBp+XCBpLWuvtv9xa6EllohY06hYBCXp4OQHWH47d0rU6dOlXm5jJdj25ddmroESjeqeFrt8uYIkkrlZYlRZttG9PrmIVAUXOLG6N7KZAUU7qHmcVAUeQYPa1TvofFczi2yvFefgd+LxbKoYXM9/JY/J24jr87LVoutKbdFeT4+Xwf3+PezrFg/tZMD2SRG7qtKa5MReP3Z74tXd78PldeeaW00nk8vofu6OLwOlu0aNHRMV3Ca4fXMI95KlRFqiqAbgj2CNk78gZ/VqRKSDDj3kd1/D23UN5I7FHyJlFUH0JEb79vv35yrIqNQXEYLPKIsFZm/v670F8Hel5pwZfjdcTX9U0RDF9WpPIGuhFZeeyzzz4rU3CVG54jBsHwGEw5qy3CS4GipU83LlPn2C7xnr/hhhtkkBOL25RWRpUCy3Q/uolpOVLk3FLief64zvM1BYuvuRTf5onnfmWhpO9Ain+W+zU/h50CT072vQgtWtYl4PXihu35lClTpGifEvEBCj8TyClDhakm/alHLbrJVLum7qppS3BwsP7FF1+ckMYgGhn93VGjju4XGanpa/8LKvFaKO9SWSlDJ4PpIg8++KD8u0v6DG8WYUXpv/32m0xFqej3CWR4TWzdulW/55575Pkym826sC7l1IhMsfH2b+/Tp49Ml2GqTW3CZrPpQ4cOPe7aEZ0T/fvvv3ftcXKUpVsFBLKlS3bvMeONt3SsXlsEm11dHtWJnBwDjiQ6ryuW46QV42mtLFq4EDf26iWDUZge9NG7FgzoV3br8GT429J1wzQOBs7wb2b6SHmgq5NjiYxgpdu7rOPFgQ6tWwZDsXwjXat0q7LYjBBQ+bz4WGtp0KPAqf44TEF3bG3yhpVk6XKsmO55nsdToUS3Cgh00SU5uQZs2QrYivz3mYqKs3dvEPo96Cx5yKpc06dPP1q2juNkHHfasmULDAYNjw004/23HTAaffsbV5XoEkaRclyS8+qWpXKVJxQeulbZgNJFz/E9X3y3qoZjoqxFzZrpHOtkrXEKLqvFFXexngpeQ+zU0c3M3F1vxbomUJLocjyZosvJD06FEt0qoDqIrqJ6cvhQMBq3c0bjeopubk4OHn7kERmZyVu+xwUWfP6xjtNa+mYc15OqFF1CceHkFpyJiiJcHvhdGAnLgCLOusQ8UAbkVAc8m3T3OWWwGFN/mN/MoCUKBMuelic9hkLLghZM6+nbt6+cHYyfSeGpDZQkuhwL5zl1T7JyMlTKkEJRg9DEPzfuxpedOza4M2fMkOvqxRvx1CNapQhuIEB3OtOBWGWL9b3LI+Y8TxRvpqo89thjsggDZ5phCgtFx1PYAgV+JxaBYPEKWumcT5gVmRjdTTcwRZJRu99//72MGi6P4NJtT/c9c3R5LM4py88tq6Vcm1FnqhpQE1xbCv9gkPF5ThiZyQZxw/r1ck7jjMxMuf6eO4y49qqaKbhuKCi0wvh3s7xgRawwWolMqeE4L2ea4aT6nGWLUeDe5mb6AxaeYE4qs0DZWaBXg+k8zKsdNGiQTI2hWHqT1lIcXkf8e0eMGCGtZXZmeG7pCeC5VaLrPepMVQMCsVetCExiYgphcHXSWPZu5YoVeP2NN7DeVXXqku4WPPOkjuDgmj9UwXFGWqhMJeJYW2npL95CC5dVjehaZP4qx3spQKxwxSAub4eLKgN2DFijmMUqKLBMX6HLnrmpv/76qxyD5axZl112WZk78cxXZUeDnQ56DziLGMfNeW7dx2JuLItV8BywiAUF2j1jleJ4lOhWA/xl6Yr7FqvWAP8u1ZFwRF0a1RFLkANnnekMnOL8xGx0WRSeHbd68WZ8NdHhs3zc6gDvHebesrLSs88+W2Lecllh5C6nv2NxCI5tclIQFtHn9JAUI4oPRcifnWUGjVFo+T3oDmeZRIoio7lpldIVzFzkskQZ8/vPmjVL1i+m9UxrnxHL33zzDS699NLjIrt5Tii0fA8tbhaz8LYWcW1DtazVgMq+eR0ODQv/M6JdFxO6XOJAj6t1NGvvwKvDg5GdrVzb1Y13hxeiQX26Ux3Iys4W148DdeKMeGeIAU0a+8fC9afgnAoKL6N1X331VRn0wzKFvoq2pXuZ9XqZfsN5ZlkTmtWXKHq0hCnCHE9lAQlWY6IY8z2+Pj8UR1qkdKmzshLh303Lk2PTDJ5imUNvOvD8bocOHZITQzDand+d0dyswMRZfOieLn4cVqiiqNPVzM4H551l6UfFiSjRrQZ4c6NUhJWrTXj4KWDXnmP5mkVFDnwwIR9T/meUoqyoPlzU3YEvPjbgvn5mXHNVFPr2sWDcaANuu7lIXEuunWoh7nFeBkTROuV0b76GgsVcWBbmZzQraxTT20DxYnAXS29yLJR1iOmqdpchrIhrmkLO6e6YZ0ux92wvGL3N7dzGjAlvoNXMyQfonnZX+KJVW1vLZPoaJbrVgMq0Gg4lGPHuB8COXWyQNXTq2BG39u4tb7LcXB0L/3Ug81hNcUU1wGzWcfUVRXj/bR2ffVSED9/V0edmO0JDA8f6rCrkNd6pkxyj5NyttMgqU0gYzMbi+yyzSDc/BZfCSyuSljADndgBGDx4MD766CM5Jst8alrPfK83cAx1zZo1UnBZttUTunwpnPybvYlWZlvDc8Nod44Tu6EFW1tSgiobJbq1GN7T33xnxM8zC0VPW5f1UzlGxTQA9yTfufkOWK3yqaKaER7uQMP6+YiOqj1juN5AkWWRfM5QRJfp448/7rdJ7SmkdPfS1cwxd85ww0AnCi4nGGBuNd2yHIfm3LMPPfTQUTFm5SdaxZ5izOesn8xHCivzRT1huhC3UZC9gSlBdMEXr+jFnOXypBgpTkSJbi1mwWIzRrxrFTclo1mDMXTIEFx8ySXHhf/TBlAeJUVNhNc5Z7ThjF+M/GUBDLpgiwuXP6CFSRczrUtauQxGWrx4sXQb00XNmXU4Mw+FlVWkKMZvv/22dGFzpiTevxTq4rAjzfFWzlHrDYzwLsmipedLia5vUKJbDagM99e6DSYMfIKBNrpsZO679148+thjrq0KRe2BYsJUmk8++QQTJ06UFjAjfgMp95SCTCuXc7yy4AXF+JVXXsEDDzyAVatWyfFWlqssDqeyY7lHdi68pTLd7QolutUCX4/pJiaZ8cpQlutzjtlccfnleP6FF45GdKqRP0Vtg0JDi5BBT6NHj5ZRuoxEdkcCByJsFxgJTfcxg8JKSoei2NJtrcZjAwclurWMQpuG8ZMcmDPfWUmHPXrOncnHkigs1JBfoMkcXrVUn6XIzkbZ9SMqvMYtvsx3HTNmjJwcn6lGLVq0kMIVqFYgrVy6mIvD71vW8erydPL5HnfgFR9pmVckIrsmoyY8qALKOuFBTLQBH4wy+GTCg5mzDHjoKQcSjjjkOA2n+GJP2HMca/OmTbj0sstksEdwsIYWzUwICVEup+qCQfxULVuYcM+dRbj68iLx27o2+AlOeNDzZmDnbu9KJPp6wgNfw/uUeat//fWXXJgOxKhgjr0GShlIVtxixLEvoHVfvLAFx5T5G5WWdsQcYQZ00TXP3GTmKjNqm1Wwahr8zYtPeMChCHpHvJnwgD0UhZ8p6yT2QnR9Mon9rvVBescOpqPHve/ee/WsrCzXtzqGaEz0yy699LjvoJbqtzRtYtDX/Gsp8VqozIWT2J/W8th1dqpFiG61mDSe35H3y8qVK/UpU6boL7/8st67d2+9U6dOuhAqXVjCJf59/ljuv/9+17esOLGxsSccX4iunpCQ4NqjZNy/IR+rw+9ZXoQlf8Ik9kJ09W+++ca1x8lR7uVaQl6+hgGPaFi/wdkzZ3Wa90aPLtH1xLGhTz/7DLf36YOoyEjZi1NL9Vnc7D/gwC8z/B+JW1Nxu2qZ0sMiGywgwcArFrrgxPCMJOZ0ghwX5hy1nFLRX9Z7ZY/Z0ro7lWfO/bfyMVC9FpVFWf5eJbq1gKIiDUPfNmHxfwWyW9a0SROMGfO+HLsqDc61+e306XJmGvf4jFqqxzJ1yhTXrwgkHlGiWxmwc8MxVAYwcby3a9eu0sXLWXx++eUXbNy4Uebh0h3NSQLodu3WrZuMnWD9Y3Zs+X4GL/JYFRUpX4qcMMZcz47BKlWsp6yoOEp0azgU3J9nmDFtOuu9QhY+f/a559CxYyfXHopAxeFwyDJ+nK2ltIWz23A/T5qXEhSn8A8UQMZLsDrUlVdeKQMVv/zyS8ybN0+WfmTKD8dfmR/MSRgoyJycgN4nzuDTtGlT2SGmKDPWojRB5XqKNh+LF7OoCCV9Hjtzxa8zRflQgVRVgD8DqbbtMOLugTpWrnG6lRm08t677yI2gFMhFE53Hl2WnDbuZK5DVjfihOQMhmNDTxYvXIgeF18snz88IALjP8iVz/1FTQukqizY9FLIWKaR9ZFpSdKi5JKamiqDmdhWsOPFyfP5yOBGrmeQEn97vp/H4aT106dPdx25YpQUSEUr/auvvpI1nGs7JQVSsXPE4QUVSBWg+DOQ6uYbInWDwXmc01q10o+cIhhCERgcOHBABscIq0gGsJS27Nu3T+/Zs6f+559/ut6p64sWLDh67QjRLfG6qMylpgZS+ROeD9G461arVReCrAuR1YUA64cPH9Z37typL1++XBfWst6/f389LCxMv+qqq+T+vqCkQKqLL75Y3717t2uP2k1JgVRsz1UgVS3HVqThnffD8POMLNEbhqw1+9uMGajn5UwjJcG0AI5VcWaU4ohrSbo6OZcoa8TS3cXqOaz9qig7nDCdFgfL99ErUnxJqp+B4fXGI6eJVdbV3bZtm+udx6NpbBMU1Q1a/bSeWC2LAVks58jrgVP0Md6iS5cucgyZKX98zRQmX7iYOdkCLWhF5aFEtwZCr/Vvv5vw9ugc+ZrjQ8OGDZUzqpQXiupnn32GDz/8EHfddZe8yT2h++vhhx+W06ZxwnC6wTjH5969e+V2utIp2lzPYxE1RnRy2PCW5HK1ohCj9Un4nzYDe3BQrnOf0xNQmlujoRA3btzYZ4FOxSPgvYXu8U2bNsn7fO3atfJeL6lzrlCiWyNZu8GIt95zICdXl4EWTP3pc1ufCo2Z8b2PPPKIrNLDAI/iFizHOSiotMyYNsFJw91jkRTq559/Hi+++KKs8MNHBpc89dRT0nIeNmwYtmzZIvdVnJovHN/jJ20WbtevRw+ti2ttKZSjAVVUH3gvsr4y6zJzkoSSYIeMFqw3MSS0mt2xAWWBx6bw87M4Hk1rmUKsOBF1R9YwMrM0jPnYgHUbbeIGAE5v00ZO1RcTG+vao/wwPWL27Nlo3rz5CVYzy9AxGpOW7jXXXIOEhAQppJzrk8XZKbJ8P11gc+bMkbmMrAu7ZMmSUkvYKZxs0XciT3e6/Nbr2zDY8CZa6E3wqNYPkTix3q4nFeloKQIf/r4XXXSRDMaipVkS9CgNGTKkUju2zF9msBU72pdcckmJbYTCiRLdGgQ7slO+MeHbHwrlOG5MdDQ+ElZm8xYtXHtUjH///VdGMDJCjz1bupTd40js2bZs2VJGoXL8mAUDCG8+iu3AgQNlxKU7+pF5imFhYbJB4FRlZZkFpTaxQYhsV9yEfhiMdfoWPIsR0MW/x9EfHVByJOnxnmblX67pdO7cWd5jnMi+NGuWY/6MhvfG2i0PFH+OQRM+8nV53NS1AXVWahB/zrbg1eEOIWS6FDWGtV9y2WWurRWDNytD4nlcWqesRfvdd99h//79cjvHeMePHy+nR6OAXn755bJoAOfnzMvLQ7t27aQo0wXdoUMHKbgMCuG+dFnT/aU4kXjE4VZci7+0hbgdT2CJthp36Degv3aza48T8bRtdTVuXuNhsQ1OTcihmuKxFoQCyLgO5gfzvlVULUp0awgZmUa88ZYd2Tk22cPk/Lj39O/v2lpxeOM+88wzMjeNUZMUy1tuuQVNmjSR2ymonNvzhhtuwIgRI+SE2wy4YvQlx3k41ssKPcuWLZOuLlbm6dmzJy699FI89thjsmye4kTqaXXwvvYK7tf7YJe2H6frLTFKexFB4l+pHKe6yr1c0+H9zjzdnTt3yvurpABFdpaXL18ui3OUGnRXAdgpp+AzcJIeMHa06dki9ILxNSeIYHAV17u/A4O/+B7OTMTcYEbtu+E6jg9zbJj7MCuCj3wPx6/5nO/haxaKcQeS8bswk8ITGgf8Xu5j8vO5v+fn+QslujWEVWuM2LffWYzgvK5d5YT0TDXwFbyxW7dufXThsVlxh5YsoUuJwksrluu5P4OpmM7CGrW0ZCmwAwYMkC5nBmtER0fLClkUXFq+iuNhA8EAtRhEYZj2NN7UB2Mchkrr1xM2suzclIjS3FrBBRdcIMdQWfnKM8iR4sLqV8wkYKDTBx98UK4AJx7nZGLNGA5W15oyZYqsvMXhJQ4b8fpdtGgR5s6dK2M+3n77bVnIhYU8eH3ffffdMuaD480fffSRDLR0w+/NjAhuo1eNVbu47s8//8Tjjz8uPW+rV6/GuHHj8MUXX+DJJ5+U1vz8+fNlcJk7sIsxLe+++67823/88UeMHTtWCjDLc/oq2ItGCRdvUKJbQ7BanWUeSR0hdnQ5BQIUXwZN0bplubuT1XtWHIMdEvbYp02bJhuS1XNXosu8Nsibly4bMPfCwLX//vtPNrpH8WgbNXH+FTUf5vEyWJEWIDMFFi9ejAULFhzNGuBwD5/TGqWQ0fIrTURLWn8q0SUcLrr11lvlZxEGVDFzgdcx38vHBx98UA4n0ermUBPHou+77z5ZVY2dR/dnUKwprpwakOLM785OPYW9TZs2Msr6tttuk/nKPC6rmvE4mzdvxsKFC6WA//rrrzJ9ifcSX3O4jTWyWeWL4t+vXz+ftZNs57h4g7ojawjNm5kQZHH2tNaI3t9///5boptJUT1gY8AULTZCFFcKb0kL53Zlh6ZTJ1VLuzZDK4tRzLwWWJSGHiUKFMdwOSQ0adIkuY0T8vO6eeKJJ/D3339Lt29xSrLYPAWxNOiuZQQ1y1USzsFLNy+vUU/YQaBQ8pEiTeuVWQ6eUCzpPWOgJseqKcKeUDh5XLcLm/cIXcwctuL34PAXxZd/P4vJeEJPAN/P/GZfwahtb2d6UqJbQ2h9mg3X9TTL57zQOK5avH5qTYE3GF1VTJOoCiZPniyjtCsTNnyM9B48eLDMYy5tYU70xa46y26OaxpP0VAqag4csmFMBV2tvD5ZzIauVFqBFB4OBTHOgpPMU7Aeeugh6eqlwJ2qg07BPZXoUsRofTJoklCEGOfx+++/y9eEx2AkNb8Lx3g5yQPjPTj85Hl8uoF5LIonRdw9XuuG98ZNN90kJ4cgjODm3842gZYw7x9+H44nr1ixQnYuKLYcz+Vw1vXXXy9d4TwuXc0VxZ2N4Q1KdGsIZpOOsSMdaNE8WDa6K0TP8fnnnvO5tcseKnufvLh5bD7yNZ9zYWCCezt7oRxnYQCEexsXHsP9nDeaexvfw4VFM5je4L4J+ei5P8eE6bLmjcXPokuN6RLuY/CRxzwVdFtxX/fYqfv9/Ayu47G53vP78rjt27eXvXhu47589Pz7vPlsb+HfyB5/aUtJLi1PQ0V3KNGtTbAYDt2w7IjR+8H0PV4nbih2DIDk9IMUO46LnnfeedKNy6GMkqKfCa9zLqXBGA9aj3TZskPMSlmM16AbmCmGfE0XMo0BZjnQEue1TeHn9IccHqFY870vv/yy7ED06tVLfldar7yvGJzJ93CIiuO8HA/++uuvZXvATAlazhQ+jiXz7+d7mT9Ma5oLP5v3NUWXgk1vEq19LhWF39fboiJqlqEqgBcne55szL2hLLMMLVhsxl33FSEh0XnsTz/5BPfed5/Xro+TwV4ib8xVq1bJi5zBCrxh6FLiTcTAKQZIsEdJ4aEw8aZmOgOnOGN5SN5AvClmzpwpIxl5I/B4FE2O7/Dm4jgl3V88JhsNNhD8XPZ66R7j2BVvOI5lMoCDgRO8UVm4g71cWsIcszn//POlINLdxr+fx2KjwoaJjQBzhznew+/NxoidA/a+6ZZj4AlvbAZ/8Ubnd2SQx8iRI6Xbijc+9+f3YE+e41mMHOX3ofXJic6rCs9Zhh65NwIfj1WzDClOhJ1iCs4PP/wga6bz2qVw8D4v3jbxeqaHhx3O2g7blOKzDLFzQcv5uNiKUlCWbg3jvC5FeOxBI8JCnT8tRWLJkv/k84pCIaIoTZgwAffff79sKClQDJyge4jBEXQJUWDZq2Wvs2/fvvLi5BR17F3SXcp96RZix4MCxoAJiiT3Y+Qze8tMT6JIEkYosm9IAaQrjNYo0wUYiEFh5YXOdewpU3wpzhRwwn2++eYbaTkzZYnPKZL8XHYO6F5jj5zHZU+aNxQjJRmgwbEmfkcGZNB6oEDTLcdIYfaq+ZznhK/pxuP3ZQpVlYuHRzdaMyghU5QMr3tagLyPWfTmnXfekdZhSd4T3l+0EpWN5hzfdtcncMOOPBdvUKJbwwgO0nHv3cBFFxpE4w/sEeL0wQcfyl5sRaEFSZcM8wFppfJGZM1Xii0tPooQx1Z+/vlnOXbE17Qo6aZl2sDNN98se4Ms+UhBpuuHAkyBZq+bIf60gK+44gp5gxNakxTr7t27S8uTASE8Dsd5+Pn8PhRrBmxQgPldeHyKJKH4Pvroo1L8+Tnu5xRZ5jbSQqV7mu5quqkGDRokx3jceY38WxnxSKt+6NCh8nN5HI4XMVKSFjRvNgo+j8fzwInIq5Ljm0UluorSYQeR1zpdzPT8MI2mpLFJth+89rl/bRdeFgdix9wTtkPslHuDEt0aSIN6RXjtBSNiYwyyV0ZL7fvvv69wdSKKHd1RLAfJ/FvWTGbuG61UuqOYIsCbkuMpdENR0Og2pmvWHZ7PdXQD08pk4APFme7piRMnStcyAyvY63bnz1G4KXYU+d69e8sLm2NRjGikm54ix2hMursZXEFhZmqSexyLVigtX342x534nI0M3cn8e/icljotcRYOoKCy40DLlVayW+xnzJghrVgeh9tpkTNvkBHG/Dv4eWyw2CCVmjOrUAQwvIbZES5pKIpBmeyM1mbB5d/OIFV22unx84Sde6/TIcWBFH5G9Bj9Mon92JFBelCQQR6jXny8vnTJEtc3qN5MnjxZf+qpp3TR29QfeOABfdeuXa4tCrJw/vyj186j90eVeG1U5qImsa/eiM5tib+TsIb1PXv2uPaqXfD63LBhg96jR48TzovZbNafffZZvbCw0LX3yVGWbg3m4fuKMKCvc5whUVhtAx988ISxiOoIw/059kRLm1a225WsCAxEu+J6pqiOsJiGOybCE6beMMCxtNmMajIc5nrllVekN6w49JYxjkWN6Spgseh47kk7LjzP6e5k9C1LMtKNW52hi5eFAOiKLqlxUByjOkQEV4fvWJvg0BADrIr/LhyqYhAia69zek6+Lk5N7HAx5oOpTQzGdMeaeMIATLZH3qJShqqAykwZKo6ua/jptyA8/owVicl2KVijR4+WY6Ge+XuKmsOi+fNx0aWXyueP3h+Fce8fP/5U2ezao8mUoV17vLu+VcpQ4MG4jf79+8t0u5JgO8KxTbYjjNpnxDN/P/d4MAWZ0kLrj9u8lRlfXAMltaulfb7nevdzfgc+Z5Aoa0jTm1a8OIcbxokw+0KJboDjT9EluXkGvDHCiDEfs7iEM+eOVWsYkKSoeSyaJ0T3suojuqyZy6h0JbqBAzMOWCP5zTffLLFUpBsGDVKAKa7uVDr+ju6FkdAUYrcIlyQ37nXcv7QgRG9lim0qv++p2lb3d+F+nvtynfs6ZDYFo7ZLOxYFlzUDmD3hfo9XiA9R+Bl/BVJ5Loe2m/WzOwbJ44mep357nz66uJhc30hRk/j155+PXjtVEUi1Y61Rb9XC++tbiK4KpApAUlNT9UGDBsn2oqTfrTYvISEh+hNPPCHPUVlRlm4V4G9L183efUZ07q4jM6vImeLyzjsY/Oyzrq3Hw8ti2tdfyzGcfNHrra3wPJSpFxsAMNjDXU920CMheP8d/47hK0u35sD4j+HDh8vCGd62VzUdtp2cLYleAFr5ZYaiq/Av5bF0p35mLtGqKOsyfkyQHhri7Lmyt7Zg/vwTrAybzaY/8dhjJ3wPtVSvJThI03+dHlnidVCZi7J0axZCePVPP/1Ub9u2rUyPKek3rA2LxWLRW7durY8bN04vKChwnZ2yoyzdKqA8lu6H7xrRt0/Fe5rJKUYMfsmE6T8ViM93znnJ2UhYO9TNrp07cWH37ketJfbsDKqcYLWBBmP9esAtNxjw1htFCA52bfATytKtebCtYvYDKzGxGA1rNXPctzbAMWlGKDMtiMV8OnTo4NpSPpToVgFVKbr8tdesM+Ku+xzYvssuSyYOfvppvPLqqzIwgHAiAZZFZOHzjmca8eyTBtSrpy6T6gK1KyoCaN1KR1SU/383Jbo1F5Ze5by1FGA+sjQkp89jpC/bMy6UlOKy4n7NNoVizcAqN57P3ZRVlkq6drjOvZ4R1GzrWJaWFN+fr7kPFxoZrFjH6lzcnyVfWQaWk7VwfUVRolsFVKXoupn8TRjufcQZ1RomxJZjtxcLq5csXrxY1jvmDXLdVQZMGqcp0VV4jRLd2kFJ0lHd5aSka9DX16UqjlFLuefOXNx/d7Do1TGlKE9OBMC6om6O3jyqHVQoFCVAMSq+uK3F6rqU9Df5GiW6tRReS+8Ms+OiC52lyzZv2SLdzMxNO6HqihJehUKh8AlKdKsJleG2iY2x48XBBjRr4hTeGTNn4rNPP5UBVJxXltASFh1AhUKhUPgA1ZxWEyrDzcFDXtqjCP3v0hBk0WRAxPMvvIA777xTlj3j9rp1jIiMUKZudaPIDvF7Anli4aOrD6VQKKoYJbq1HJNJx6MDgasuNwmL9nhxPb21BX37AEFBFSvKofAvySks+xmE9l2BJmc40KazjleHGXH4iP86Tyo+U6EoGSW6CsTXLcKYtzW89IwR3bsF4ZzOwbi3rxkfvWdAjwuU4FY3PppoxOgPrdi734H0DOBQgo4PJ9ox8n0TvAyYVygUlYQSXYWkZYsivPqcjumT7fj5GyHC7zhw+cWFcBbOUlQXCm1GKbCFNofMKbzt1ltlMfoCqwOTphTiq2kVzzP0NZUxdKJQBCpKdKuIQGxogoJ0NKjvQOOGDkRGKrGtjiQlByEr2zmAe9VVV+GryZMxbOhQKbz5+ToeHlSA5auMUN5fhaJqUKKrUNQgTAw3d8G8Q3L/Aw/gpl69ZDk7FmQZ/JKOXXvUra9QVAXqzlMoaioua7ZOnTpy3s+2bdvK16vW2vHRRAMyMivH28IgKhVIpVCUjBJdhaLG4hQ+DmWcc+65ePWVV2RdWatVx+dT7fj9r5InDFcoFJWHqr1cBbD2coMGDY4WoDgVlVF7+VTouobcPOZ3qn5ZdWLfATM6Xyh+OMHNN92Er6dNOzqRBW/15559Fh98+KG89uJijfh3thFtTvNtEu/O3cDVN+nYs8+7puX++++XM12pgCpFbUCJbhXAiQSaN28uZ+bwBn+Lbm6uhpmzDJi/WEN6prNalaJ6kJJsx9yFzinX+tx2mwyk8pwZhZOS9+vbFz/9/LOc3eXczhZMn6yjRTPfXVtKdBWK0lGiWwWwvnHXrl2xY8cO15qT40/RpYX76ZcGvDq8CKlp6tKorjCIatiwoXjhhRdlAJUna9euxcCBA7Fy5UpZ4vPevha895YDUZG+yclWoqtQlI7yHVYBbFyCgoJcrwKL1DTgj7/tSnCrMRy3veH663H33XefILjkrLPOwlNPPom42Fhh7QLf/VyE73/mvKauHSqI1arBrmqqKBQloizdKiAzMxPdu3fHxo0bXWtOjj8t3T17QnDvI8DCJbmIiorC0CFD0L1HD9dWRXWA8yO3bt0axhIE1w0nI3/h+efx4YcfwiGagDanmTFtEnBO54pfY3PmGdFvYBGSkpWlq1AUR4luFRD4oqsL0c1Dw4YNMevPP9FBWEaKssNbi0Fzu3fvPnG6RBcsWtGqVSuZ1lManIhiy5YtyMtzBkgVh65kBuY1bdpUWrnekiq+G63hP2fNkq8vu8iCaZ87UC++YmZqWUX34YcfxoQJE1yvFIqajRLdKoCi20NYjxs2bHCtOTlVZelSdP8SDfKZHTq4tirKwtatWzFs2DAZsFSSm5e4hXn06NE488wzXWuPwW0PPfSQFFOLpfQUHwpzv379cOONN5ZJeNkhuOmmm+S1aBCW5l19LPhsXBGCLOVvFsoquiNGjMDLL7/seqVQ1HAougr/kpGRoXfo0IEtkleLEF196mdm3ZFpqPRl19ow/aLzw+TnCtHVN6xf7/rWirIyZMgQfdy4cbrdbteF8Ja6TJkyRb/++utd7zoeIcb6wIEDS3yf5/Lff//pDzzwgC5E2vVOLxHv/X3mTHGNRcvfPDhI08eODCnx2vB2+etnkx5fVzvuGj7ZMmbMGNeXUShqPiqQSnEcmkGHpqkoGF9Al3KLFi2k+5fjlZ5LjpaLx/EGhmMcWp55Gvbu3et61/EkJSXJoYji7+di1QrxCt7DjRgIexz1y/mZZUIc5+JLLpEu3uDgYBRYdXzyhQ2Ll5hEh9y1TyXCv0OhqE0o0a0iArWx0R2aaGxLvizoFme6CYWgJOgKZRrKoUOHpEt1//798j21Fbc4lsQX+veYov2EbDBXu+zq5hD//tDnYRKmIxlpsIvX5SUsLAyPPvooLr30Uvl663Y7RrwHJCZ576ZWKBTeoURXcRxCJlzPjkcXZs8zzzyDKVOmyDHG4hZVVlYWnnjiCXz77bfycdeuXfjyyy+xadMm1x4KN//pqzFE+wBt9dNwP/ogBMGuLd6zBwfxEabAikKMxzA0QLxrS/lo3KQJ3n//fTmOz9/6n/k2DHlLlYlUKHyNEt0q4GQWUFWjGbSjs9N4wu/76aefYsiQIbKSVnp6umuLE7pHWfSDATHfffcdWrZsiT59+qBNmzbS8v3ll1/w0ksvYerUqVi4cCFWrVqFOXPmyPds375dVkqqieji33Z9N+brS6V1mqZnYDDehE38G4T7cIbWqtSOjie0ZpcIsc5DvrRqp+o/Y6G2XMjtYJytnRiAVR7OOOMMfC1+H7qZi4p0fPpVLj6fElRmN7PDD25phaK6okS3CqCoRUREuF4FIsdaTc/2My0tTUbj1qtX74Tvzxlszj77bDz++OMYO3YsDh8+jE8++QTz58+X87omJibi4MGDsvzl008/LS1i5mb+8ccfUsjplq6J5Or5eB4jca0Q2M/0bzEKn2KDthV99ZvQR7vOtdep+VH/Ux7jXf1TzNEXYyy+xA36ZbhTu8G1h2+44MILZf6uu17za8OtWPQfx3e97yQeSjAg31mJ0isCtQOqUFQGSnSrAIpuo0aNXK8CC10X9piHqeLZHEZGRuLBBx/EkSNHZN6oJ8w3pZX74osvYsaMGfjzzz+Pro+Pj5eiW7duXURHR8v1d911F8477zxkZ2fLHM1u3brJ9TWNEC0Yj6If6qMuntfewSTtW3TW2+NN7RmY4P2Y6SXohgtxLkZrk/Cw9iriEIUnca84aqxrD9/ASmmcf/eKK66Q12lSio4R7wK793ovjJzFSFxGCoWiBJToKo7jZK5ECiqtUwZHNWvWDM8++yxWr14tty1duhS33347Jk+ejISEBJx++ulyPYWa7mhuj4mJOc5Cdls4t912GxYsWCCf1zSM4ha7QuuOX4WFG6/HCaE14W1h+5ZVLE/XWmIMXsXZQrD347Cwefugh9bFK9d0WWncuLGsRFa/fn3ZAZu/2IaZf5pht3v3WRwTVigUJaNEt4qoji61AQMG4Oqrr8bMmTMRFxcnA6pYbpDQan3vvfdwzTXXYO7cuTLNZdCgQQgPD5ez3NDtTGuXY7ocG+ZY7x133IFevXrh3XffRZcuXeRxahqcUcpmLUQbWwv8UPgxPrG+iU62trIMIxeOZXMftwegODx3dNVbC6xoZmuIKYWjMdT6FB4vvBt6oePocdixoWVa0nh8WeG12alzZ7w/erR8bbPp+OsfB8Sf4RWs4VwW2fXFd1YoqguqIlUVwHJ+rDfLcU1v8GdFqn37wmRFqvn/ZvukIhWFduTIkdKdTldyz549pUDXhnG8efPmyQhujmOXViWK54FpWHS333rrra61x1i3bh1eeOEFec5OJk50+bdr1066/301mUZ2VhaiY2Jk+lfnjmYs+NOO8DDXxpPw+ggj3nm/SAZjnQr+/T/88ANuueUW1xqFomajRLcKoHVDVy0DjryhKkV3lhDdDhUsA0lLjNHODM4J7AAy38Lfef369dizZw/s9pJ/O4oxOyQc0y5NmFmje9u2bfI8lgSFi+Pl55xzTqkWc3l4d9QoPC8En9x0QyimTbIiJPjUzcXglw34YLzdKzczv/vff/8tx5AVitqAEt0qgDmub731loza9YbqLrqK6sd8YaXfKaxvWtAWs4aJH5hwz512YW27djgJZRFdWu9//fWXEl1FrUENplQR7OFzCTToSnQ4jol7Rb9hUVFRmQNraBWWZhkSCsGKFSvkd1X4HuZVjxRWLocGKLLXX2NBzyuYv+3a4SRkZmlITPL+9w7U+0ChqCyU6FYBbGQYIOMtTMFISnYIIXKtqESc0bClN4IUUAb+cFYbwvFpln8kFEG6QJnPy8Aebvv555/la27je7gvj5Gbmytdzm7h5GtGRVNs//e//2Hnzp3HiTXHg7md6zZv3ixn8KGgM1KartcdO3bIY/D9/AwlyOWDv98Xn38uo8l5rps3M2Hw40D9ekWuPU5OdraGlFTvI5jpUleBVIrahHGItz5Ohc+g6LKCE6s0edM42UR7V6+uEZdeBISUvWJgmcjIsuDXP4B9Bwrl+Cuni2MxDEIR/eabbzB9+nQ5Vsmp5phjywpUzMeluI4SFhIrTbHoBUWSU9YlJyfLMUd3ihFFe9q0aXIfVkFavnw5Pv74Y1mZisFHPAarIrVv317WBWa6Ebf/+++/6Nq1qwxO4tSIDERbtmyZLE3J9JbPhVgw8Oj7779HkyZN5ByzirKxcMF8PP/Ci/K3oxi+/5YF115tE9esa4dTcPgI8O0P4jHBO9FlDvc999wTsHnrCoWvUV3MKoCiy/FSt5h5w9KVumzQKhunnVtyC7t48WJZS/mNN96QVaUojnfeeacMAmIxjEWLFkkx5MJxa4o2c3DdBTMomJw7lWlFF1xwgbSqlixZgueeew7Dhw//f3tnAif1/P/xz24XylVEp04qKUdSQpLoQIQuhSQ6iJDjV4TKUZEIKST1I7rrJ0qRSBFylUpS6XCUHOUv0vc/z3ffyVozO8fO7s7uvJ6Px9J+Z3Z2dmf2+/q+r9fbRoywj6S+d+utt9pYEgwaNMj9/vvv1pnL+AypZTp+aRrq0aOHRbZEucwE8xhEu0pZxs72wEVT54AABhdadO+6v7us/a6A+EafLt7ynXNfhV6YFBIuxriwEiJVkOjmEUSGWS0lz8xXaz23cpX/SR5BwwvztXTlIr6kkDlpEm22atXKUrwnnHCCCSy+y7hWEXHyszK7y0wu4ty5c2fzX+bnJ4pFmEkVkxJ+5ZVXXMuWLW3pO5EW0TNOVwjrqFGjLOK9+OKL7TlgM3n11VebkGMxyawvUTVpa2wpRfSQvmfT0KZNm+2CpcHJRd2dt+1yhWI4Q5DRX/NVQLy3R5/a5/3DLLcQqYJEN48g0q1YsaL/WWQQpJem5W30VrVqVRNS6n2kc3EuItVMZIrvMrcfdthhFsFjjkHdGrFkZAZBJIrl30S8/Puss86yqJjGHVLNpJ1JN37zzTcm6IC4I9BE0+edd56JM49FXbdZs2aWQiaq5nvSZU0EjOCTnhbRQcaBRQdB685yZdLdbX0Cglgqtro4i6denpYedT0Xca9WrZoJrxCpgkaG8giailiBR30y2qafEiUKuXdfd652rZx7ybIaGSKFi4iS1j344INNLDlxctIkpUsKmKiFemDJkiUtSg2mmTmxYwNJFMrtpIIxcaCRhmYoUoykkxFeoli+N7fxe6KLFgHnMfn+NGcROTOXiuhjPYkBBY+BWBNBBw37RWTY+ERdlQsZxoNuur6I69/3r8DvMLb32dKP0l3j5nvc77uiez/zHhoxYoS74oor/CNCFHwkunkI6VF21CJm0dKxbVE3YUx0naTxsH5DiYDo4rebvHO6iDbPi2iW+nAsaXrxT7go6ti+vZs8dap9Xrd2Mbfo9d0xCy5c0rmwmzozSq/IAPh306nesGFD/4gQBR+ll/OQ888/P+auzSkzdrtFS3Iwzcw1WPB8y/+TcDkqERLLFagRS3Djh+zE4yNHuinTptnn5coWcf992sUluDNmF3LT/xfbxSBLMerVq+d/JkRqINHNQ4gkL7jgAv+z6Pjjjz3usaec+3F7btR3OfnuPQGTtp0xY4adqEXBgMa4u+66y2qwBx+U5gb2L+Jq1fzTvzV6vtmY5oaN8GKajaYsgd8yTXZCpBIS3Tymd+/e1qkbLQSic+d7bubsvd2iOQkn4z93741eqL/SQFVQV/ClGhiK3Hvvve7XwMVUekAA27Up5i46P3bB/b/f09zosWnuw2WxXYzRAEemQohUQzXdJKBXr17uiSee8D+LjurVCruZEz13TPXEvnzfbNzfGqneWLjTohA6hIML5nGJ4oP1fsk8B8tbOpmfX05zROnSts2pfIUKId2eftu50/Xr1889NnKkZS7q1i7sxj2V7urUjr1XYO4bae7K7p779rvYrgDpZWAVpBCphkQ3CcBFCXFjxjQW2lxQ2I140HPlyibuJdyxM9317uvc8y8yN+sfFPkO5qlHPfmkO7NJk39dgEyeNMl179HDOsUPOCDNPflwUde5Q+xR7sefprm2V6a5NV/FJtaMlZExYRWhEKmG0stJALOKGETEGp1Nm/WX63NHutv+U+KiuhLF97iundPcCXXVoJSfwVLz5YC4MqqVkfXr1rkBd99tggs9uu7nLm0T+0Xb4vfT3eXXYoYRm+DyHm/fvr2954VIRRTpJgG8BFz5s9h+7dq1/tHoKFIkzXW7Mt0Nvsu5gw9KzEu5Z0+a+/a7QAT+ebGAoO/yjzr32fL0QHTjuQ5t01zhQgqDk5FVqwu7gUP2vmZ0x+NPHZxZZo66ZYsW7s0FC+zzpo2LuOkveq544EIrFhYtSXe9b3Vu2Sexp6MZE3ruuefcmWee6R8RIrWQ6CYJLBOgqSoWs4wgRYumuQ6XFnYP3rPHlT48Z15OhPjm/xR1rc7d5c5u4h8UScfmTfu78rX2zn3j4IV5CKK7e/efbujQYa5///72/ipfrpCbMiHdnXxibA1Qn36e5q7qmeaWfRrdvtyMYHZy7bXX2hIMOYaJVEXp5SSBEyNm/UQCsfLHH557/oXdrs8dae79D3KmgWjnzkKu8Wm/u6YKUJKaUK8+IrvgzQVuzJjR9u8DS6S7G3oUcnWOjf7ijib2OfPTXKdu8Qku4IfdvXt3Ca5IaSS6SUTt2rXdbbfdFtd+UU6CEyf/5br1dm7ilPRA5OzfkCAOPHC3u/A8Fo77B0RykuH1oTOZ9wU2mg89/LBbv36DHT+rcSF3eYc9rlix6IRz67Y099Bj6YEI17nPV+yOS3B5T7PaMdnczYTIbSS6SUaXLl3MBzceOBl+vuIvd90te9w9DxRyu/4ux4oU4ZBD/q6z4mHNe4IuZnYc741yC7mhg4q4ww+LLsrF+KLXzWnunvv/clu+jc8YheYpBLdjx47+ESFSF9V0kxA269Dhyf/jfXk40ZUvV9jdN8BzZ5/puVIlPReDB4fIx5Q7urDb8t0fgegyzZ1yyiluyZL37H1U/IA0999nirsLWmadBvnjT+e+/yHNTf9funtguOc2b469YSoIxi9snJo6daotvBAi1Sl0dwD/3yJJ4OSEvzAL3oMr7uLhl1/2uFdf99x7H6S5H7amBU68aTaXqQU8BRuEbtHiPW7XH57tGYb9909zPbsVDXzsClsiYLrok8/S3YtT0lz/e9Pc8y/8Ze+heOHCr27dum748OE2IhTrSJwQBRFFukkKYvvggw+6+++/PyF+x4ULp7lKFdNcxQpp7sS66a5Bfc/VPDrwcYxe/oLGL7+mu7ET0t2z49Pc8i/+CLzuhd3lHdLdNV3+ckce8beI/vSzcxs3cZ90t2oNgrvHrV7juTVrPbdrV/bfF3iLP/PMM7Y3WYsphNiLRDeJYe1az5497cSVyJeJPi3me4sUSXdFCqe7ypU8V/bIvc0uRCM4XFUsv/d+EIxQih/gueOOjb+ulxfE+32T6c8i0nPh5o2b092mwMfez73AhdreyHVDIND9ZlPgdS7iufS0PXbb5m+d+3pdmtuzx3O7d+8JfAT+/9fer0kURNvjx4+3bVCKcIX4G4luPoBRIk5gLIXPL0Rzok3UyTjjWzg/nuBj+RNM9j9Xfv+sqxw8eHDcDYFCFGQkuvmAX3/91RbeP/zww27Lli3+USGSD2ZxKYm0aNFCKWUhQiDRzSfs3LnTzZ8/3/Xo0cNt3rzZPypEckCEywwupRCap7QnV4jQSHTzGRjVd+rUyc2dO9fmLoXIa+gFYAaXEogQImtkjpHPKFWqlBnG41zFInAh8gqi2+rVq7sRI0a40aNH+0eFEFmhSDefwsaYOXPmuHHjxrnZs2eb+5AQuQX+yRi4XHXVVa5hw4bWrSyEiIxEN5/z/fffu1mzZlm36Ndff+0fFSJnILrFI7xfv36uefPmZuIihIgeiW4BYfv27e7ee++11YAYayTCUEOIIDRGFS9e3PXt29f16tVLYitEnEh0CxgrVqxwzz77rHvnnXfcF198YeNGeolFPBDVHn744daV3KRJE0snV61a1b9VCBEPEt0CCE5W69atcx999JH77LPP3Pvvv2//xlxDL7cIByIbFNr69eu7Ro0auVq1arnjjz/eDC/iWTkphPgnEt0CDg1WRLuknImCZ86c6VavXm0CvHLlyn0izP8zvhXC/Rsyf54IEvmYCEc0BL9nxvtn9Tyifdy8IONzy/w8Q93G//koVKiQiSrpYpYStG3b1lWoUMEdeOCB7qCDDlKDlBAJRqIrsuSnn36yqJnoORzZeQvxtWzCoTFn1apV/tHYQUBq1KjhunXrFrcT0jfffOOGDRsWsh5+9NFHu+uvv/4fAhaKI4880kQrJ4n0HKBEiRKucuXK1mUshEgeJLoiz0DcSHvfcMMNbsmSJXGLNyKEKGKTif1gNKIUChy/zj333JCiy3z0xx9/7MqXL+8fEUKI2FGRRuQJuGlRa8bkIzuCCxUrVnT9+/e3Zp94BRd2794d9nnQHf7222/7nwkhRHxIdEWeQF35jjvucAsXLsyW4FKLHDp0qNUi999/f/9ofBQrVixssxAXCQsWLJD1phAiW0h0Ra6CaK1Zs8b2BL/11ltxzxMjjqSUX3jhBXfJJZckZKMNc6hZdeguXbpUzl9CiGwh0RW5BhEtddGuXbta1BgvdNw2aNDAPH+pwWYnpZyRSKK7YcOGfLXTWAiRfEh0Ra6A4C5fvtzdeeedbtGiRXGnlBHYxo0bW5dx06ZNTYATBR2/WYkuftd0cgshRLxIdEWu8MMPP5hNJUsaspNSbtmypZswYYJFuone2XrIIYdkOZfK85a/tRAiO0h0RY7DUgbmcKdOnRq34GLUQFoab2lWGiYqpZwRIt2sasN0N3/11VfZavwSQqQ2El2Ro2zevNkNGDDAVhDGK7hEoJjs33333WZRmFMQSePEFA6awDZt2pSlUYgQQmSFRFfkGDQdYVjx/PPPxy1URLgDBw607TZly5b1j+YcWW3PIcIlTU5tVwgh4kGiK3IERJba6+jRo91vv/3mH42NkiVLupEjR1qUe+ihh/pHcxZEPhyILiYZeFkLIUQ8SHRFwqH2OWXKFHf//ffHJVDUa1khR4cyphc5Ub8NB6nsrMCLetu2bf5nQggRGxJdkVAQXDYZ3Xrrre7bb7/1j8ZGpUqV3KBBg1y7du3MJSo3wWM5K37++WeJrhAibiS6ImEErRLpVGZjTzywGYeUdJs2bdwBBxzgH809IjVqEbmTYhZCiHiQ6IqEwWo+mp7iWdEXTCkjuGeffXZCbB3jIZLo7ty50xrENDYkhIgHia5ICMzi3nfffW7x4sVxCVLNmjXdkCFDzG0qLznssMOyrCHTIEbaXGNDQoh4kOiKbEPKFbepyZMnxyVGrOaj6apVq1YJd5mKlUiuVKTQmT3+448//CNCCBE9El2RLdi688gjj7inn346rvlVlsIzx4u9Y243TYUCc4z99tvP/+zfEMVv2bJFka4QIi4kuiJuEJ5JkybZLG2sK+9I4R511FHu0UcfdWeccUaW0WVuguhG2stLpCuDDCFEPEh0Rdy8++67tkAel6ZYIcJl41Dz5s1zdQ43EnRMR+qapqa7Y8cO/zMhhIgeia6Ii40bN5oXMuv6Ym2cYrEAY0Xt27ePGFXmNqSWIxlkMKervbpCiHiQ6IqYoXEKa8aFCxfGvMQAkaVpqkuXLrY0PtlAdLGfzArGhuKdQxZCpDYSXRETpFUZ7Zk1a5Z18sYCvsYsLrj22mvzbA43EtGILnzxxRf+v4QQInokuiJqGJPBU/nZZ5+NOaVMhHvllVe6Hj165PlYUFbQQY3oRqozf/755/6/hBAieiS6Imo+/PBD99BDD9nITKy0bt3aotwjjjjCP5KcEIFHK7qxRvpCCCHRFVGB0T9LDBCbWKPc0047zY0YMcI6lpOpUzkUjC4hupGiccaGtm7d6n8mhBDRIdEVEWGd3W233ebeeeedmAS3UKFC7pRTTnFjxoxxpUuX9o8mN+np6ea/HKmrmtr2mjVr/M+SG5rduGjasGGDdZtTj6YRjIYwRetC5C5pgZNo7Ea5ImVgAf1TTz3l+vfvH9MyeiLa4447zpquWGCAAOcXXnnlFdetW7eIafRRo0ZZU1iygqB+9dVX7u2333bvv/++W716tY06cWGBx3Tt2rXNmIRMBCsNkz0LIURBQKIrwsJJe86cOa53794xR3WHHnqoe/zxx21FXzLYO8bCe++95y677DITrKy45ppr3JNPPmkilmzgmEXT22OPPWZi+8svv/xjvAuB5UII8UV4b7jhBstK5KeLIyHyI0ovi7AQ6T3wwAMxCy4n7v/85z+ubdu2+U5wASHCwCMSH3/8cVIuPvi///s/y05cf/31dgFBeQBw2ipbtqw78sgjbTSK6+3vvvvOrDzbtWtn/1e6WYicRaIrQhLcHLRo0SL/SHRwYr/uuuvsI79GTUTpfESCZipWGiYTeGBTQ+e1Q2yppV988cU25vXRRx9ZBzr//+CDD+x+3IYQ87N0797dImNeeyFEDkF6WYiMBE7c3rBhw7xANETpIeqPokWLeh06dPA2btzoP1L+JBC9eoHIL+TPmPGjZMmS3rx58/yvynt2797tBcTVK1WqlBe44PEaNWrkBaJXb/v27f49/s2OHTu8qVOnes2aNfOKFCliP9PIkSO93377zb+HECKRKNIV/yDwnnABIXHDhw+PaZMONcITTzzRupyJnPIzjAtVqlTJ/yw8pHHjGaHKCXgOS5Yscffdd581SzVu3Ni2PxHJZuUljRXnBRdc4J544gmr7QYE2sa7Yu1UF0JEh0RX/IO1a9ea4JJujAXSsQMGDHB16tQpEF2wxxxzjP+v8FDPpUkpGeq6iCWNa7x+1apVsx3Hxx9/fFSvBWUAvuaZZ55x5cqVsxo+j8VjCiESi0RX7IO5zdGjR1sdN5Yoh0hq4MCBrlmzZgVm7KRGjRr+v8JDN/C6dev2NSrlFTQ/MRb05ptvWgPYww8/bONascJ+Y2q6XEC9/vrrbvr06Yp2hUgwEl1hcHKdMWOGGzt2rKVNowUTCTYOXXXVVQVq3KRy5cpRbUFCdPN64xBlAF47mrqYL27RooV/S+xw4UQnM485bNgw624WQiQOia4wqE1i8xjLQnpElnpgz549bQSlIEH0Xr16df+z8GzatMlENy8jQmZwqcNTh+a1yM7FD93n7DnmsVauXOkmTpyoaFeIBCLRFRYh0QCFgMRCrVq1XJ8+fVyZMmX8IwUH5otpDIsEdpCffvqp2717t38k98HEg9eQpqnsvhbBhrgzzzzTTD8QXSwkhRCJQaKb4mDtyAwnNcFYOPjggy0yrlevXoGp42aEn6lRo0YRfzbqunQNx2KRmWjIUrCr+NRTT01IxoG6MALOY3799dd2USGESAwS3RSGtCGORc8995w1UUULUSCR8SWXXFKg6riZiVbEli1blme1T15Dvj8uU6SEE3UBdPrpp1szFpE8ZhpKMQuRGCS6KQzR2dChQ23sJdqTKinHSy+91NLKBa2Om5kqVapEtf+X1O5bb73lf5a70PTGTC1NX9FYV0bLgQce6C688EJzuCLazcv0uRAFCYluisJsKQvp586dG7XgEkWRTiatXNAFF9ity6xrJPj9jR8/Plfmdfle1Fhpclq6dKl79NFHbVXfn3/+aR+JhEwGWY1t27blafpciIKERDcFYa5z9uzZJroZN89EAh9fNg5FM8NaEOAig8070WwRwtOYBQg5Ca8Vqd7gMonzzz/fDEl4PdevX2+lgkRGpBUqVHBVq1a1i4lY3idCiPBIdFOQL7/80gSXUZNoQYAuv/xyGxHCJjEV4Gc+9thjo5rXJRKcMGFCjqVhEdbFixdbWh8Dk88++8zqyMHommiUjVBkLhIJu3Z5vQty7V6I3ESim2JQAxw3bpylJmOBTl4W2VPrSyVwaSLii4bXXnvN6p85AbPAbA4KeiKfdNJJZkiCmQWvCcdWrVplM7aJFF4en1WHzO8KIbKPRDfF4KT9wgsvWINMNBDtHX300WaIzwhJqkFXcM2aNe33EAnmnKdNm5bw2i7RM9EtzVo8Fy6aiHrxSkZgeU2vuOIKM/RgLR8GGdR5EwFWkFxMLFy4MOravxAiPBLdFILtM6SVN2zY4B+JTKlSpdxNN91kJ/tUBCHDBCSalDpZhJkzZ9rSgURCvZjdt1hTssjgsssu+8fzYckEryuZCDY8bdmyxc2fP9+/NXsELSEHDx5sKWwhRPaQ6KYINMIMGTLEvfHGG1FHLHTvtmrVyrVp08b+nYogbjg0YQYSCX6vNDpNnjw5YY1HRM3UaolgSR0zPxsKLo6IcKkr83qRFk8ETZs2dVdffbUZgODFnBsd2kIUaAInCpECvP76616xYsVQ26g/qlat6n366af+I6Qu69ev94477riQv6NQH6VLl/aWLVvmf3X24HH2228/r0aNGnn2WmzYsME766yzvMCFlxe4cLMl/0KI+FCkmwJs3LjR1r1FW8cFmnPuuusu695NddgxW79+ff+zyGCW0bVrV6urBv7G/KPxwYo9oksiXNLceQGNZF26dHFFixa19DYpdJllCBEfEt0CDkI7ZcoU9+677/pHIkMqGdFgFjSaGdWCDuMyeBHHMjaDNePtt99uvsiM+8QDr13Q9xgXsLwc22Em+IwzznDffvutGzlypI2dCSFiR2fUAs6aNWusyzWWmdyGDRu6G2+8MSVcp6KFkalYmsmIcOn67du3rwlnPBEvftisWixZsuQ/ark8Fnt8P/jgA6v15gbUtGnWIgPCBdyLL74Y98WEEKmMRLcAQwrwscces2gr2pM+rlPXX3991LOpqQJiw1hOLJE/aeE5c+aYneJLL71kFz6xNFghuogqM7l8XdDUhBEulhEQeeIOxsKKRFtAhoL09i233GLPZdSoUbZSUAgRI4GTsSiABE6M3pQpU7wSJUrsa/CJ9FGkSBGvZ8+e3rZt2/xHERkJRJde5cqVQ/7uIn0ccMAB3oUXXuiNHz/eW7lypRcQYC9wUeQ/8r8JiK03duxYr0yZMl758uW9Nm3aeOXKlfMCov+vxz7ooIO8MWPG5EqD05o1a7z69et7aWlpXufOnb3ff//dv0UIEQ1p/CfwhysKGKSVibA++eQT/0hkiJ5IG6p5KjRErqw0ZMlAPKlVouRDDz3UVa9e3WZra9eubVErBhykkLmdZQa8dhhhBGd+I30vjDtOPvlk24uc068dEfXjjz/u7rzzTsuezJs3zzVo0MC/VQgRCYluAYQGHIzw6ViONu3INpmJEyeat7Kap0LDn8qCBQusk5cFA9mBZjW6gamb8/+g2QUlAcwoSC0j8tHC44wYMcJmanP69SPN3bFjR6spMxtMR3M05iFCCNV0CxwIA9tmsCOMVnDpig0uM5DghoeIEqMMDCOy20mMuLIkAZcwOoLxVuYDN6nt27fHbEKBUGMHiVjnNETqmKbw++B75pTftBAFEZ1hCxg06+CtHK0VISdOdsbSrSzBjQz+09gwMrubbNB0lSgnrEhgD8nSfC4UuMhTwkyI6NBZtoCBEf7UqVOjNi/AW5iZ3GrVqvlHRFZwkXLqqae6Tp062b+TBS6YjjnmmFwb8yLaZQMRF3lsrMqNCFuIgoBEtwCB4f7AgQNttjMaEA3mP2m4oq4oogNhY/4W8U0WmKPFNSu3RJeaNPVjIlyW92sZghDRIdEtIJBWpHsVY/pooWOWtPLhhx/uHxHRQoZg+PDhliHI64iXKPfMM8+0hfO5CbVturGZ12WhvhAiMhLdAsLq1att5220oyw0AnXv3t2clkR81K1b1/Xr1y/P67sIH8YdGJvkJmRHaCzDa1rNVEJEh0S3AEDn6n//+9+YHIKYrSTKVVo5fvjdsUavT58+5liVFzCqg0vVueee6x/JXRBd+ge46BNCREaiWwBYsWKFmzFjRtRbhEiNYsZ/2GGH+UdEvNDNfN1117lBgwblWj01CBEus9WMe+X29w5CQxVg6CGEiIxEN5+D0DKTu2rVKv9I1tAAQ3SWTE1A+R0i3l69erknn3zSliLwO85JqCFXqVLFPfjgg/vmZcNBuSEnlyLQwMXPv3nzZv+IECIrJLr5HFLKWDdGa4Rx1FFH2bgLUZJIHNTIcWnCIhKTkf3339+/JbHwuKwZxIqRCBcnsXDQXDd9+nRb7ZhT0IRHinvr1q3+ESFEVkh08zGMa9A8FUsTy0UXXWSr+5JpxrSgQMTXpEkTs2NEfDEdSeQO3DJlylj9FsGlhhtJcEk9U7dnmX5OwXMgstecrhDRIdHNx7DMgLVu0XYs02WrPbk5CyJbvnx5m2F99dVXzf+aZiPEidu42Al3wRO8jfsh4KVKlbLZ26uuusoeAyGlhkqXclYXTZQcJkyY4G6++WZzjGKpQk7B82BkKTdWCwpRENDCg3wKRhjUEceOHesfyZoDDjjAPfXUU2ZhmNUJWyQW/rxIvbLIftGiRdbli78y24QQR25HZLkQYm76iCOOsHotW4hwmGIDEY1vLMTHOYzbsfkMtVCfx0Jkn376aYuG8XWuXLmyuZTxdTkBFpAtWrSw565mKiEiI9GNAFEkV/GMRfDBr4t0GidKrvCpZ+WFZ/Hbb7/tOnfuHNW2G0SW5qnx48fnWK1RRIb3EmlYBJdlB1w4cYz3EK8LF0Z0Q/P/zBdGP/30k+vfv78J6imnnGLGHKSvg++9HTt2uNmzZ5tByvz58+29yuNQfmCGN6fAjAXRJbr/7LPP/KNCiHBIdMPASWv58uXu9ddftyiFCAKfWUB0iT5I15K6q1WrljvppJMsmsjpzlXghH3XXXdZ3TCatB7Pk5PxOeec4x8R+Q3+TLFbvPLKK03cTjjhBCsV4ES1bNky9/zzz7uFCxdaVB38k6axa9SoUTk6Q0wUTX2ZyJyNQ0KICCC64m9+//13b+nSpd5ll13mBYTVC0QSnMGy/ChatKhXunRp76KLLvJefPFF7/vvv/f++OMP/xETT+Ak69WuXTvkc8n8EYjIvauvvtoLREr+V4v8SiAq9mbOnOkddthh9r4MRMheQFC9wIWevdaB6NgLRMx2vFixYt4LL7xgX5OTzJgxw9tvv/28Nm3a+EeEEFmhRqoMEM0OGzbMXXrppebwREqP9B/Q2ELEwKgNH8wnstqM1CC7T7HCY16Wulvz5s1tZpPUb/DrEwXNNHPmzInaAYi0X/v27S1tKfI3pJyZy6Ur+bzzzrPMSuBv2OrBZcuWta0/NG6RdeH1Zpwnp+v3RNa8/5Nx1aEQyYjSyz7Mu+KjS8dpMI1MxyndoieffLI77rjj7MTGMU5kiCl1NISVBhLSbOvWrdu3fBxRRnypwx177LEJO/lhLH/22We7zz//3D+SNbglYaJAfU8UDPiT3bRpk70Hghd2FStWtPdZhQoV7H3H+5kO5pw2QWGrFaUOxB47TCFEBBDdVCcQNXr169e3VCy/Ev5ft25dS89t3rzZ+/XXX70///zzX6k6Pt+1a5fdHoiSvXHjxnknnnjivpQ0ab/ASc9bu3ZtQtJ8PEYgEo8q5c3HkUce6QVOvv5Xi4IG7wfel5nfm4GLMq9KlSreu+++6x/JOVq3bm1/L9OmTfOPCCGyIqUjXX70DRs2uN69e7tZs2ZZNEqajCt2xnFIKccKTU6jR492jzzyiNu4caOlg4mSGfOg4SrYbZqZwEnTrPTmzp1rae7ixYtb+pD0MGMjRKp0uxLlEuVEgrT3Aw88YD9LTqcYRXJBmpkomPccZh05Be9ZVhsGrUiZKRZCRADRTVV+/vlnr2/fvl5A0CwybNSokTdnzpyENEERZZx33nnW0BIQPa9ly5beihUrwka8X375pTWj0JRCJEv0wNcGxNcLiK9Xp04dr169evZYPNdIH/wsNHSJ1KN58+ZeyZIlvddee80/kjMEhN2atho2bGjZHCFEZFK2kSrws9s8I6MWRJBYI44cOdIiSaLE7MLqPGYpmY/le73xxhsW/W7bts2/x9+wmg//ZAwQgMgW16GA8NpcJ3VcxpY++OADe6xIUE/u0qWLGRaI1IOsCNFnNONk2WHy5MmWycHEQ17eQkRHyoouzVIDBgwwQatRo4abNGnSP8wGsgspXVJvdDEzH4uwYk5BGi6zcP7www+WCqTbFHN6vHIRWYT67rvvNs/daJ8X3xfB53si2iL1YGVj0Mwlp6CMMm7cOGssZJm/uuOFiI6UFF2uzolqqXsRVVL7pDM5I3QmMwZEzffLL7+01Xl0KVOnRSSJjqOBqJPxI1yEEF6EHjODjMK7dOlSW1pApzFiyQmMEydfw/0/+ugj64LGiCOS+PK17dq10whHCkMHM4JLNz3v9ZwAIw46p+k7wKgjURerQhR0UvIvBRHFoYk0MjOsuPoQIdIYwomEUQvGhzCtR8BatmxpVnesbMPlp3v37u7ee++1tWkIc6SUL8b1RKyVKlUy391bbrnFRjqC4DDESZITWKjolAsDxJdUON7JNFmFgzQ5M5w6CaYuQV/mtWvX5ki0ywXnSy+9ZH8vZIlq167t3yKEiETKnZm58kcs6QCmM5jaZzA1huXjNddc4wYPHmzpXYSYelXr1q1d48aN7eRCRzOi/cwzz7gePXrY1wdrseHgcc444wwz3SAdh10es7MIMIJN1zInMC4EiE5CgYgGPXe5IMCGMjPU8tgsQ5papC5kRMiwYBuZE3VdMi8sb+B9ff7556ueK0QsBE76KUVAbL1zzjnHOnxvuOEG/6jnBaJN6/h97LHHvB9++MG6jMN9BITb+/rrr73HH3/cC4iydRnfeeed3o4dO/xHCw0dyoHIwL43X4M94+LFi73ASdKO8cEcbiQCkYZ3zz33mOVf8Ov4uOKKK7xAZOPfS6Qq3377rc2H0/keuIjzjyaGnTt3ejfddJN12DMHrg55IWIjpUQXwQxEs95RRx3llShRwkZ4gmBy8dtvv/mfhQZf5lWrVnmBKNg/4nkbNmww8a5QoYIXiHq99evX+7eEZtCgQfvGfvg/z4P/Myp0wgkn7HtO+D+PGDHCW7JkiZ3oMvPLL7+YaHPy47EC0a0XiED8W0Uqw/v49ttvt7Gzu+++2973iWLBggVexYoVbVRo5MiRCX1sIVKBlEovk1ombUxaF9OAjDtJSRtntfaOhirWpI0ZM8b9+uuv/tG9TSv4Nd93332WziP1S6NVOKgTB0Tf/8xZHZe0MzVfUtaks4HaLh7LpK8feughF4he7HgQfKCx3yPlDDz/rGq9InXAi5lyBl3vdM8HLuT8W7LH9u3bXeCi0cxbTjvtNO1mFiIefPFNCYgO2R5EZDlx4kT/aNaQyh0/frwXEDf7WqJc0suZwVBj+vTplm6+5JJLskw1DxkyxJ4DH88++6ylszMbcpAmJop+5ZVXvOOPP97r1q2b99133/m3/s3ChQu9gw8+2CwnR40a5R8Vqc7WrVu9iy++2DIhvB+zu2WK6Pnyyy+36Jm08tSpUxXlChEHKSW6iBYr8VjZh1dyViCspIqpk3L/W265JWLNFsaOHWupYmq8ocQZ8HMmHcw1D7XZSLzzzjvmpXvjjTf+q2ZL6rlTp04m4KeffrqlyYUA3NUOPfRQez/269fPPMLjgQtP0tSklIsWLer16dPHLmCFELGTUqJLsxRRIU0m4a78uXrfsmWL9/TTT1uESYTLjtxowXweIa1WrZr36quvhhTeYNSA6PL4kSAK5vmULVvWGr0yPibPlwibHaucXKkFCwFcgPXv39/eF7zvuRCkySoWaJTi/VyqVCmLmlu1amUNgUKI+Egp0WXhNmlYBC9UcxJRJN3EHTt2tAjhqquu8j788MOwHcFc7RNNZE5VE1GQ2iOth4BnBtFERDkZ0mEazYlw+/btXteuXS1CppklI3SoNmnSxET85ptvVtpP7OPHH3+0Bj8iVDzGeV+SOeHiMCt4zy9atMhKKizKJ63ctGlT75NPPtH7S4hskFKiO3z4cEvDDhgwIORSA1LDNWvWtCh10qRJJnThTjAzZ870WrRoYVf+dBhnhhMWjzVlyhT/yD/ha6pXr27Ph0g1GhhTIqK98MILvW3btvlH954gWdzABQXRucY4REZYRoDY8v7g/Va5cmUb+1m+fLl/j7/hgpC+hV69elmXP9EtaWWWcbAmUoIrRPZIKdElCuSkQ4o2GL1yEqHphLGfgw46yISUsaBQUNuicYk5XyJOmps2btzo3/pPqP9Sg23WrFnISJmvO/fccy065QQYLTRelSlTxsQ84wlw8uTJlkIMFQmL1Ib3CYKJcDIfznuOvwOyLLVq1fKuvfZau2hjBI1GQCJibkdw2VbE+zhUxkYIETspJbqklTmRsJweuKpftmyZnYwwrRg8eHDIVC9R8XvvvWcnH6JgloS//PLLNrebFW+99ZYZX8ybN88/8jek93r37m1pOyLXaEHMTz75ZO/KK6+0SDzImjVrvHLlytmJlPnJULVkkbogvLy3mRM/6aST7AKTvwUEOOMHYovoVq1a1WvXrp1d3MXbgCWE+Dcps8SeH5N52JkzZ5q3ctu2bc3/+LbbbjMbu4CIuYCY/WtxPXaRzz33nK3eC5ykbG42IJKucuXK/j3CwyYWHpc1a1OnTv2Xr/JTTz1lto14MrO2b7/99vNvCU/g5OkCkbobMWKE+9///meL8SEQTbt69eq55cuX2+KEIUOGJGRFoShYBC4g3cqVK92SJUvcJ598Yn8DwblzrCMrVqxofsosMTj22GPNNzwgxHa7ECIBILqpAFf6rVu3tvrUSy+9ZMcCQmfNVSyzD8Xbb7/tnXbaaRYV0FwVOFmFrAVnBZ3PRJ+hlny///77XunSpc3hJ5Y6LM+bNCBp8owQmfCStm/fPuzPJASQaaGZkEYr5sQpsfBvMim8xzOWLoQQiSNlHKm4WifyI1L8y193dtJJJ9nmoODCAyBixHHn9ttvd5dccol9ziIC1vPhFhUqegz8Hs2Fiij6iiuucPPmzfNvcbbxB6eogID7R/6mSpUqFknwnIiGo4Uom0hk9uzZ/pG9sI0IAifOqFcPitSkcOHCtiCDLA9rJHkf8m/eq7zHFd0KkTOklA0k4orAIUr8PzM//fSTpZE7dOhgG4f69OljK8zatGnj3+PfsASf+3Tr1s02AJ199tnurLPO8m91rkSJEvb1ixcv/tf35ESHnR4XASzVjxbSgPXr17dtR+zoDRK0sSSFmBPbZYQQQmSPlBLdw/2Vd3jIZhZAlshTX33kkUdsvy51XD6nxhXqqp8ImIiW+il14WrVqlmdlf281H4zctFFF9me3oyezUG4jftHU88NQm2YVYN8DRcQQYi4M/5fCCFEcpFSoouAIkgsL0A0gSiTtHDTpk3dtm3bTGxZPnDcccdZCi4UP//8s+vVq9e+Zqxx48a5+++/39WpUydk+rlBgwb2fRD7zJxzzjmWtia1FwvHH3+8u/XWWy1aDhJMKdMMFu65CyGEyDtSSnSpoSKKbOxBdPlAcKnXEuFOnjw5rNgi1qSSqe/S5Uz6mY1Br7zyikXGocQ2CLUzthGFEl2iVrYLxSq6RMedO3feF4Xz/FatWmWfk0bnewohhEguUkp0Gc1BkBAn6p5Qt25dN2rUKGuoChcd7ty507322muWSh48eLCtTSMiJrplfVokEEKan6gZh4LnlV24kFi9erX9DAh8VmsKhRBC5A0pJbqkYhE46qvff/+9CRTRb7gok7ovc6833HCD69Gjh4kmu3OHDh1qwpt57jYjP/74474aLlEpNd9g13ROwO7drVu3WoRL6lnpZSGESD5SSnQRJOquiOGHH37oHw0N6Vq6ks8//3w3a9Ys95///MdNnz7dGp/CiTSdxK+++qq7+OKLXceOHa3eG4RxnqxEOjsQ5ZIa5+ci8qYjWiMfQgiRfKSU6BYrVsydeOKJ9v8nn3xyXzNVRkglL1q0yMZ87rrrLteyZUubsb3mmmtshjEUiB6jRjRFEREfcsgh5jZFxAnB9HKsddtoIHpmXnfhwoXWzczzLF++vH+rEEKIZCKlRJdIs3bt2q5cuXJu6dKlNjubEWZlR48e7fr27WsC+fjjj7sHHnjAHX300f49/gndwsGxoZ49e9rjc/8nnnjCHXXUUf699sJsbTT131jBanLixIk2l4sxR5cuXRTlCiFEkpJSoosY1axZ0/yKESlENaMTFAJ24IEHmsnFww8/bJEr5hah4L7cB1MMUsrXXnutGzt2rPk7E0lnhsfF+SfRcJGAbzMezwMGDLAoWwghRHKSMgsPgvDjIpb9+/d3JUuWtCjx9NNP92+NDM1VNGIxp/vGG29Y5EwqGUvJ3IamLow5mjVrZuLLHLIQQojkJaUiXSDabd26tQkUc7cYW4Qb5ckMc7bjx493rVq1citWrDCbSLYHUSfODOLMWFLwmobPMeWgazoRsP2IMSZ+lkcffVSCK4QQ+YBCd2O/lGKQgqXTmHoswkvDEyM9WdVCaZZiRpcGLJYN3HPPPa5Tp06WMs78dWvWrDFxXrdunT0uxhmILs1OzAQDxzPbRcYCph44YyG4zOUKIYRIflIu0gXEDjcpItTNmzdbmpau5XBgOkE3M/trabKiUYqUbmbXJ+ZkaaSi45n7Uj8OeirTZMXX4HjF3C+d0czyxgN1aEaeiKQz2kAKIYRIblJSdIF67h133GGNUgsWLLAINLN5BZ/Pnz/ftWvXzpyspk2bZp3KwcUJQehixhaSVC+iywagl19+2UQ9YzSLSPfu3du+FyNGfH9WAsYKES5RdOaF+0IIIZKblBVdwDOZnbm4N5Flx0eZNHCQzz//3E2aNMmEltotUWpG6ID+5JNPXL9+/cwMA5Fm0xBeyoh6OIh4ud8777xjXxvLWj9gMQP14dKlS/tHhBBC5AdSsqYbhNQvwvXee++5jRs32n7aevXqubJly9rtiCqfsx838xgQNWHqtozpvPnmmzYjS0c024oiRaDUgJnjJeVMjZj7N2zYMOoaL97RLF7ALYvlC0IIIfIHKR3pIn6kgqmxInwff/yxGzhwoNV5AWcn1u5ltm8k0mQul327CCX2kDRZsTwhWs9jBJ/ZWsaVmBf+9NNP/Vuyhm5oOqCxfEzEogQhhBC5R0qLLiCSl112mYko/6YBiuCfMaLMXck0LmEJSTTLggFEE8Fl+UHmrT6II8LIwgTqvM8//7zVYjNCPXnIkCH2uMwLBzcfZQWPy7gS3y8YkQshhMgfpLzoAqljIlzEl/EenKWIfulaDs7Zkk4OHicCHjNmjHvwwQdDWjtyX5qzMK6gZvzuu+/a/UK5W1WvXt11797dxDzjgoRwUHOmjozg0twlhBAi/yDR9cEbmaYmNgSRTmaxPZ3GzNbSncw8LDt0WRxPHZZ6anAcKAiCSIr6pptussiZxQmINPeneSpzmjoIYs/3+Oyzz/aJfDj4HtyvatWqZi0phBAi/5ByNpBZwa8CpydqtXQtA13IRLaI8siRI823OZR4MjuLUN97771mpHHhhRfav6MxwcDHOdjFTH03s5hn5Ouvv7Y6M25YpMG1rF4IIfIPinQzQA0XgcVL+dZbb7V5XAwsEFEsFxkZyiy4pJJJ9xKt3nLLLZb2ZUaXGi3biaLpSEY4qQt/8cUXVgfOCtb4kQ5HzEMtVhBCCJG8SHRDgE0kNo+MADFStGPHjn+5RxEVf/PNN5Z2JiW9du1aW3SP6cUFF1zg3ys0uF8xpjRhwgT31ltvmdgj6DRyRepiZqMR1pPZtZEUQgiR++isHQaiSAwvsHQkmp01a5Z/y17Yx0vd9umnn7Yol8UJ119//b/26AZBpJkFJn3cvn17W3aP8AYX2/N11GnZXBQORoVoyjryyCNNdIUQQuQvJLpZQD23RYsWFvmScg7y0ksv2XFSzdR+qa0SqYZL91KzRWxJIdOctXLlSouK8XyuU6eO3YeuaWaGMdoIB37LjDKRtpYblRBC5D8kullA2peNQtR2SR8z1jN37lzzYGbpAeKLIUbmeV7AEhKrRiLhU0891RqljjjiCPfQQw+ZeDJKlFmk2cnL14Sq6xIpk1pG6DHUkO+yEELkPyS6EShXrpztqiVaxTiDuVoElyUImbcMBcEEAzOMbt262VYiUsiDBg2yY6Sgw83XVqlSxUQ11LwuqWVS2sWLFzcRDyX0QgghkhuJbgQY32nQoIHbvXu3RbpEsOGWGXAbXc6MCyG2CCUpZDyaqeEi2KHGjYLwuKSyiXYz89FHH9lxIm8eRwghRP5DohsBIkrqt3QWs3WIRqaMm4iA1C+7dFl+wOIDGqbofqY+27VrVxtDyuzJzNdg+0gnM2INdCNTr12/fr19HoTFC4sXL7Y1gEHXLCGEEPkPiW4UULdlmw+1VuZkM67io7MZH2ZSyUSjLKdHIHv16mVRayj4+nnz5lk0jH9zcMECUD/O7NHMnDDuVowKnXfeef5RIYQQ+Q2JbhRgXtGzZ0+LMGmkwuoRiHjxWCb6ZQyIDmfSyIhjKIhYGQnCGpKP7777zt14442uQoUK/j32LmDIDLaPCDpWkupaFkKI/ItEN0qaN29u3cXbt293Q4cOtWOkntmDS8Tatm1bE89whhWknzHbuPzyy63ui4hjK0lTVEbwYM7cmUwDFoJ90UUXyRBDCCHyMTqDRwkdyJhlEPUimqSZAU9mFg+E6yYm/UxquHXr1raZCJHGFOO6666ziDjj11HnZW0fHdNBiHAZUWKel1lgIYQQ+ReJbpTQdUy0Sycz4kjTFMsHwkHqed26dbZLt0OHDibabBsiamUEKRQ0StFEVapUKfsc+8k77rjDhJkdvtqfK4QQ+RuJbgxUrlzZ0sM0SOGR/Mgjj1i6ORR0OrNPl0iVvbujRo0yQ4zMW4EYRQpCrZj0MnaQiDbmG9SMEdtzzjkny+1DQgghkh+JbgzQ5HTppZfaCBHjPvgtT5kyZd/IT0ZomCLCZfE9RhqMDWWc0SUKvvPOO92QIUP8I86tWrXK7ofokmbGhIPvg31kvXr1wqawhRBC5A+0TzcOMKmgRstKP+qyzzzzjKWeo5mfJWXM/Uk1U6cdMWKEK1OmjN1GZzRuVSwzIK2MYPM5NWR8mYUQQuRvFOnGATXZ4cOHuxo1alhX8tVXX2212szztaFgWxGC26lTJ1sLGBRcIIXMgnr8mVmIj4izUJ+uaSGEEPmfQnezIkfEDHVWjCyo2W7atMlmdTHPwFEqnCkGMPJDVNymTZt9a/2AGi5L7IlwSVtT62X2F7ONcB7PQggh8hdKL2cDZmdZRE80SkMVNVuWFuBG1blz57AezZmha5nIllQzqWtqtzhPEU3TvCWEEKJgINHNJjRRzZw50w0cONAiVeZygUXzTZo0MfMLol9qv0G3KaJY9uLSOMUSBTyasXpEbImSqRcT4UpwhRCiYCHRTQD8CrFqJOpFgFevXm3HEFHSyUTAjArxwTGEmVWBiG+w85mVfTRL0fHMaFHG1LMQQoiCgUQ3QfBrpKa7fPlyW4AQFF+2CIUDASYCZpkCNd7GjRu7SpUqhfRfFkIIkf+R6OYQdDIjwFhAvv/++9ZstWvXLhNaolo6nxs1amTRLSNCElohhCj4SHRzCZquMLog3cxCg6yW2QshhCiYSHSFEEKIXELmGEIIIUQuIdEVQgghcgmJrhBCCJFLSHSFEEKIXMG5/weo6ljlQIPCAQAAAABJRU5ErkJggg==;" parent="1" vertex="1">
          <mxGeometry x="75.98" y="184" width="214.02" height="236" as="geometry" />
        </mxCell>
        <mxCell id="2TpxmuqHMShW1TZFTz-Z-8" style="edgeStyle=orthogonalEdgeStyle;rounded=0;orthogonalLoop=1;jettySize=auto;html=1;entryX=0;entryY=0.5;entryDx=0;entryDy=0;" parent="1" target="2TpxmuqHMShW1TZFTz-Z-7" edge="1">
          <mxGeometry relative="1" as="geometry">
            <mxPoint x="182" y="869" as="sourcePoint" />
          </mxGeometry>
        </mxCell>
        <mxCell id="2TpxmuqHMShW1TZFTz-Z-4" value="Telegram User" style="shape=umlActor;verticalLabelPosition=bottom;verticalAlign=top;html=1;outlineConnect=0;" parent="1" vertex="1">
          <mxGeometry x="122" y="839" width="30" height="60" as="geometry" />
        </mxCell>
        <mxCell id="2TpxmuqHMShW1TZFTz-Z-10" style="edgeStyle=orthogonalEdgeStyle;rounded=0;orthogonalLoop=1;jettySize=auto;html=1;exitX=0.5;exitY=1;exitDx=0;exitDy=0;" parent="1" source="2TpxmuqHMShW1TZFTz-Z-7" edge="1">
          <mxGeometry relative="1" as="geometry">
            <mxPoint x="182" y="879" as="targetPoint" />
          </mxGeometry>
        </mxCell>
        <mxCell id="2TpxmuqHMShW1TZFTz-Z-7" value="complete&lt;br&gt;Introduction" style="rounded=0;whiteSpace=wrap;html=1;" parent="1" vertex="1">
          <mxGeometry x="402" y="839" width="120" height="60" as="geometry" />
        </mxCell>
        <mxCell id="2TpxmuqHMShW1TZFTz-Z-9" value="/start" style="text;html=1;strokeColor=none;fillColor=none;align=center;verticalAlign=middle;whiteSpace=wrap;rounded=0;" parent="1" vertex="1">
          <mxGeometry x="232" y="839" width="60" height="30" as="geometry" />
        </mxCell>
        <mxCell id="2TpxmuqHMShW1TZFTz-Z-11" style="edgeStyle=orthogonalEdgeStyle;rounded=0;orthogonalLoop=1;jettySize=auto;html=1;entryX=0;entryY=0.5;entryDx=0;entryDy=0;" parent="1" target="2TpxmuqHMShW1TZFTz-Z-14" edge="1">
          <mxGeometry relative="1" as="geometry">
            <mxPoint x="182" y="1009" as="sourcePoint" />
          </mxGeometry>
        </mxCell>
        <mxCell id="2TpxmuqHMShW1TZFTz-Z-12" value="Telegram User" style="shape=umlActor;verticalLabelPosition=bottom;verticalAlign=top;html=1;outlineConnect=0;" parent="1" vertex="1">
          <mxGeometry x="122" y="979" width="30" height="60" as="geometry" />
        </mxCell>
        <mxCell id="2TpxmuqHMShW1TZFTz-Z-13" style="edgeStyle=orthogonalEdgeStyle;rounded=0;orthogonalLoop=1;jettySize=auto;html=1;exitX=0.5;exitY=1;exitDx=0;exitDy=0;" parent="1" source="2TpxmuqHMShW1TZFTz-Z-14" edge="1">
          <mxGeometry relative="1" as="geometry">
            <mxPoint x="182" y="1019" as="targetPoint" />
          </mxGeometry>
        </mxCell>
        <mxCell id="2TpxmuqHMShW1TZFTz-Z-14" value="introduction&lt;br&gt;donate" style="rounded=0;whiteSpace=wrap;html=1;" parent="1" vertex="1">
          <mxGeometry x="402" y="979" width="120" height="60" as="geometry" />
        </mxCell>
        <mxCell id="2TpxmuqHMShW1TZFTz-Z-15" value="/donate" style="text;html=1;strokeColor=none;fillColor=none;align=center;verticalAlign=middle;whiteSpace=wrap;rounded=0;" parent="1" vertex="1">
          <mxGeometry x="232" y="979" width="60" height="30" as="geometry" />
        </mxCell>
        <mxCell id="2TpxmuqHMShW1TZFTz-Z-16" style="edgeStyle=orthogonalEdgeStyle;rounded=0;orthogonalLoop=1;jettySize=auto;html=1;entryX=0;entryY=0.5;entryDx=0;entryDy=0;" parent="1" target="2TpxmuqHMShW1TZFTz-Z-19" edge="1">
          <mxGeometry relative="1" as="geometry">
            <mxPoint x="182" y="1139" as="sourcePoint" />
          </mxGeometry>
        </mxCell>
        <mxCell id="2TpxmuqHMShW1TZFTz-Z-17" value="Telegram User" style="shape=umlActor;verticalLabelPosition=bottom;verticalAlign=top;html=1;outlineConnect=0;" parent="1" vertex="1">
          <mxGeometry x="122" y="1109" width="30" height="60" as="geometry" />
        </mxCell>
        <mxCell id="2TpxmuqHMShW1TZFTz-Z-18" style="edgeStyle=orthogonalEdgeStyle;rounded=0;orthogonalLoop=1;jettySize=auto;html=1;exitX=0.5;exitY=1;exitDx=0;exitDy=0;" parent="1" source="2TpxmuqHMShW1TZFTz-Z-19" edge="1">
          <mxGeometry relative="1" as="geometry">
            <mxPoint x="182" y="1149" as="targetPoint" />
          </mxGeometry>
        </mxCell>
        <mxCell id="2TpxmuqHMShW1TZFTz-Z-19" value="introduction&lt;br&gt;faucet" style="rounded=0;whiteSpace=wrap;html=1;" parent="1" vertex="1">
          <mxGeometry x="402" y="1109" width="120" height="60" as="geometry" />
        </mxCell>
        <mxCell id="2TpxmuqHMShW1TZFTz-Z-20" value="/faucet" style="text;html=1;strokeColor=none;fillColor=none;align=center;verticalAlign=middle;whiteSpace=wrap;rounded=0;" parent="1" vertex="1">
          <mxGeometry x="232" y="1109" width="60" height="30" as="geometry" />
        </mxCell>
        <mxCell id="2TpxmuqHMShW1TZFTz-Z-21" style="edgeStyle=orthogonalEdgeStyle;rounded=0;orthogonalLoop=1;jettySize=auto;html=1;entryX=0;entryY=0.5;entryDx=0;entryDy=0;" parent="1" target="2TpxmuqHMShW1TZFTz-Z-24" edge="1">
          <mxGeometry relative="1" as="geometry">
            <mxPoint x="182" y="1264" as="sourcePoint" />
          </mxGeometry>
        </mxCell>
        <mxCell id="2TpxmuqHMShW1TZFTz-Z-22" value="Telegram User" style="shape=umlActor;verticalLabelPosition=bottom;verticalAlign=top;html=1;outlineConnect=0;" parent="1" vertex="1">
          <mxGeometry x="122" y="1234" width="30" height="60" as="geometry" />
        </mxCell>
        <mxCell id="2TpxmuqHMShW1TZFTz-Z-23" style="edgeStyle=orthogonalEdgeStyle;rounded=0;orthogonalLoop=1;jettySize=auto;html=1;exitX=0.5;exitY=1;exitDx=0;exitDy=0;" parent="1" source="2TpxmuqHMShW1TZFTz-Z-24" edge="1">
          <mxGeometry relative="1" as="geometry">
            <mxPoint x="182" y="1274" as="targetPoint" />
          </mxGeometry>
        </mxCell>
        <mxCell id="2TpxmuqHMShW1TZFTz-Z-24" value="slatepack&lt;br&gt;address" style="rounded=0;whiteSpace=wrap;html=1;" parent="1" vertex="1">
          <mxGeometry x="402" y="1234" width="120" height="60" as="geometry" />
        </mxCell>
        <mxCell id="2TpxmuqHMShW1TZFTz-Z-25" value="/address" style="text;html=1;strokeColor=none;fillColor=none;align=center;verticalAlign=middle;whiteSpace=wrap;rounded=0;" parent="1" vertex="1">
          <mxGeometry x="232" y="1234" width="60" height="30" as="geometry" />
        </mxCell>
        <mxCell id="2TpxmuqHMShW1TZFTz-Z-26" value="" style="endArrow=none;dashed=1;html=1;dashPattern=1 3;strokeWidth=2;rounded=0;" parent="1" edge="1">
          <mxGeometry width="50" height="50" relative="1" as="geometry">
            <mxPoint x="80" y="150" as="sourcePoint" />
            <mxPoint x="1050" y="150" as="targetPoint" />
          </mxGeometry>
        </mxCell>
        <mxCell id="2TpxmuqHMShW1TZFTz-Z-28" value="Telegram interaction" style="text;html=1;strokeColor=none;fillColor=none;align=center;verticalAlign=middle;whiteSpace=wrap;rounded=0;" parent="1" vertex="1">
          <mxGeometry x="140" y="100" width="60" height="30" as="geometry" />
        </mxCell>
        <mxCell id="2TpxmuqHMShW1TZFTz-Z-29" value="telegram-grin-bot" style="text;html=1;strokeColor=none;fillColor=none;align=center;verticalAlign=middle;whiteSpace=wrap;rounded=0;" parent="1" vertex="1">
          <mxGeometry x="414" y="100" width="100" height="30" as="geometry" />
        </mxCell>
        <mxCell id="2TpxmuqHMShW1TZFTz-Z-31" value="node (owner/foreign)" style="rounded=0;whiteSpace=wrap;html=1;" parent="1" vertex="1">
          <mxGeometry x="400" y="260" width="120" height="60" as="geometry" />
        </mxCell>
        <mxCell id="2TpxmuqHMShW1TZFTz-Z-32" value="wallet(owner/foreign)" style="rounded=0;whiteSpace=wrap;html=1;" parent="1" vertex="1">
          <mxGeometry x="400" y="340" width="120" height="60" as="geometry" />
        </mxCell>
        <mxCell id="2TpxmuqHMShW1TZFTz-Z-54" style="edgeStyle=orthogonalEdgeStyle;rounded=0;orthogonalLoop=1;jettySize=auto;html=1;exitX=1;exitY=0.5;exitDx=0;exitDy=0;startArrow=classic;startFill=1;" parent="1" source="2TpxmuqHMShW1TZFTz-Z-33" target="2TpxmuqHMShW1TZFTz-Z-52" edge="1">
          <mxGeometry relative="1" as="geometry">
            <Array as="points">
              <mxPoint x="620" y="450" />
              <mxPoint x="620" y="420" />
            </Array>
          </mxGeometry>
        </mxCell>
        <mxCell id="2TpxmuqHMShW1TZFTz-Z-55" style="edgeStyle=orthogonalEdgeStyle;rounded=0;orthogonalLoop=1;jettySize=auto;html=1;exitX=1;exitY=0.5;exitDx=0;exitDy=0;entryX=0;entryY=0.5;entryDx=0;entryDy=0;startArrow=classic;startFill=1;" parent="1" source="2TpxmuqHMShW1TZFTz-Z-33" target="2TpxmuqHMShW1TZFTz-Z-53" edge="1">
          <mxGeometry relative="1" as="geometry">
            <Array as="points">
              <mxPoint x="620" y="450" />
              <mxPoint x="620" y="510" />
            </Array>
          </mxGeometry>
        </mxCell>
        <mxCell id="N6jr1tUgsoplkGKrdOBR-8" style="edgeStyle=orthogonalEdgeStyle;rounded=0;orthogonalLoop=1;jettySize=auto;html=1;exitX=1;exitY=0.5;exitDx=0;exitDy=0;entryX=0;entryY=0.5;entryDx=0;entryDy=0;" parent="1" source="2TpxmuqHMShW1TZFTz-Z-33" target="N6jr1tUgsoplkGKrdOBR-7" edge="1">
          <mxGeometry relative="1" as="geometry">
            <Array as="points">
              <mxPoint x="620" y="450" />
              <mxPoint x="620" y="224" />
            </Array>
          </mxGeometry>
        </mxCell>
        <mxCell id="2TpxmuqHMShW1TZFTz-Z-33" value="instance&lt;br&gt;grin-wallet as&lt;br&gt;process" style="rounded=0;whiteSpace=wrap;html=1;" parent="1" vertex="1">
          <mxGeometry x="400" y="420" width="120" height="60" as="geometry" />
        </mxCell>
        <mxCell id="2TpxmuqHMShW1TZFTz-Z-35" value="grin-wallet" style="text;html=1;strokeColor=none;fillColor=none;align=center;verticalAlign=middle;whiteSpace=wrap;rounded=0;" parent="1" vertex="1">
          <mxGeometry x="680" y="100" width="60" height="30" as="geometry" />
        </mxCell>
        <mxCell id="2TpxmuqHMShW1TZFTz-Z-42" style="edgeStyle=orthogonalEdgeStyle;rounded=0;orthogonalLoop=1;jettySize=auto;html=1;exitX=0;exitY=0.5;exitDx=0;exitDy=0;entryX=0;entryY=0.5;entryDx=0;entryDy=0;" parent="1" source="2TpxmuqHMShW1TZFTz-Z-39" target="2TpxmuqHMShW1TZFTz-Z-31" edge="1">
          <mxGeometry relative="1" as="geometry">
            <Array as="points">
              <mxPoint x="370" y="210" />
              <mxPoint x="370" y="290" />
            </Array>
          </mxGeometry>
        </mxCell>
        <mxCell id="2TpxmuqHMShW1TZFTz-Z-44" style="edgeStyle=orthogonalEdgeStyle;rounded=0;orthogonalLoop=1;jettySize=auto;html=1;exitX=0;exitY=0.5;exitDx=0;exitDy=0;entryX=0;entryY=0.5;entryDx=0;entryDy=0;" parent="1" source="2TpxmuqHMShW1TZFTz-Z-39" target="2TpxmuqHMShW1TZFTz-Z-32" edge="1">
          <mxGeometry relative="1" as="geometry">
            <Array as="points">
              <mxPoint x="370" y="210" />
              <mxPoint x="370" y="370" />
            </Array>
          </mxGeometry>
        </mxCell>
        <mxCell id="2TpxmuqHMShW1TZFTz-Z-45" style="edgeStyle=orthogonalEdgeStyle;rounded=0;orthogonalLoop=1;jettySize=auto;html=1;exitX=0;exitY=0.5;exitDx=0;exitDy=0;entryX=0;entryY=0.5;entryDx=0;entryDy=0;" parent="1" source="2TpxmuqHMShW1TZFTz-Z-39" target="2TpxmuqHMShW1TZFTz-Z-33" edge="1">
          <mxGeometry relative="1" as="geometry">
            <Array as="points">
              <mxPoint x="370" y="210" />
              <mxPoint x="370" y="450" />
            </Array>
          </mxGeometry>
        </mxCell>
        <mxCell id="drmmdxis6sEJm5tZShyQ-2" style="edgeStyle=orthogonalEdgeStyle;rounded=0;orthogonalLoop=1;jettySize=auto;html=1;exitX=0;exitY=0.5;exitDx=0;exitDy=0;entryX=0;entryY=0.5;entryDx=0;entryDy=0;" edge="1" parent="1" source="2TpxmuqHMShW1TZFTz-Z-39" target="drmmdxis6sEJm5tZShyQ-1">
          <mxGeometry relative="1" as="geometry">
            <Array as="points">
              <mxPoint x="370" y="210" />
              <mxPoint x="370" y="533" />
            </Array>
          </mxGeometry>
        </mxCell>
        <mxCell id="drmmdxis6sEJm5tZShyQ-12" style="edgeStyle=orthogonalEdgeStyle;rounded=0;orthogonalLoop=1;jettySize=auto;html=1;exitX=0;exitY=0.5;exitDx=0;exitDy=0;entryX=0;entryY=0.5;entryDx=0;entryDy=0;" edge="1" parent="1" source="2TpxmuqHMShW1TZFTz-Z-39" target="drmmdxis6sEJm5tZShyQ-5">
          <mxGeometry relative="1" as="geometry">
            <Array as="points">
              <mxPoint x="370" y="210" />
              <mxPoint x="370" y="720" />
            </Array>
          </mxGeometry>
        </mxCell>
        <mxCell id="2TpxmuqHMShW1TZFTz-Z-39" value="startup" style="ellipse;whiteSpace=wrap;html=1;aspect=fixed;" parent="1" vertex="1">
          <mxGeometry x="420" y="170" width="80" height="80" as="geometry" />
        </mxCell>
        <mxCell id="2TpxmuqHMShW1TZFTz-Z-46" style="edgeStyle=orthogonalEdgeStyle;rounded=0;orthogonalLoop=1;jettySize=auto;html=1;entryX=0;entryY=0.5;entryDx=0;entryDy=0;" parent="1" target="2TpxmuqHMShW1TZFTz-Z-49" edge="1">
          <mxGeometry relative="1" as="geometry">
            <mxPoint x="180" y="1516" as="sourcePoint" />
          </mxGeometry>
        </mxCell>
        <mxCell id="2TpxmuqHMShW1TZFTz-Z-47" value="Telegram User" style="shape=umlActor;verticalLabelPosition=bottom;verticalAlign=top;html=1;outlineConnect=0;" parent="1" vertex="1">
          <mxGeometry x="120" y="1486" width="30" height="60" as="geometry" />
        </mxCell>
        <mxCell id="2TpxmuqHMShW1TZFTz-Z-58" style="edgeStyle=orthogonalEdgeStyle;rounded=0;orthogonalLoop=1;jettySize=auto;html=1;exitX=1;exitY=0.5;exitDx=0;exitDy=0;entryX=0;entryY=0.5;entryDx=0;entryDy=0;startArrow=classic;startFill=1;" parent="1" source="2TpxmuqHMShW1TZFTz-Z-49" target="2TpxmuqHMShW1TZFTz-Z-56" edge="1">
          <mxGeometry relative="1" as="geometry">
            <Array as="points">
              <mxPoint x="610" y="1516" />
              <mxPoint x="610" y="1421" />
            </Array>
          </mxGeometry>
        </mxCell>
        <mxCell id="2TpxmuqHMShW1TZFTz-Z-59" style="edgeStyle=orthogonalEdgeStyle;rounded=0;orthogonalLoop=1;jettySize=auto;html=1;exitX=1;exitY=0.5;exitDx=0;exitDy=0;entryX=0;entryY=0.5;entryDx=0;entryDy=0;" parent="1" source="2TpxmuqHMShW1TZFTz-Z-49" target="2TpxmuqHMShW1TZFTz-Z-57" edge="1">
          <mxGeometry relative="1" as="geometry" />
        </mxCell>
        <mxCell id="2TpxmuqHMShW1TZFTz-Z-62" style="edgeStyle=orthogonalEdgeStyle;rounded=0;orthogonalLoop=1;jettySize=auto;html=1;exitX=1;exitY=0.5;exitDx=0;exitDy=0;entryX=0;entryY=0.5;entryDx=0;entryDy=0;" parent="1" source="2TpxmuqHMShW1TZFTz-Z-49" target="2TpxmuqHMShW1TZFTz-Z-60" edge="1">
          <mxGeometry relative="1" as="geometry">
            <Array as="points">
              <mxPoint x="610" y="1516" />
              <mxPoint x="610" y="1616" />
            </Array>
          </mxGeometry>
        </mxCell>
        <mxCell id="2TpxmuqHMShW1TZFTz-Z-49" value="slatepack&lt;br&gt;implement status S1" style="rounded=0;whiteSpace=wrap;html=1;" parent="1" vertex="1">
          <mxGeometry x="400" y="1486" width="120" height="60" as="geometry" />
        </mxCell>
        <mxCell id="2TpxmuqHMShW1TZFTz-Z-50" value="S1&lt;br style=&quot;font-size: 9px;&quot;&gt;BEGINSLATEPACK ....&lt;br style=&quot;font-size: 9px;&quot;&gt;ENDSLATEPACK" style="text;html=1;strokeColor=none;fillColor=none;align=center;verticalAlign=middle;whiteSpace=wrap;rounded=0;fontSize=9;" parent="1" vertex="1">
          <mxGeometry x="204.02" y="1476" width="60" height="30" as="geometry" />
        </mxCell>
        <mxCell id="2TpxmuqHMShW1TZFTz-Z-52" value="owner-wallet&lt;br&gt;init_secure_api" style="rounded=0;whiteSpace=wrap;html=1;" parent="1" vertex="1">
          <mxGeometry x="660" y="390" width="120" height="60" as="geometry" />
        </mxCell>
        <mxCell id="2TpxmuqHMShW1TZFTz-Z-53" value="owner-wallet&lt;br&gt;open_wallet" style="rounded=0;whiteSpace=wrap;html=1;" parent="1" vertex="1">
          <mxGeometry x="660" y="480" width="120" height="60" as="geometry" />
        </mxCell>
        <mxCell id="2TpxmuqHMShW1TZFTz-Z-56" value="owner-wallet&lt;br&gt;slate_from_slatepack_message" style="rounded=0;whiteSpace=wrap;html=1;" parent="1" vertex="1">
          <mxGeometry x="630" y="1391" width="180" height="60" as="geometry" />
        </mxCell>
        <mxCell id="2TpxmuqHMShW1TZFTz-Z-57" value="foreign-wallet&lt;br&gt;receive_tx" style="rounded=0;whiteSpace=wrap;html=1;" parent="1" vertex="1">
          <mxGeometry x="630" y="1486" width="180" height="60" as="geometry" />
        </mxCell>
        <mxCell id="2TpxmuqHMShW1TZFTz-Z-65" style="edgeStyle=orthogonalEdgeStyle;rounded=0;orthogonalLoop=1;jettySize=auto;html=1;exitX=0.5;exitY=1;exitDx=0;exitDy=0;entryX=1;entryY=0.5;entryDx=0;entryDy=0;" parent="1" source="2TpxmuqHMShW1TZFTz-Z-60" target="2TpxmuqHMShW1TZFTz-Z-63" edge="1">
          <mxGeometry relative="1" as="geometry" />
        </mxCell>
        <mxCell id="2TpxmuqHMShW1TZFTz-Z-60" value="owner-wallet&lt;br&gt;create_slatepack_message" style="rounded=0;whiteSpace=wrap;html=1;" parent="1" vertex="1">
          <mxGeometry x="630" y="1586" width="180" height="60" as="geometry" />
        </mxCell>
        <mxCell id="2TpxmuqHMShW1TZFTz-Z-79" style="edgeStyle=orthogonalEdgeStyle;rounded=0;orthogonalLoop=1;jettySize=auto;html=1;exitX=0;exitY=0.5;exitDx=0;exitDy=0;" parent="1" source="2TpxmuqHMShW1TZFTz-Z-63" edge="1">
          <mxGeometry relative="1" as="geometry">
            <mxPoint x="179.5714285714289" y="1666.2857142857142" as="targetPoint" />
          </mxGeometry>
        </mxCell>
        <mxCell id="2TpxmuqHMShW1TZFTz-Z-63" value="slatepack&lt;br&gt;return" style="rounded=0;whiteSpace=wrap;html=1;" parent="1" vertex="1">
          <mxGeometry x="400" y="1636" width="120" height="60" as="geometry" />
        </mxCell>
        <mxCell id="2TpxmuqHMShW1TZFTz-Z-67" value="S2&lt;br style=&quot;font-size: 9px;&quot;&gt;BEGINSLATEPACK ....&lt;br style=&quot;font-size: 9px;&quot;&gt;ENDSLATEPACK" style="text;html=1;strokeColor=none;fillColor=none;align=center;verticalAlign=middle;whiteSpace=wrap;rounded=0;fontSize=9;" parent="1" vertex="1">
          <mxGeometry x="340" y="1716" width="60" height="30" as="geometry" />
        </mxCell>
        <mxCell id="2TpxmuqHMShW1TZFTz-Z-69" value="wallet (GRIM, etc.)&lt;br&gt;create send slatepack" style="shape=process;whiteSpace=wrap;html=1;backgroundOutline=1;" parent="1" vertex="1">
          <mxGeometry x="-156" y="1493" width="120" height="60" as="geometry" />
        </mxCell>
        <mxCell id="2TpxmuqHMShW1TZFTz-Z-73" value="S2&lt;br style=&quot;font-size: 9px;&quot;&gt;BEGINSLATEPACK ....&lt;br style=&quot;font-size: 9px;&quot;&gt;ENDSLATEPACK" style="text;html=1;strokeColor=none;fillColor=none;align=center;verticalAlign=middle;whiteSpace=wrap;rounded=0;fontSize=9;" parent="1" vertex="1">
          <mxGeometry x="-1" y="1704" width="60" height="30" as="geometry" />
        </mxCell>
        <mxCell id="2TpxmuqHMShW1TZFTz-Z-74" value="" style="endArrow=classic;html=1;rounded=0;exitX=1;exitY=0.5;exitDx=0;exitDy=0;" parent="1" source="2TpxmuqHMShW1TZFTz-Z-69" edge="1">
          <mxGeometry width="50" height="50" relative="1" as="geometry">
            <mxPoint x="650" y="1591" as="sourcePoint" />
            <mxPoint x="110" y="1523" as="targetPoint" />
          </mxGeometry>
        </mxCell>
        <mxCell id="drmmdxis6sEJm5tZShyQ-51" style="edgeStyle=orthogonalEdgeStyle;rounded=0;orthogonalLoop=1;jettySize=auto;html=1;exitX=0.5;exitY=1;exitDx=0;exitDy=0;entryX=0.5;entryY=0;entryDx=0;entryDy=0;" edge="1" parent="1" source="2TpxmuqHMShW1TZFTz-Z-75" target="drmmdxis6sEJm5tZShyQ-50">
          <mxGeometry relative="1" as="geometry">
            <Array as="points">
              <mxPoint x="-96" y="1751" />
              <mxPoint x="-327" y="1751" />
            </Array>
          </mxGeometry>
        </mxCell>
        <mxCell id="2TpxmuqHMShW1TZFTz-Z-75" value="wallet (GRIM, etc.)&lt;br&gt;finalize" style="shape=process;whiteSpace=wrap;html=1;backgroundOutline=1;" parent="1" vertex="1">
          <mxGeometry x="-156" y="1640" width="120" height="60" as="geometry" />
        </mxCell>
        <mxCell id="2TpxmuqHMShW1TZFTz-Z-76" value="Telegram User" style="shape=umlActor;verticalLabelPosition=bottom;verticalAlign=top;html=1;outlineConnect=0;" parent="1" vertex="1">
          <mxGeometry x="120" y="1636" width="30" height="60" as="geometry" />
        </mxCell>
        <mxCell id="2TpxmuqHMShW1TZFTz-Z-77" value="" style="endArrow=classic;html=1;rounded=0;entryX=1;entryY=0.5;entryDx=0;entryDy=0;" parent="1" target="2TpxmuqHMShW1TZFTz-Z-75" edge="1">
          <mxGeometry width="50" height="50" relative="1" as="geometry">
            <mxPoint x="97" y="1670" as="sourcePoint" />
            <mxPoint x="700" y="1559" as="targetPoint" />
          </mxGeometry>
        </mxCell>
        <mxCell id="N6jr1tUgsoplkGKrdOBR-1" value="" style="endArrow=none;dashed=1;html=1;dashPattern=1 3;strokeWidth=2;rounded=0;" parent="1" edge="1">
          <mxGeometry width="50" height="50" relative="1" as="geometry">
            <mxPoint x="844" y="2317" as="sourcePoint" />
            <mxPoint x="844" y="105" as="targetPoint" />
          </mxGeometry>
        </mxCell>
        <mxCell id="N6jr1tUgsoplkGKrdOBR-2" value="grin-node&lt;br&gt;https://grincoin.org" style="text;html=1;strokeColor=none;fillColor=none;align=center;verticalAlign=middle;whiteSpace=wrap;rounded=0;" parent="1" vertex="1">
          <mxGeometry x="890" y="100" width="118" height="30" as="geometry" />
        </mxCell>
        <mxCell id="N6jr1tUgsoplkGKrdOBR-10" style="edgeStyle=orthogonalEdgeStyle;rounded=0;orthogonalLoop=1;jettySize=auto;html=1;exitX=1;exitY=0.5;exitDx=0;exitDy=0;startArrow=classic;startFill=1;" parent="1" source="N6jr1tUgsoplkGKrdOBR-7" target="N6jr1tUgsoplkGKrdOBR-9" edge="1">
          <mxGeometry relative="1" as="geometry" />
        </mxCell>
        <mxCell id="N6jr1tUgsoplkGKrdOBR-7" value="startup" style="ellipse;whiteSpace=wrap;html=1;aspect=fixed;" parent="1" vertex="1">
          <mxGeometry x="675" y="184" width="80" height="80" as="geometry" />
        </mxCell>
        <mxCell id="N6jr1tUgsoplkGKrdOBR-9" value="node" style="rounded=0;whiteSpace=wrap;html=1;" parent="1" vertex="1">
          <mxGeometry x="888" y="194" width="120" height="60" as="geometry" />
        </mxCell>
        <mxCell id="N6jr1tUgsoplkGKrdOBR-11" value="connect" style="text;html=1;strokeColor=none;fillColor=none;align=center;verticalAlign=middle;whiteSpace=wrap;rounded=0;" parent="1" vertex="1">
          <mxGeometry x="780" y="199" width="60" height="30" as="geometry" />
        </mxCell>
        <mxCell id="drmmdxis6sEJm5tZShyQ-1" value="instance&lt;br&gt;database" style="rounded=0;whiteSpace=wrap;html=1;" vertex="1" parent="1">
          <mxGeometry x="400" y="503" width="120" height="60" as="geometry" />
        </mxCell>
        <mxCell id="drmmdxis6sEJm5tZShyQ-3" value="FAUCET" style="rounded=0;whiteSpace=wrap;html=1;" vertex="1" parent="1">
          <mxGeometry x="431" y="553" width="120" height="60" as="geometry" />
        </mxCell>
        <mxCell id="drmmdxis6sEJm5tZShyQ-4" value="DONATE" style="rounded=0;whiteSpace=wrap;html=1;" vertex="1" parent="1">
          <mxGeometry x="455" y="601" width="120" height="60" as="geometry" />
        </mxCell>
        <mxCell id="drmmdxis6sEJm5tZShyQ-9" style="edgeStyle=orthogonalEdgeStyle;rounded=0;orthogonalLoop=1;jettySize=auto;html=1;exitX=1;exitY=0.5;exitDx=0;exitDy=0;entryX=0;entryY=0.5;entryDx=0;entryDy=0;startArrow=classic;startFill=1;" edge="1" parent="1" source="drmmdxis6sEJm5tZShyQ-5" target="drmmdxis6sEJm5tZShyQ-6">
          <mxGeometry relative="1" as="geometry" />
        </mxCell>
        <mxCell id="drmmdxis6sEJm5tZShyQ-5" value="Cleanup" style="rounded=0;whiteSpace=wrap;html=1;" vertex="1" parent="1">
          <mxGeometry x="407" y="690" width="120" height="60" as="geometry" />
        </mxCell>
        <mxCell id="drmmdxis6sEJm5tZShyQ-6" value="retrieve_tx" style="rounded=0;whiteSpace=wrap;html=1;" vertex="1" parent="1">
          <mxGeometry x="658" y="690" width="120" height="60" as="geometry" />
        </mxCell>
        <mxCell id="drmmdxis6sEJm5tZShyQ-8" style="edgeStyle=orthogonalEdgeStyle;rounded=0;orthogonalLoop=1;jettySize=auto;html=1;exitX=1;exitY=0.5;exitDx=0;exitDy=0;entryX=0.5;entryY=1;entryDx=0;entryDy=0;" edge="1" parent="1" source="drmmdxis6sEJm5tZShyQ-5" target="drmmdxis6sEJm5tZShyQ-5">
          <mxGeometry relative="1" as="geometry" />
        </mxCell>
        <mxCell id="drmmdxis6sEJm5tZShyQ-11" style="edgeStyle=orthogonalEdgeStyle;rounded=0;orthogonalLoop=1;jettySize=auto;html=1;exitX=0;exitY=0.5;exitDx=0;exitDy=0;entryX=1;entryY=0.5;entryDx=0;entryDy=0;startArrow=classic;startFill=1;" edge="1" parent="1" source="drmmdxis6sEJm5tZShyQ-10" target="drmmdxis6sEJm5tZShyQ-5">
          <mxGeometry relative="1" as="geometry">
            <Array as="points">
              <mxPoint x="609" y="814" />
              <mxPoint x="609" y="720" />
            </Array>
          </mxGeometry>
        </mxCell>
        <mxCell id="drmmdxis6sEJm5tZShyQ-10" value="cancel_tx" style="rounded=0;whiteSpace=wrap;html=1;" vertex="1" parent="1">
          <mxGeometry x="658" y="784" width="120" height="60" as="geometry" />
        </mxCell>
        <mxCell id="drmmdxis6sEJm5tZShyQ-13" value="every 5min" style="text;html=1;strokeColor=none;fillColor=none;align=center;verticalAlign=middle;whiteSpace=wrap;rounded=0;" vertex="1" parent="1">
          <mxGeometry x="482" y="770" width="60" height="30" as="geometry" />
        </mxCell>
        <mxCell id="drmmdxis6sEJm5tZShyQ-16" style="edgeStyle=orthogonalEdgeStyle;rounded=0;orthogonalLoop=1;jettySize=auto;html=1;entryX=0;entryY=0.5;entryDx=0;entryDy=0;" edge="1" parent="1" target="drmmdxis6sEJm5tZShyQ-21">
          <mxGeometry relative="1" as="geometry">
            <mxPoint x="177" y="1966" as="sourcePoint" />
          </mxGeometry>
        </mxCell>
        <mxCell id="drmmdxis6sEJm5tZShyQ-17" value="Telegram User" style="shape=umlActor;verticalLabelPosition=bottom;verticalAlign=top;html=1;outlineConnect=0;" vertex="1" parent="1">
          <mxGeometry x="117" y="1936" width="30" height="60" as="geometry" />
        </mxCell>
        <mxCell id="drmmdxis6sEJm5tZShyQ-42" style="edgeStyle=orthogonalEdgeStyle;rounded=0;orthogonalLoop=1;jettySize=auto;html=1;exitX=0.5;exitY=1;exitDx=0;exitDy=0;entryX=0.5;entryY=0;entryDx=0;entryDy=0;" edge="1" parent="1" source="drmmdxis6sEJm5tZShyQ-21" target="drmmdxis6sEJm5tZShyQ-41">
          <mxGeometry relative="1" as="geometry" />
        </mxCell>
        <mxCell id="drmmdxis6sEJm5tZShyQ-21" value="slatepack&lt;br&gt;implement status I1" style="rounded=0;whiteSpace=wrap;html=1;" vertex="1" parent="1">
          <mxGeometry x="397" y="1936" width="120" height="60" as="geometry" />
        </mxCell>
        <mxCell id="drmmdxis6sEJm5tZShyQ-22" value="I1&lt;br style=&quot;font-size: 9px;&quot;&gt;BEGINSLATEPACK ....&lt;br style=&quot;font-size: 9px;&quot;&gt;ENDSLATEPACK" style="text;html=1;strokeColor=none;fillColor=none;align=center;verticalAlign=middle;whiteSpace=wrap;rounded=0;fontSize=9;" vertex="1" parent="1">
          <mxGeometry x="201.02" y="1926" width="60" height="30" as="geometry" />
        </mxCell>
        <mxCell id="drmmdxis6sEJm5tZShyQ-47" style="edgeStyle=orthogonalEdgeStyle;rounded=0;orthogonalLoop=1;jettySize=auto;html=1;exitX=0.5;exitY=1;exitDx=0;exitDy=0;entryX=0.5;entryY=0;entryDx=0;entryDy=0;" edge="1" parent="1" source="drmmdxis6sEJm5tZShyQ-23" target="drmmdxis6sEJm5tZShyQ-24">
          <mxGeometry relative="1" as="geometry" />
        </mxCell>
        <mxCell id="drmmdxis6sEJm5tZShyQ-23" value="owner-wallet&lt;br&gt;processInvoiceTx" style="rounded=0;whiteSpace=wrap;html=1;" vertex="1" parent="1">
          <mxGeometry x="648" y="2021" width="180" height="60" as="geometry" />
        </mxCell>
        <mxCell id="drmmdxis6sEJm5tZShyQ-48" style="edgeStyle=orthogonalEdgeStyle;rounded=0;orthogonalLoop=1;jettySize=auto;html=1;exitX=0.5;exitY=1;exitDx=0;exitDy=0;entryX=0.5;entryY=0;entryDx=0;entryDy=0;" edge="1" parent="1" source="drmmdxis6sEJm5tZShyQ-24" target="drmmdxis6sEJm5tZShyQ-26">
          <mxGeometry relative="1" as="geometry" />
        </mxCell>
        <mxCell id="drmmdxis6sEJm5tZShyQ-49" style="edgeStyle=orthogonalEdgeStyle;rounded=0;orthogonalLoop=1;jettySize=auto;html=1;exitX=0;exitY=0.5;exitDx=0;exitDy=0;entryX=1;entryY=0.5;entryDx=0;entryDy=0;" edge="1" parent="1" source="drmmdxis6sEJm5tZShyQ-24" target="drmmdxis6sEJm5tZShyQ-28">
          <mxGeometry relative="1" as="geometry" />
        </mxCell>
        <mxCell id="drmmdxis6sEJm5tZShyQ-24" value="foreign-wallet&lt;br&gt;createSlatepackMessage" style="rounded=0;whiteSpace=wrap;html=1;" vertex="1" parent="1">
          <mxGeometry x="648" y="2130" width="180" height="60" as="geometry" />
        </mxCell>
        <mxCell id="drmmdxis6sEJm5tZShyQ-26" value="owner-wallet&lt;br&gt;txLockOutputs" style="rounded=0;whiteSpace=wrap;html=1;" vertex="1" parent="1">
          <mxGeometry x="648" y="2234" width="180" height="60" as="geometry" />
        </mxCell>
        <mxCell id="drmmdxis6sEJm5tZShyQ-27" style="edgeStyle=orthogonalEdgeStyle;rounded=0;orthogonalLoop=1;jettySize=auto;html=1;exitX=0;exitY=0.5;exitDx=0;exitDy=0;" edge="1" parent="1" source="drmmdxis6sEJm5tZShyQ-28">
          <mxGeometry relative="1" as="geometry">
            <mxPoint x="176.5714285714289" y="2160.285714285714" as="targetPoint" />
          </mxGeometry>
        </mxCell>
        <mxCell id="drmmdxis6sEJm5tZShyQ-28" value="slatepack&lt;br&gt;return" style="rounded=0;whiteSpace=wrap;html=1;" vertex="1" parent="1">
          <mxGeometry x="397" y="2130" width="120" height="60" as="geometry" />
        </mxCell>
        <mxCell id="drmmdxis6sEJm5tZShyQ-29" value="I2&lt;br style=&quot;font-size: 9px;&quot;&gt;BEGINSLATEPACK ....&lt;br style=&quot;font-size: 9px;&quot;&gt;ENDSLATEPACK" style="text;html=1;strokeColor=none;fillColor=none;align=center;verticalAlign=middle;whiteSpace=wrap;rounded=0;fontSize=9;" vertex="1" parent="1">
          <mxGeometry x="337" y="2210" width="60" height="30" as="geometry" />
        </mxCell>
        <mxCell id="drmmdxis6sEJm5tZShyQ-30" value="wallet (GRIM, etc.)&lt;br&gt;create receive slatepack" style="shape=process;whiteSpace=wrap;html=1;backgroundOutline=1;" vertex="1" parent="1">
          <mxGeometry x="-159" y="1943" width="120" height="60" as="geometry" />
        </mxCell>
        <mxCell id="drmmdxis6sEJm5tZShyQ-31" value="I2&lt;br style=&quot;font-size: 9px;&quot;&gt;BEGINSLATEPACK ....&lt;br style=&quot;font-size: 9px;&quot;&gt;ENDSLATEPACK" style="text;html=1;strokeColor=none;fillColor=none;align=center;verticalAlign=middle;whiteSpace=wrap;rounded=0;fontSize=9;" vertex="1" parent="1">
          <mxGeometry x="-4" y="2198" width="60" height="30" as="geometry" />
        </mxCell>
        <mxCell id="drmmdxis6sEJm5tZShyQ-32" value="" style="endArrow=classic;html=1;rounded=0;exitX=1;exitY=0.5;exitDx=0;exitDy=0;" edge="1" parent="1" source="drmmdxis6sEJm5tZShyQ-30">
          <mxGeometry width="50" height="50" relative="1" as="geometry">
            <mxPoint x="647" y="2041" as="sourcePoint" />
            <mxPoint x="107" y="1973" as="targetPoint" />
          </mxGeometry>
        </mxCell>
        <mxCell id="drmmdxis6sEJm5tZShyQ-52" style="edgeStyle=orthogonalEdgeStyle;rounded=0;orthogonalLoop=1;jettySize=auto;html=1;exitX=0;exitY=0.5;exitDx=0;exitDy=0;entryX=0.5;entryY=1;entryDx=0;entryDy=0;" edge="1" parent="1" source="drmmdxis6sEJm5tZShyQ-33" target="drmmdxis6sEJm5tZShyQ-50">
          <mxGeometry relative="1" as="geometry" />
        </mxCell>
        <mxCell id="drmmdxis6sEJm5tZShyQ-33" value="wallet (GRIM, etc.)&lt;br&gt;finalize" style="shape=process;whiteSpace=wrap;html=1;backgroundOutline=1;" vertex="1" parent="1">
          <mxGeometry x="-159" y="2134" width="120" height="60" as="geometry" />
        </mxCell>
        <mxCell id="drmmdxis6sEJm5tZShyQ-34" value="Telegram User" style="shape=umlActor;verticalLabelPosition=bottom;verticalAlign=top;html=1;outlineConnect=0;" vertex="1" parent="1">
          <mxGeometry x="117" y="2130" width="30" height="60" as="geometry" />
        </mxCell>
        <mxCell id="drmmdxis6sEJm5tZShyQ-35" value="" style="endArrow=classic;html=1;rounded=0;entryX=1;entryY=0.5;entryDx=0;entryDy=0;" edge="1" parent="1" target="drmmdxis6sEJm5tZShyQ-33">
          <mxGeometry width="50" height="50" relative="1" as="geometry">
            <mxPoint x="94" y="2164" as="sourcePoint" />
            <mxPoint x="697" y="2053" as="targetPoint" />
          </mxGeometry>
        </mxCell>
        <mxCell id="drmmdxis6sEJm5tZShyQ-36" value="" style="endArrow=none;dashed=1;html=1;dashPattern=1 3;strokeWidth=2;rounded=0;" edge="1" parent="1">
          <mxGeometry width="50" height="50" relative="1" as="geometry">
            <mxPoint x="-187" y="1378" as="sourcePoint" />
            <mxPoint x="932" y="1378" as="targetPoint" />
          </mxGeometry>
        </mxCell>
        <mxCell id="drmmdxis6sEJm5tZShyQ-38" value="Sent" style="text;html=1;strokeColor=none;fillColor=none;align=center;verticalAlign=middle;whiteSpace=wrap;rounded=0;" vertex="1" parent="1">
          <mxGeometry x="-151" y="1344" width="60" height="30" as="geometry" />
        </mxCell>
        <mxCell id="drmmdxis6sEJm5tZShyQ-39" value="" style="endArrow=none;dashed=1;html=1;dashPattern=1 3;strokeWidth=2;rounded=0;" edge="1" parent="1">
          <mxGeometry width="50" height="50" relative="1" as="geometry">
            <mxPoint x="-187" y="1799" as="sourcePoint" />
            <mxPoint x="932" y="1799" as="targetPoint" />
          </mxGeometry>
        </mxCell>
        <mxCell id="drmmdxis6sEJm5tZShyQ-40" value="Receive" style="text;html=1;strokeColor=none;fillColor=none;align=center;verticalAlign=middle;whiteSpace=wrap;rounded=0;" vertex="1" parent="1">
          <mxGeometry x="-151" y="1765" width="60" height="30" as="geometry" />
        </mxCell>
        <mxCell id="drmmdxis6sEJm5tZShyQ-44" style="edgeStyle=orthogonalEdgeStyle;rounded=0;orthogonalLoop=1;jettySize=auto;html=1;exitX=0;exitY=0.5;exitDx=0;exitDy=0;" edge="1" parent="1" source="drmmdxis6sEJm5tZShyQ-41">
          <mxGeometry relative="1" as="geometry">
            <mxPoint x="179" y="1981" as="targetPoint" />
            <Array as="points">
              <mxPoint x="218" y="2051" />
            </Array>
          </mxGeometry>
        </mxCell>
        <mxCell id="drmmdxis6sEJm5tZShyQ-46" style="edgeStyle=orthogonalEdgeStyle;rounded=0;orthogonalLoop=1;jettySize=auto;html=1;exitX=1;exitY=0.5;exitDx=0;exitDy=0;" edge="1" parent="1" source="drmmdxis6sEJm5tZShyQ-41" target="drmmdxis6sEJm5tZShyQ-23">
          <mxGeometry relative="1" as="geometry" />
        </mxCell>
        <mxCell id="drmmdxis6sEJm5tZShyQ-41" value="check max 2 Grin per day per User" style="rounded=0;whiteSpace=wrap;html=1;" vertex="1" parent="1">
          <mxGeometry x="397" y="2021" width="120" height="60" as="geometry" />
        </mxCell>
        <mxCell id="drmmdxis6sEJm5tZShyQ-45" value="max reached" style="text;html=1;strokeColor=none;fillColor=none;align=center;verticalAlign=middle;whiteSpace=wrap;rounded=0;" vertex="1" parent="1">
          <mxGeometry x="243" y="2021" width="60" height="30" as="geometry" />
        </mxCell>
        <mxCell id="drmmdxis6sEJm5tZShyQ-50" value="Node(GRIM, etc.)" style="shape=process;whiteSpace=wrap;html=1;backgroundOutline=1;" vertex="1" parent="1">
          <mxGeometry x="-387" y="1914" width="120" height="60" as="geometry" />
        </mxCell>
        <mxCell id="drmmdxis6sEJm5tZShyQ-53" value="commit" style="text;html=1;strokeColor=none;fillColor=none;align=center;verticalAlign=middle;whiteSpace=wrap;rounded=0;" vertex="1" parent="1">
          <mxGeometry x="-278" y="1726" width="60" height="30" as="geometry" />
        </mxCell>
        <mxCell id="drmmdxis6sEJm5tZShyQ-54" value="commit" style="text;html=1;strokeColor=none;fillColor=none;align=center;verticalAlign=middle;whiteSpace=wrap;rounded=0;" vertex="1" parent="1">
          <mxGeometry x="-278" y="2136" width="60" height="30" as="geometry" />
        </mxCell>
      </root>
    </mxGraphModel>
  </diagram>
</mxfile>
